<?xml version="1.0" standalone="no"?>
<!DOCTYPE svg PUBLIC "-//W3C//DTD SVG 20010904//EN"
 "http://www.w3.org/TR/2001/REC-SVG-20010904/DTD/svg10.dtd">
<svg version="1.0" xmlns="http://www.w3.org/2000/svg"
 width="566.000000pt" height="560.000000pt" viewBox="0 0 566.000000 560.000000"
 preserveAspectRatio="xMidYMid meet">

<g transform="translate(0.000000,560.000000) scale(0.100000,-0.100000)"
fill="#000000" stroke="none">
<path d="M2803 4838 c-67 -112 -138 -233 -158 -270 l-37 -68 165 0 c143 0 166
-2 180 -17 14 -16 136 -223 174 -296 15 -28 13 -31 -55 -145 -90 -150 -106
-184 -99 -213 7 -28 125 -219 135 -219 4 1 78 119 165 263 106 177 157 272
157 292 0 19 -78 159 -247 444 -135 229 -249 420 -253 424 -4 4 -61 -84 -127
-195z"/>
<path d="M2016 4127 c-92 -155 -205 -344 -251 -421 -60 -98 -85 -148 -85 -170
1 -31 115 -236 135 -242 12 -4 71 92 277 449 82 143 167 288 188 323 61 98 61
96 -15 223 -37 61 -70 113 -74 116 -5 2 -83 -123 -175 -278z"/>
<path d="M2197 3798 c-46 -73 -307 -516 -314 -534 -4 -12 39 -14 301 -14 240
0 306 3 306 13 0 12 -32 68 -114 201 -20 33 -36 68 -36 77 0 10 23 56 50 104
28 48 50 90 50 93 0 7 -192 112 -204 112 -3 0 -20 -24 -39 -52z"/>
<path d="M2527 3753 c-63 -98 -117 -197 -117 -212 0 -9 58 -115 128 -236 164
-280 192 -325 203 -325 9 0 116 177 132 221 14 36 19 25 -166 333 l-155 258
-25 -39z"/>
<path d="M3026 3191 l-89 -6 -59 -98 c-32 -53 -63 -108 -68 -122 l-10 -25 515
0 514 0 49 83 c50 82 92 161 92 172 0 7 -826 3 -944 -4z"/>
<path d="M546 2778 c-8 -40 -8 -482 0 -530 l7 -38 196 0 c108 0 203 5 211 10
12 7 13 13 4 27 -10 16 -29 18 -179 18 -143 0 -169 2 -178 16 -6 9 -7 24 -4
33 6 14 28 16 176 16 159 0 171 1 181 20 9 17 6 20 -32 31 -27 7 -97 10 -183
8 l-140 -4 -3 37 -3 36 175 -1 c128 -2 178 1 187 11 25 24 -8 31 -183 38
l-178 7 0 118 0 117 175 4 c182 3 212 10 185 43 -11 13 -44 15 -210 15 l-198
-1 -6 -31z"/>
<path d="M1633 2688 c-67 -68 -127 -124 -132 -126 -5 -2 -60 51 -122 118 -101
107 -116 120 -147 120 l-34 0 6 -122 c3 -68 9 -199 12 -291 5 -126 9 -166 18
-157 7 7 13 91 16 253 l5 242 81 -81 c45 -44 89 -92 98 -107 17 -25 17 -27 -9
-72 -63 -107 14 -211 120 -163 66 30 72 119 13 184 l-19 22 59 68 c63 75 127
134 142 134 6 0 10 -92 10 -238 0 -231 4 -262 32 -262 19 0 26 94 24 325 -1
138 -5 256 -9 263 -17 26 -45 8 -164 -110z m-109 -241 c10 -7 18 -27 19 -47 2
-27 -3 -37 -25 -49 -24 -14 -28 -14 -47 3 -25 23 -27 48 -5 81 18 28 32 31 58
12z"/>
<path d="M2042 2800 l-22 -9 2 -283 c3 -275 4 -283 23 -283 16 0 21 8 25 45 8
70 13 73 95 67 39 -3 106 -1 148 3 148 17 214 79 233 217 12 94 -34 173 -125
211 -79 34 -322 54 -379 32z m360 -72 c54 -32 88 -92 88 -156 0 -54 -15 -90
-53 -130 -41 -43 -106 -61 -229 -64 -136 -4 -132 -9 -136 194 -3 147 -2 163
15 176 13 10 49 13 143 10 115 -3 129 -5 172 -30z"/>
<path d="M2925 2796 c-134 -42 -210 -148 -209 -291 1 -84 33 -153 100 -214 70
-64 131 -85 228 -79 113 8 203 65 254 162 23 44 27 63 27 141 0 74 -4 98 -22
131 -66 123 -242 193 -378 150z m212 -57 c120 -58 176 -214 119 -335 -52 -112
-217 -177 -330 -130 -125 52 -193 219 -137 342 22 49 89 108 145 128 62 22
152 20 203 -5z"/>
<path d="M4733 2792 c-209 -75 -269 -323 -118 -490 56 -62 124 -92 210 -92 95
0 154 22 219 81 71 64 100 130 100 224 -1 85 -17 127 -75 190 -87 94 -220 128
-336 87z m234 -60 c119 -61 167 -230 99 -347 -64 -109 -237 -156 -353 -96
-150 77 -185 283 -66 392 32 30 84 59 128 70 50 13 147 3 192 -19z"/>
<path d="M3537 2628 c-12 -302 -9 -398 9 -405 22 -8 47 25 39 54 -8 33 19 53
74 53 26 0 89 3 140 7 l91 6 59 -61 c36 -38 68 -62 80 -62 20 0 21 2 7 28 -8
16 -31 48 -50 71 l-36 43 31 36 c101 115 103 258 3 340 -63 52 -108 62 -284
62 l-157 0 -6 -172z m369 101 c152 -78 130 -284 -36 -333 -35 -11 -92 -16
-167 -16 l-113 0 0 184 c0 138 3 186 13 190 6 3 66 4 133 3 107 -2 127 -6 170
-28z"/>
<path d="M4287 2793 c-11 -10 -8 -519 3 -547 13 -34 25 -33 40 4 9 22 10 92 5
290 -7 236 -9 260 -25 260 -9 0 -20 -3 -23 -7z"/>
<path d="M440 1981 c0 -37 86 -237 158 -366 275 -495 717 -892 1235 -1109 311
-130 595 -192 937 -203 444 -14 830 69 1225 262 264 129 444 256 654 460 211
206 367 413 485 645 60 118 110 239 102 247 -3 3 -931 18 -2063 33 -1132 16
-2210 31 -2395 34 -186 3 -338 2 -338 -3z m672 -333 l3 -203 108 -3 c106 -3
107 -3 107 -27 l0 -25 -130 0 -130 0 0 230 c0 223 1 230 20 230 19 0 20 -8 22
-202z m1205 82 c46 -28 73 -86 73 -160 0 -112 -51 -180 -142 -188 -44 -3 -59
0 -88 20 -52 35 -80 91 -80 161 0 72 17 113 64 155 31 27 44 32 89 32 34 0 63
-7 84 -20z m1340 0 c46 -28 73 -86 73 -160 0 -112 -51 -180 -142 -188 -44 -3
-59 0 -88 20 -52 35 -80 91 -80 161 0 72 17 113 64 155 31 27 44 32 89 32 34
0 63 -7 84 -20z m593 -160 c0 -173 -1 -180 -20 -180 -19 0 -20 7 -20 180 0
173 1 180 20 180 19 0 20 -7 20 -180z m339 164 c51 -30 75 -80 79 -158 2 -59
-1 -78 -20 -111 -36 -62 -82 -88 -146 -83 -91 8 -142 76 -142 188 0 113 57
180 153 180 27 0 61 -7 76 -16z m-3003 -169 c35 -93 64 -171 64 -172 0 -2 -10
-3 -23 -3 -18 0 -26 9 -37 43 l-15 42 -69 0 -69 0 -16 -42 c-12 -33 -20 -43
-38 -43 l-22 0 29 80 c43 116 87 232 95 253 17 42 39 7 101 -158z m356 158
c22 -26 29 -66 17 -101 -9 -25 -8 -36 5 -54 10 -14 16 -43 16 -76 0 -43 -5
-58 -25 -77 -22 -23 -31 -25 -125 -25 l-100 0 0 175 0 175 98 0 c82 0 102 -3
114 -17z m794 -4 c14 -15 19 -36 19 -76 0 -47 -4 -58 -28 -79 l-28 -24 35 -75
c34 -74 34 -75 13 -75 -18 0 -30 15 -60 75 l-37 75 -55 0 -55 0 0 -75 c0 -68
-2 -75 -20 -75 -19 0 -20 7 -20 175 l0 175 108 0 c98 0 111 -2 128 -21z m279
-106 c26 -71 56 -149 66 -175 l19 -48 -24 0 c-20 0 -27 8 -38 43 l-15 42 -69
3 -69 3 -15 -43 c-11 -31 -21 -44 -37 -46 -13 -2 -23 -1 -23 1 0 3 80 219 119
320 20 51 37 31 86 -100z m345 102 c0 -24 -3 -25 -55 -25 l-55 0 0 -150 c0
-143 -1 -150 -20 -150 -19 0 -20 7 -20 149 l0 150 -52 3 c-46 3 -53 6 -56 26
-3 22 -3 22 127 22 l131 0 0 -25z m714 6 c38 -41 29 -134 -16 -165 -19 -14
-19 -16 16 -90 34 -75 34 -76 13 -76 -18 0 -30 15 -60 75 l-37 75 -55 0 -55 0
0 -75 c0 -68 -2 -75 -20 -75 -19 0 -20 7 -20 175 l0 175 108 0 c94 0 111 -3
126 -19z m-1934 -480 c59 -43 90 -117 90 -217 0 -138 -70 -234 -171 -234 -63
0 -107 31 -142 101 -32 63 -39 159 -18 237 14 49 63 109 106 129 37 16 101 9
135 -16z m1230 -103 c45 -31 57 -52 41 -72 -12 -14 -17 -13 -48 14 -60 53
-142 34 -173 -40 -20 -49 -8 -125 25 -160 51 -53 114 -49 162 8 21 25 24 26
39 10 15 -15 15 -18 -5 -47 -33 -46 -75 -64 -133 -59 -87 9 -138 78 -138 189
0 72 32 138 78 163 42 23 113 20 152 -6z m391 -5 c124 -105 67 -343 -83 -343
-96 0 -161 74 -162 184 -1 114 60 186 160 186 42 0 59 -5 85 -27z m-1181 -3
c29 -29 35 -68 19 -114 -18 -53 -46 -66 -141 -66 l-78 0 0 -75 c0 -73 -1 -75
-25 -75 l-25 0 0 175 0 175 115 0 c101 0 117 -2 135 -20z m330 -5 c0 -24 -3
-25 -55 -25 l-55 0 0 -150 c0 -143 -1 -150 -20 -150 -19 0 -20 7 -20 149 l0
150 -52 3 c-46 3 -53 6 -56 26 -3 22 -3 22 127 22 l131 0 0 -25z m120 -150 c0
-168 -1 -175 -20 -175 -19 0 -20 7 -20 175 0 168 1 175 20 175 19 0 20 -7 20
-175z"/>
<path d="M2179 1685 c-49 -27 -75 -124 -48 -178 35 -67 92 -91 152 -62 86 41
91 197 7 240 -36 19 -77 19 -111 0z"/>
<path d="M3519 1685 c-49 -27 -75 -124 -48 -178 35 -67 92 -91 152 -62 86 41
91 197 7 240 -36 19 -77 19 -111 0z"/>
<path d="M4452 1684 c-80 -56 -65 -215 23 -244 107 -35 192 85 139 196 -28 59
-112 84 -162 48z"/>
<path d="M1482 1597 c-12 -32 -22 -60 -22 -62 0 -3 21 -5 46 -5 51 0 51 0 15
85 l-18 40 -21 -58z"/>
<path d="M1770 1650 l0 -41 73 3 72 3 0 35 0 35 -72 3 -73 3 0 -41z"/>
<path d="M1770 1500 l0 -60 66 0 c84 0 104 11 104 55 0 52 -20 65 -101 65
l-69 0 0 -60z"/>
<path d="M2540 1645 l0 -45 80 0 c71 0 81 2 91 21 8 16 8 28 0 45 -10 22 -16
24 -91 24 l-80 0 0 -45z"/>
<path d="M2935 1613 c-33 -80 -33 -83 20 -83 41 0 46 2 40 18 -4 9 -14 36 -22
60 -8 23 -17 42 -19 42 -2 0 -11 -17 -19 -37z"/>
<path d="M3880 1645 l0 -45 80 0 c71 0 81 2 91 21 8 16 8 28 0 45 -10 22 -16
24 -91 24 l-80 0 0 -45z"/>
<path d="M1991 1185 c-92 -78 -76 -289 27 -332 43 -18 82 -10 114 25 35 37 45
59 53 114 10 67 -10 141 -50 183 -42 45 -97 49 -144 10z"/>
<path d="M3612 1094 c-52 -36 -70 -140 -33 -200 55 -90 187 -56 207 52 21 110
-92 206 -174 148z"/>
<path d="M2380 1055 l0 -46 88 3 87 3 0 40 0 40 -87 3 -88 3 0 -46z"/>
</g>
</svg>
