<?xml version="1.0" standalone="no"?>
<!DOCTYPE svg PUBLIC "-//W3C//DTD SVG 1.1//EN" "http://www.w3.org/Graphics/SVG/1.1/DTD/svg11.dtd" >
<svg xmlns="http://www.w3.org/2000/svg" xmlns:xlink="http://www.w3.org/1999/xlink" version="1.1">
<metadata>
Created by FontForge 20200314 at Sun Apr 15 23:16:46 2012
 By Unknown
</metadata>
<defs>
<font id="SolW01-BlackItalic" horiz-adv-x="638" >
  <font-face 
    font-family="SolW01-BlackItalic"
    font-weight="900"
    font-style="italic"
    font-stretch="normal"
    units-per-em="1000"
    panose-1="2 0 0 0 0 0 0 0 0 0"
    ascent="780"
    descent="-220"
    x-height="580"
    cap-height="780"
    bbox="-120 -255 1283.77 1056"
    underline-thickness="35"
    underline-position="-75"
    slope="-10"
    unicode-range="U+0002-2122"
  />
<missing-glyph horiz-adv-x="0" 
 />
    <glyph glyph-name=".notdef" horiz-adv-x="0" 
 />
    <glyph glyph-name="glyph1" horiz-adv-x="0" 
 />
    <glyph glyph-name="glyph2" horiz-adv-x="330" 
 />
    <glyph glyph-name="uni0002" horiz-adv-x="0" 
 />
    <glyph glyph-name="uni0009" unicode="&#x9;" horiz-adv-x="0" 
 />
    <glyph glyph-name="uni000A" unicode="&#xa;" horiz-adv-x="0" 
 />
    <glyph glyph-name="space" unicode=" " horiz-adv-x="330" 
 />
    <glyph glyph-name="exclam" unicode="!" horiz-adv-x="311" 
d="M228 46q-5 -26 -17.5 -36t-34.5 -10h-76q-26 0 -37 10.5t-6 35.5l13 75q5 25 20.5 35.5t38.5 10.5h76q20 0 30.5 -10t5.5 -36zM259 222h-171l98 558h171z" />
    <glyph glyph-name="quotedbl" unicode="&#x22;" horiz-adv-x="380" 
d="M413 530h-114l29 250h144zM227 530h-114l29 250h144z" />
    <glyph glyph-name="numbersign" unicode="#" horiz-adv-x="1167" 
d="M807 248h313l-27 -152h-313zM942 503q-3 -18 -3.5 -30.5t4 -20t15.5 -10.5t31 -3h13q19 0 31.5 3t20 10.5t11.5 20t7 31.5q4 21 4 34t-5 20.5t-16 10.5t-30 3h-13q-32 0 -46.5 -11t-19.5 -36zM1194 462q-14 -76 -64 -114t-130 -38h-50q-89 0 -120.5 42t-18.5 117l13 72
q7 37 24.5 67t43.5 50t58.5 31t68.5 11h50q73 0 112.5 -42t26.5 -117zM794 780l-118 -669q-21 -121 -122 -121q-12 0 -26 3.5t-30 15.5t-33 36t-36 65l-136 300l-72 -410h-171l119 679q10 53 41 81.5t69 28.5q25 0 49 -15t43 -58l171 -393l81 457h171z" />
    <glyph glyph-name="dollar" unicode="$" horiz-adv-x="529" 
d="M400 649h187l-26 -145h-245q-35 0 -49 -5.5t-19 -29.5q-4 -24 8.5 -28.5t46.5 -4.5h68q51 0 85 -6.5t52.5 -23t23.5 -46t-3 -74.5l-3 -19q-6 -34 -20.5 -64t-37 -52t-52 -34.5t-64.5 -12.5h-48l-18 -104h-114l18 104h-156l25 145h245q35 0 49.5 5.5t19.5 29.5q4 21 -6 27
t-39 6h-75q-52 0 -86.5 6t-54 22.5t-24 45.5t3.5 75l3 20q13 73 61 118t126 45h4l17 99h114z" />
    <glyph glyph-name="percent" unicode="%" horiz-adv-x="900" 
d="M231 577q-3 -18 -3.5 -30.5t4 -20t15.5 -10.5t31 -3h13q19 0 31.5 3t20 10.5t11.5 20t7 31.5q4 21 4 34t-5 20.5t-16 10.5t-30 3h-13q-32 0 -46.5 -11t-19.5 -36zM628 183q-3 -19 -4 -31t3.5 -19.5t15.5 -10.5t31 -3h12q19 0 31.5 3t20.5 10.5t12.5 20t7.5 31.5
q4 21 4 34t-5 20.5t-16.5 10t-30.5 2.5h-12q-32 0 -47 -10.5t-19 -35.5zM475 546q-14 -76 -64 -114t-130 -38h-30q-89 0 -121 42t-18 117l9 52q7 37 24.5 67t43.5 50t58.5 31t68.5 11h30q73 0 112.5 -42t26.5 -117zM871 151q-14 -75 -63.5 -113t-129.5 -38h-30
q-89 0 -121 42t-18 117l9 52q6 37 24 67t43.5 50t58.5 31t69 11h30q36 0 65 -11t47.5 -31.5t25.5 -50t1 -66.5zM264 0h-135l622 781h141z" />
    <glyph glyph-name="ampersand" unicode="&#x26;" horiz-adv-x="794" 
d="M192 612q14 79 67.5 123.5t129.5 44.5h134q73 0 112.5 -42t26.5 -117l-9 -51q-14 -77 -58 -123.5t-120 -77.5l91 -112q5 12 9 27t7 32q2 11 3.5 21.5t3.5 21.5h156l-2 -18q-1 -9 -3 -17q-11 -63 -31 -113.5t-41 -81.5l106 -129h-210l-20 24q-25 -16 -47 -20t-58 -4h-259
q-36 0 -65 9.5t-47.5 28.5t-26 47t-0.5 66l18 100q6 32 22.5 55t39.5 39.5t51.5 29t58.5 23.5q-22 25 -33 49t-14.5 49t-0.5 53t9 63zM283 286q-26 -10 -39.5 -23t-19.5 -47q-6 -32 1 -53.5t36 -21.5h128q16 0 30 1.5t25 6.5l-124 151zM409 626q-30 0 -44 -14.5t-20 -46.5
q-2 -14 -1.5 -23.5t5 -19.5t14 -21t24.5 -28l65 30q17 7 25 15.5t13 37.5q6 38 -1 54t-35 16h-45z" />
    <glyph glyph-name="quotesingle" unicode="'" horiz-adv-x="194" 
d="M227 530h-114l29 250h144z" />
    <glyph glyph-name="parenleft" unicode="(" horiz-adv-x="320" 
d="M400 830q-21 -18 -36.5 -43t-25 -53.5t-13.5 -52.5l-101 -569q-4 -24 -4 -51.5t7 -52t22 -41.5q14 -17 39 -22h-185q-26 0 -39.5 16.5t-18 41t-3 53.5t6.5 55l101 575q4 24 12 52t20.5 52.5t30.5 41.5t43 20h192q-27 -5 -48 -22z" />
    <glyph glyph-name="parenright" unicode=")" horiz-adv-x="320" 
d="M324 852q23 -3 35 -20t16 -41.5t1.5 -52.5t-6.5 -52l-101 -575q-5 -26 -13 -55t-21.5 -53.5t-32.5 -41t-45 -16.5h-184q26 5 46 22q21 17 36.5 41.5t25 52t13.5 51.5l101 569q4 24 4.5 52.5t-6.5 53.5t-22 43q-15 17 -40 22h193z" />
    <glyph glyph-name="asterisk" unicode="*" horiz-adv-x="417" 
d="M265 780h121l-76 -150l126 119l44 -104l-162 -35l150 -33l-79 -106l-86 118l23 -151h-121l75 151l-125 -119l-43 104l160 35l-149 33l78 105l86 -118z" />
    <glyph glyph-name="plus" unicode="+" horiz-adv-x="498" 
d="M349 292l-30 -171h-138l30 171h-170l24 137h170l30 170h138l-30 -170h170l-24 -137h-170z" />
    <glyph glyph-name="comma" unicode="," horiz-adv-x="211" 
d="M179 46q-2 -10 -5 -19t-8 -15l-91 -114h-91l79 102h-12q-26 0 -37 10.5t-6 35.5l13 75q5 25 20.5 35.5t38.5 10.5h76q20 0 30.5 -10t5.5 -36z" />
    <glyph glyph-name="hyphen" unicode="-" horiz-adv-x="333" 
d="M55 369h313l-29 -162h-313z" />
    <glyph glyph-name="hyphen" unicode="&#xad;" horiz-adv-x="333" 
d="M55 369h313l-29 -162h-313z" />
    <glyph glyph-name="period" unicode="." horiz-adv-x="211" 
d="M179 46q-5 -26 -17.5 -36t-34.5 -10h-76q-26 0 -37 10.5t-6 35.5l13 75q5 25 20.5 35.5t38.5 10.5h76q20 0 30.5 -10t5.5 -36z" />
    <glyph glyph-name="slash" unicode="/" horiz-adv-x="626" 
d="M115 0h-135l623 780h140z" />
    <glyph glyph-name="zero" unicode="0" horiz-adv-x="724" 
d="M251 230q-6 -34 5.5 -50.5t43.5 -16.5h148q53 0 65 67l57 321q10 66 -42 66h-148q-62 0 -72 -66zM670 151q-14 -75 -67 -113t-126 -38h-270q-36 0 -65 11t-47.5 31t-26 49.5t-0.5 67.5l81 462q7 37 24.5 67t43.5 50t58.5 31t68.5 11h270q73 0 112.5 -42t26.5 -117z" />
    <glyph glyph-name="one" unicode="1" horiz-adv-x="311" 
d="M221 0h-171l137 780h171z" />
    <glyph glyph-name="two" unicode="2" horiz-adv-x="663" 
d="M30 0l54 311q7 37 24.5 67t43.5 50t58.5 31t68.5 11h172q53 0 65 66l2 14q12 67 -41 67h-329l29 163h386q73 0 113 -38t27 -113l-29 -164q-6 -38 -24 -67.5t-43.5 -49.5t-58.5 -31t-69 -11h-172q-52 0 -64 -66l-14 -77h383l-28 -163h-554z" />
    <glyph glyph-name="three" unicode="3" horiz-adv-x="659" 
d="M387 163q33 0 48.5 17.5t23.5 59.5q8 49 -4.5 64.5t-50.5 15.5h-149l25 142h160q34 0 49.5 19t21.5 56q7 38 -2 59t-42 21h-339l29 163h397q73 0 112.5 -42t26.5 -117l-19 -109q-8 -45 -30.5 -75t-55.5 -47q35 -20 42 -55t-4 -95l-14 -81q-7 -38 -24.5 -67.5t-43.5 -49.5
t-58.5 -31t-68.5 -11h-397l28 163h339z" />
    <glyph glyph-name="four" unicode="4" horiz-adv-x="669" 
d="M579 0h-171l38 218h-327q-45 0 -68.5 25.5t-16.5 65.5q4 23 21 50l267 421h185l-255 -398h223l70 398h171z" />
    <glyph glyph-name="five" unicode="5" horiz-adv-x="664" 
d="M309 617l-23 -132h226q73 0 112.5 -42t26.5 -117l-31 -175q-14 -75 -67 -113t-126 -38h-386l28 163h329q53 0 65 67l4 25q12 66 -41 66h-340l81 459h554l-29 -163h-383z" />
    <glyph glyph-name="six" unicode="6" horiz-adv-x="715" 
d="M269 330l-19 -104q-5 -33 3.5 -48t44.5 -15h151q53 0 65 67l6 34q12 66 -41 66h-210zM298 494h267q36 0 65 -11t47.5 -31t25.5 -50t1 -67l-33 -184q-14 -75 -67 -113t-126 -38h-271q-36 0 -65 11t-47.5 31t-26 49.5t-0.5 67.5l81 462q7 37 24.5 67t43.5 50t58.5 31
t68.5 11h411l-29 -163h-354q-25 0 -41.5 -13t-21.5 -43z" />
    <glyph glyph-name="seven" unicode="7" horiz-adv-x="584" 
d="M117 780h481q103 0 88 -85q-5 -24 -18 -53t-36 -64l-375 -578h-188l398 617h-379z" />
    <glyph glyph-name="eight" unicode="8" horiz-adv-x="711" 
d="M367 617q-32 0 -48 -17.5t-23 -56.5q-8 -42 3 -59.5t35 -17.5h163q29 0 44.5 18t22.5 56t-3 57.5t-42 19.5h-152zM439 163q33 0 48.5 18t23.5 61q8 41 0 61.5t-39 20.5h-161q-32 0 -46.5 -21.5t-20.5 -58.5q-8 -42 1 -61.5t42 -19.5h152zM200 0q-36 0 -64 11t-46.5 31
t-26 49.5t-0.5 67.5l20 114q8 45 29.5 74.5t55.5 46.5q-28 17 -39.5 47t-3.5 75l19 105q7 37 24.5 67t43.5 50t58.5 31t68.5 11h268q36 0 64.5 -11t47 -31t26 -50t0.5 -67l-19 -105q-8 -45 -30 -75t-55 -47q27 -17 39 -46.5t4 -74.5l-20 -114q-7 -38 -24.5 -67.5
t-43.5 -49.5t-58.5 -31t-68.5 -11h-269z" />
    <glyph glyph-name="nine" unicode="9" horiz-adv-x="715" 
d="M543 450l18 104q6 33 -3 48t-45 15h-151q-53 0 -65 -67l-6 -34q-11 -66 42 -66h210zM514 286h-267q-36 0 -65 11t-47.5 31t-26 49.5t-0.5 67.5l32 184q14 75 67.5 113t126.5 38h271q73 0 112.5 -42t26.5 -117l-81 -462q-7 -38 -24.5 -67.5t-43.5 -49.5t-58.5 -31
t-68.5 -11h-407l28 163h350q25 0 41.5 13t21.5 43z" />
    <glyph glyph-name="colon" unicode=":" horiz-adv-x="231" 
d="M251 399q-5 -26 -17.5 -36t-34.5 -10h-76q-26 0 -37 10.5t-6 35.5l13 75q5 25 20.5 35.5t38.5 10.5h76q20 0 30.5 -10t5.5 -36zM189 46q-5 -26 -17.5 -36t-34.5 -10h-76q-26 0 -37 10.5t-6 35.5l13 75q5 25 20.5 35.5t38.5 10.5h76q20 0 30.5 -10t5.5 -36z" />
    <glyph glyph-name="semicolon" unicode=";" horiz-adv-x="231" 
d="M189 46q-2 -10 -5 -19t-8 -15l-91 -114h-91l79 102h-12q-26 0 -37 10.5t-6 35.5l13 75q5 25 20.5 35.5t38.5 10.5h76q20 0 30.5 -10t5.5 -36zM251 399q-5 -26 -17.5 -36t-34.5 -10h-76q-26 0 -37 10.5t-6 35.5l13 75q5 25 20.5 35.5t38.5 10.5h76q20 0 30.5 -10t5.5 -36z
" />
    <glyph glyph-name="less" unicode="&#x3c;" horiz-adv-x="473" 
d="M59 394l306 286h191l-305 -286l209 -294h-191z" />
    <glyph glyph-name="equal" unicode="=" horiz-adv-x="538" 
d="M83 415l24 137h478l-24 -137h-478zM44 196l24 137h478l-24 -137h-478z" />
    <glyph glyph-name="greater" unicode="&#x3e;" horiz-adv-x="473" 
d="M198 100h-191l313 294l-205 286h191l206 -286z" />
    <glyph glyph-name="question" unicode="?" horiz-adv-x="578" 
d="M267 46q-5 -26 -17.5 -36t-34.5 -10h-76q-26 0 -37 10.5t-6 35.5l13 75q5 25 20.5 35.5t38.5 10.5h76q20 0 30.5 -10t5.5 -36zM297 217h-171l16 94q7 37 24.5 67t43.5 50t58.5 31t68.5 11h29q53 0 65 66l2 14q12 67 -41 67h-309l29 163h366q73 0 113 -38t27 -113
l-29 -164q-6 -38 -24 -67.5t-43.5 -49.5t-58.5 -31t-69 -11h-29q-52 0 -64 -66z" />
    <glyph glyph-name="at" unicode="@" horiz-adv-x="1146" 
d="M466 182q-2 -11 1.5 -18.5t10.5 -12t17 -6.5t20 -2h187l14 80h-187q-20 0 -39.5 -9t-23.5 -32zM450 0q-36 0 -65.5 10t-49 29.5t-28 48.5t-1.5 67l11 64q7 38 25 66t44.5 46t59 27t68.5 9h227l1 6q6 35 -8 49t-40 14h-329l26 144h372q36 0 65.5 -9t49.5 -27t28.5 -46
t1.5 -66l-51 -289h20q26 0 45.5 14.5t25.5 48.5l65 367q6 35 -8.5 49t-40.5 14h-589q-32 0 -52 -14t-26 -49l-104 -587q-6 -34 9 -48.5t47 -14.5h511l-25 -143h-563q-36 0 -65.5 10t-49 30t-28 49.5t-1.5 67.5l122 692q7 38 25.5 66.5t45 47t59 28t68.5 9.5h684
q36 0 65.5 -8.5t49.5 -26.5t28.5 -45.5t1.5 -65.5l-85 -481q-14 -77 -64.5 -115t-122.5 -38h-455z" />
    <glyph glyph-name="A" unicode="A" horiz-adv-x="694" 
d="M420 532l-116 -234h150zM-20 0l340 683q30 60 69 83t79 23q20 0 38.5 -5.5t33.5 -17.5t26 -32.5t15 -50.5l93 -683h-179l-22 134h-246l-68 -134h-179z" />
    <glyph glyph-name="B" unicode="B" horiz-adv-x="727" 
d="M329 617l-24 -140h207q52 0 64 67l2 7q10 66 -42 66h-207zM276 313l-27 -150h207q53 0 65 67l2 12q6 33 -4 52t-36 19h-207zM678 151q-14 -75 -67 -113t-126 -38h-435l137 780h435q73 0 112.5 -42t26.5 -117l-25 -144q-4 -20 -11.5 -34t-17.5 -24.5t-20.5 -19
t-20.5 -15.5q7 -8 15 -16t14 -19t8.5 -25.5t-0.5 -33.5z" />
    <glyph glyph-name="C" unicode="C" horiz-adv-x="637" 
d="M372 617q-54 0 -64 -66l-57 -321q-12 -67 41 -67h313l-28 -163h-370q-36 0 -65.5 9.5t-48.5 28.5t-26.5 47t-0.5 66l83 470q7 37 24.5 67t43.5 50t58.5 31t68.5 11h370l-29 -163h-313z" />
    <glyph glyph-name="D" unicode="D" horiz-adv-x="740" 
d="M329 617l-80 -454h215q53 0 65 67l57 321q10 66 -42 66h-215zM187 780h443q73 0 112.5 -42t26.5 -117l-83 -470q-14 -75 -67 -113t-126 -38h-443z" />
    <glyph glyph-name="E" unicode="E" 
d="M265 309l-14 -79q-12 -67 41 -67h309l-28 -163h-366q-36 0 -65.5 9.5t-48.5 28.5t-26.5 47t-0.5 66l83 470q7 37 24.5 67t43.5 50t58.5 31t68.5 11h366l-29 -163h-309q-54 0 -64 -66l-14 -79h352l-29 -163h-352z" />
    <glyph glyph-name="F" unicode="F" horiz-adv-x="633" 
d="M265 309l-54 -309h-171l109 621q7 37 24.5 67t43.5 50t58.5 31t68.5 11h366l-29 -163h-309q-54 0 -64 -66l-14 -79h352l-29 -163h-352z" />
    <glyph glyph-name="G" unicode="G" horiz-adv-x="714" 
d="M665 151q-14 -75 -67 -113t-126 -38h-265q-37 0 -66 9.5t-48 28t-26.5 47t-0.5 66.5l83 470q7 37 24.5 67t43.5 50t58.5 31t68.5 11h388l-29 -163h-331q-54 0 -64 -66l-57 -321q-12 -67 39 -67h152q53 0 65 67l33 187h172z" />
    <glyph glyph-name="H" unicode="H" horiz-adv-x="741" 
d="M651 0h-171l53 304h-259l-53 -304h-171l137 780h171l-56 -316h259l56 316h171z" />
    <glyph glyph-name="I" unicode="I" horiz-adv-x="311" 
d="M221 0h-171l137 780h171z" />
    <glyph glyph-name="J" unicode="J" horiz-adv-x="388" 
d="M-20 0l28 163h99q53 0 65 67l97 550h171l-111 -629q-14 -75 -67 -113t-126 -38h-156z" />
    <glyph glyph-name="K" unicode="K" horiz-adv-x="698" 
d="M291 402l330 378h194l-342 -391l204 -389h-194l-196 375l-66 -375h-171l137 780h171z" />
    <glyph glyph-name="L" unicode="L" horiz-adv-x="601" 
d="M212 0q-36 0 -65.5 9.5t-48.5 28.5t-26.5 47t-0.5 66l111 629h171l-97 -550q-12 -67 41 -67h312l-28 -163h-369z" />
    <glyph glyph-name="M" unicode="M" horiz-adv-x="988" 
d="M747 688q31 56 74.5 78.5t85.5 22.5q25 0 47 -7t37.5 -21t23 -35t2.5 -48l-119 -678h-171l83 475l-216 -394q-16 -29 -31 -47t-29.5 -27.5t-30 -13t-31.5 -3.5q-17 0 -31 3.5t-25 13t-19.5 27.5t-14.5 47l-78 394l-83 -475h-171l119 678q5 28 19.5 48.5t35 34.5t45 21
t50.5 7q21 0 40.5 -5t36 -16.5t29 -30t17.5 -46.5l81 -413z" />
    <glyph glyph-name="N" unicode="N" horiz-adv-x="747" 
d="M794 780l-118 -669q-21 -121 -122 -121q-12 0 -26 3.5t-30 15.5t-33 36t-36 65l-136 300l-72 -410h-171l119 679q10 53 41 81.5t69 28.5q25 0 49 -15t43 -58l171 -393l81 457h171z" />
    <glyph glyph-name="O" unicode="O" horiz-adv-x="724" 
d="M251 230q-6 -34 5.5 -50.5t43.5 -16.5h148q53 0 65 67l57 321q10 66 -42 66h-148q-62 0 -72 -66zM670 151q-14 -75 -67 -113t-126 -38h-270q-36 0 -65 11t-47.5 31t-26 49.5t-0.5 67.5l81 462q7 37 24.5 67t43.5 50t58.5 31t68.5 11h270q73 0 112.5 -42t26.5 -117z" />
    <glyph glyph-name="P" unicode="P" horiz-adv-x="713" 
d="M329 617l-37 -210h207q54 0 66 67l14 77q10 66 -43 66h-207zM733 458q-1 -7 -3.5 -18.5t-5 -24t-5 -23.5t-3.5 -17q-9 -33 -26.5 -57.5t-42 -41t-55 -24.5t-63.5 -8h-265l-43 -244h-171l137 780h436q73 0 112.5 -42t26.5 -117z" />
    <glyph glyph-name="Q" unicode="Q" horiz-adv-x="728" 
d="M255 255q-4 -23 -5 -40t3.5 -28.5t15.5 -17.5t31 -6h148q33 0 47 23t22 69l48 270q8 47 2 69.5t-39 22.5h-148q-62 0 -72 -66zM670 151q-10 -57 -43 -92.5t-84 -49.5l87 -111h-203l-92 102h-128q-36 0 -65 11t-47.5 31t-26 49.5t-0.5 67.5l81 462q7 37 24.5 67t43.5 50
t58.5 31t68.5 11h270q36 0 65 -11t47.5 -31.5t25.5 -50t1 -66.5z" />
    <glyph glyph-name="R" unicode="R" horiz-adv-x="741" 
d="M295 420q14 12 32.5 18t37.5 6h146q53 0 64 66l8 41q10 66 -42 66h-212zM289 301q-8 10 -12 21l-56 -322h-171l137 780h440q73 0 112.5 -42t26.5 -117l-28 -160q-8 -44 -21.5 -77.5t-39 -56.5t-67 -35t-105.5 -12h-5l184 -280h-205z" />
    <glyph glyph-name="S" unicode="S" horiz-adv-x="658" 
d="M505 477q36 0 65 -11t47.5 -31t25.5 -50t1 -67l-30 -167q-14 -75 -67 -113t-126 -38h-381l28 163h324q53 0 65 67l3 17q12 66 -41 66h-167q-36 0 -65 11t-47.5 31t-26 49.5t-0.5 67.5l27 157q14 75 67.5 113t126.5 38h381l-29 -163h-324q-53 0 -65 -67l-1 -7
q-12 -66 42 -66h167z" />
    <glyph glyph-name="T" unicode="T" horiz-adv-x="550" 
d="M451 617l-108 -617h-171l108 617h-192l29 163h550l-29 -163h-187z" />
    <glyph glyph-name="U" unicode="U" horiz-adv-x="737" 
d="M254 221q-5 -26 6.5 -42t45.5 -16h141q35 0 51 16t21 42l99 559h171l-107 -609q-6 -36 -20.5 -67t-36.5 -54t-52.5 -36.5t-68.5 -13.5h-304q-38 0 -65 13.5t-42.5 36.5t-19.5 54t2 67l107 609h171z" />
    <glyph glyph-name="V" unicode="V" horiz-adv-x="705" 
d="M471 75q-23 -46 -57 -65.5t-81 -19.5q-101 0 -113 85l-103 705h179l77 -547l270 547h179z" />
    <glyph glyph-name="W" unicode="W" horiz-adv-x="962" 
d="M537 441l-141 -362q-10 -26 -25.5 -43t-34 -27t-39 -14.5t-40.5 -4.5q-22 0 -42.5 5t-37 16t-27 27.5t-10.5 40.5l-13 701h174l10 -505l163 432q18 48 52.5 65t73.5 17q20 0 37.5 -4t30 -13.5t20 -25t8.5 -39.5l10 -432l188 505h175l-261 -701q-16 -45 -57.5 -67
t-89.5 -22q-20 0 -39.5 4.5t-34.5 14.5t-25 27t-11 43z" />
    <glyph glyph-name="X" unicode="X" horiz-adv-x="680" 
d="M180 0h-200l308 390l-171 390h200l100 -228l179 228h200l-308 -390l172 -390h-200l-100 227z" />
    <glyph glyph-name="Y" unicode="Y" horiz-adv-x="692" 
d="M240 0l53 304l-176 476h188l105 -294l210 294h189l-345 -477l-53 -303h-171z" />
    <glyph glyph-name="Z" unicode="Z" horiz-adv-x="653" 
d="M482 617h-344l29 163h482q59 0 80.5 -25.5t15.5 -60.5q-5 -23 -19.5 -47.5t-35.5 -46.5l-424 -437h343l-28 -163h-480q-59 0 -81 25.5t-15 61.5q4 21 16.5 44.5t37.5 48.5z" />
    <glyph glyph-name="bracketleft" unicode="[" horiz-adv-x="286" 
d="M5 -140l162 920h221l-20 -114h-67l-122 -692h67l-20 -114h-221z" />
    <glyph glyph-name="backslash" unicode="\" horiz-adv-x="626" 
d="M117 780h140l349 -780h-135z" />
    <glyph glyph-name="bracketright" unicode="]" horiz-adv-x="286" 
d="M-29 -140l19 114h67l122 692h-67l20 114h221l-162 -920h-220z" />
    <glyph glyph-name="asciicircum" unicode="^" horiz-adv-x="643" 
d="M321 437q-26 0 -45.5 -14.5t-25.5 -48.5l-3 -17h187q20 0 39.5 9t24.5 32q4 23 -12.5 31t-36.5 8h-128zM514 580q36 0 65 -10t48.5 -29.5t28 -48.5t1.5 -67l-11 -64q-7 -38 -25 -66t-44.5 -46t-59 -27t-68.5 -9h-227l-1 -6q-6 -35 8 -49t40 -14h329l-25 -144h-372
q-36 0 -65.5 9t-49.5 27t-28.5 46t-1.5 66l48 277q7 38 25.5 67t45 48.5t59.5 29.5t69 10h211z" />
    <glyph glyph-name="underscore" unicode="_" horiz-adv-x="460" 
d="M-32 -69l23 137h460l-24 -137h-459z" />
    <glyph glyph-name="grave" unicode="`" horiz-adv-x="279" 
d="M129 733l100 97l127 -162l-68 -59z" />
    <glyph glyph-name="a" unicode="a" horiz-adv-x="643" 
d="M384 143q26 0 45 14.5t25 48.5l3 17h-187q-20 0 -39.5 -9t-23.5 -32q-2 -11 1.5 -18.5t10.5 -12t17 -6.5t20 -2h128zM191 0q-36 0 -65.5 10t-49 29.5t-28 48.5t-1.5 67l11 64q7 38 25 66t44.5 46t59 27t68.5 9h227l1 6q6 35 -8 49t-40 14h-329l26 144h372q36 0 65.5 -9
t49.5 -27t28.5 -46t1.5 -66l-49 -277q-7 -38 -25.5 -67t-45 -48.5t-59 -29.5t-68.5 -10h-211z" />
    <glyph glyph-name="b" unicode="b" horiz-adv-x="656" 
d="M226 206q-6 -34 9 -48.5t47 -14.5h114q26 0 45.5 14.5t25.5 48.5l29 167q4 23 -1 36t-15.5 19t-25 7t-28.5 1h-160zM517 580q36 0 65.5 -9t49.5 -27t28.5 -46t1.5 -66l-49 -277q-7 -38 -25.5 -67t-45 -48.5t-59 -29.5t-68.5 -10h-209q-36 0 -65.5 10t-49 29.5t-28 48.5
t-1.5 67l110 625h155l-35 -200h225z" />
    <glyph glyph-name="c" unicode="c" horiz-adv-x="539" 
d="M201 0q-36 0 -65.5 10t-49 29.5t-28 48.5t-1.5 67l49 277q7 38 25 66t44.5 46t59 27t68.5 9h288l-26 -144h-245q-26 0 -45 -14t-25 -49l-29 -167q-6 -34 8 -48.5t40 -14.5h245l-25 -143h-288z" />
    <glyph glyph-name="d" unicode="d" horiz-adv-x="656" 
d="M502 436h-163q-15 0 -29 -1.5t-26 -7.5t-21 -19t-13 -35l-29 -167q-4 -22 0.5 -34.5t14.5 -19t23.5 -8t28.5 -1.5h96q31 0 51.5 14.5t26.5 48.5zM528 580l35 200h155l-110 -625q-7 -38 -25.5 -67t-45 -48.5t-59 -29.5t-68.5 -10h-209q-36 0 -65.5 10t-49 29.5t-28 48.5
t-1.5 67l49 277q7 38 25 66t44.5 46t59 27t68.5 9h225z" />
    <glyph glyph-name="e" unicode="e" 
d="M239 315l254 85q3 17 -3 26.5t-40 9.5h-116q-25 0 -40.5 -5.5t-24.5 -15.5t-13.5 -23.5t-7.5 -28.5zM563 0h-364q-36 0 -65 10t-48.5 30.5t-27 50t-0.5 68.5l48 273q7 38 25 66t44.5 46t59 27t68.5 9h211q36 0 64.5 -9.5t47.5 -28.5t26.5 -47.5t0.5 -66.5l-21 -120
l-415 -137q-4 -21 18 -24.5t59 -3.5h294z" />
    <glyph glyph-name="f" unicode="f" horiz-adv-x="328" 
d="M405 580l-25 -143h-113l-77 -437h-155l111 635q7 36 25 63.5t44 45.5t57.5 27t64.5 9h113l-25 -144h-56q-38 0 -54 -13t-23 -43h113z" />
    <glyph glyph-name="g" unicode="g" horiz-adv-x="653" 
d="M318 437q-19 0 -40.5 -14.5t-27.5 -48.5l-33 -189q-4 -23 12.5 -32t36.5 -9h187l40 230q6 34 -7.5 48.5t-39.5 14.5h-128zM514 580q36 0 65.5 -9t49 -27.5t28 -46.5t1.5 -66l-88 -503q-7 -38 -25 -66t-44.5 -46t-59 -27t-68.5 -9h-372l25 144h329q26 0 45 14t25 49l3 13
h-227q-36 0 -65.5 9.5t-49.5 28.5t-28.5 48t-1.5 67l48 272q7 38 25.5 67t45 48.5t59.5 29.5t69 10h211z" />
    <glyph glyph-name="h" unicode="h" horiz-adv-x="664" 
d="M271 436l-76 -436h-155l137 780h155l-35 -200h223q36 0 65 -10t48.5 -29.5t28 -48.5t1.5 -67l-74 -425h-155l65 373q6 35 -8 49t-40 14h-180z" />
    <glyph glyph-name="i" unicode="i" horiz-adv-x="275" 
d="M153 694q3 18 12.5 33.5t23.5 27t30.5 18.5t34.5 7q35 0 56 -25.5t15 -60.5q-3 -18 -12.5 -33.5t-23.5 -27t-30.5 -18.5t-34.5 -7q-35 0 -56 25.5t-15 60.5zM195 0h-155l102 580h155z" />
    <glyph glyph-name="j" unicode="j" horiz-adv-x="275" 
d="M153 694q3 18 12.5 33.5t23.5 27t30.5 18.5t34.5 7q35 0 56 -25.5t15 -60.5q-3 -18 -12.5 -33.5t-23.5 -27t-30.5 -18.5t-34.5 -7q-35 0 -56 25.5t-15 60.5zM142 580h155l-114 -645q-7 -38 -25.5 -67t-45 -48.5t-59 -29.5t-68.5 -10h-105l25 144h55q31 0 51 14t26 49z
" />
    <glyph glyph-name="k" unicode="k" horiz-adv-x="611" 
d="M249 310l254 270h185l-273 -290l181 -290h-189l-166 264l-46 -264h-155l137 780h155z" />
    <glyph glyph-name="l" unicode="l" horiz-adv-x="275" 
d="M195 0h-155l137 780h155z" />
    <glyph glyph-name="m" unicode="m" horiz-adv-x="871" 
d="M494 0h-156l65 373q6 35 -8.5 49t-39.5 14h-32q-32 0 -52 -14t-26 -49l-65 -373h-155l76 432q7 38 25 66t44.5 46t59 27t68.5 9h106q25 0 43.5 -6t30.5 -15.5t19 -21t9 -21.5q6 10 18 21.5t28 21t36 15.5t43 6h106q36 0 65.5 -9t49 -27.5t28 -46.5t1.5 -66l-75 -431h-155
l65 373q6 35 -8 49t-40 14h-33q-31 0 -50.5 -14t-25.5 -48z" />
    <glyph glyph-name="n" unicode="n" horiz-adv-x="640" 
d="M485 373q6 35 -9 49t-47 14h-114q-26 0 -45 -14t-25 -49l-65 -373h-155l76 433q7 38 25 66t44.5 46t59 26.5t68.5 8.5h208q36 0 65.5 -9t49 -27.5t28 -46.5t1.5 -66l-75 -431h-155z" />
    <glyph glyph-name="o" unicode="o" horiz-adv-x="651" 
d="M222 206q-6 -34 9 -48.5t47 -14.5h114q26 0 45.5 14.5t25.5 48.5l29 167q6 35 -8.5 49t-40.5 14h-114q-32 0 -52 -14t-26 -49zM607 153q-7 -38 -25 -67t-44.5 -48t-59 -28.5t-68.5 -9.5h-209q-36 0 -65.5 10t-49 30t-28 49.5t-1.5 67.5l48 272q7 38 25.5 66.5t45 47
t59 28t68.5 9.5h209q36 0 65.5 -8.5t49.5 -26.5t28.5 -45.5t1.5 -65.5z" />
    <glyph glyph-name="p" unicode="p" horiz-adv-x="656" 
d="M215 144h160q14 0 28.5 1t27.5 7t22.5 19t13.5 36l29 167q6 34 -8 48.5t-40 14.5h-114q-32 0 -52.5 -14.5t-26.5 -48.5zM190 0l-39 -220h-155l113 645q7 38 25.5 67t45 48.5t59.5 29.5t69 10h209q36 0 65 -10t48.5 -29.5t28 -48.5t1.5 -67l-48 -277q-7 -38 -25 -66
t-44.5 -46t-59 -27t-68.5 -9h-225z" />
    <glyph glyph-name="q" unicode="q" horiz-adv-x="656" 
d="M491 374q6 34 -8.5 48.5t-46.5 14.5h-114q-26 0 -46 -14.5t-26 -48.5l-29 -167q-4 -23 1 -36t15.5 -19t25 -7t28.5 -1h160zM201 0q-36 0 -65.5 9t-49.5 27t-28.5 46t-1.5 66l48 277q7 38 25.5 67t45 48.5t59.5 29.5t69 10h209q36 0 65 -10t48.5 -29.5t28 -48.5t1.5 -67
l-113 -645h-155l39 220h-225z" />
    <glyph glyph-name="r" unicode="r" horiz-adv-x="338" 
d="M190 0h-155l74 425q7 38 25.5 67t45 48.5t59.5 29.5t69 10h112l-26 -144h-61q-32 0 -52 -14t-26 -49z" />
    <glyph glyph-name="s" unicode="s" horiz-adv-x="550" 
d="M15 0l25 143h274q20 0 39 8.5t23 29.5q2 11 -1.5 18.5t-10.5 12t-17 6.5t-20 2h-108q-36 0 -65 10t-48.5 29.5t-28 48.5t-1.5 67l10 57q7 38 25 66t44.5 46t59 27t68.5 9h309l-26 -144h-269q-20 0 -39 -8t-23 -29q-4 -20 13 -28t37 -8h108q36 0 65.5 -8.5t49.5 -26.5
t28.5 -46t1.5 -66l-11 -61q-7 -38 -25.5 -67t-45 -48.5t-59 -29.5t-68.5 -10h-314z" />
    <glyph glyph-name="t" unicode="t" horiz-adv-x="345" 
d="M332 780l-35 -200h130l-25 -143h-130l-77 -437h-155l137 780h155z" />
    <glyph glyph-name="u" unicode="u" horiz-adv-x="660" 
d="M226 206q-6 -34 9 -48.5t47 -14.5h114q26 0 45 14.5t25 48.5l66 374h155l-75 -425q-7 -38 -25.5 -67t-45 -48.5t-59 -29.5t-68.5 -10h-208q-36 0 -65.5 10t-49 29.5t-28 48.5t-1.5 67l75 425h155z" />
    <glyph glyph-name="v" unicode="v" horiz-adv-x="615" 
d="M410 68q-23 -42 -52.5 -60.5t-71.5 -18.5t-67.5 19t-33.5 61l-103 511h165l79 -361l206 361h165z" />
    <glyph glyph-name="w" unicode="w" horiz-adv-x="818" 
d="M593 256l139 324h158l-216 -516q-18 -42 -50.5 -58t-64.5 -16q-35 0 -60 18t-28 57l-21 281l-121 -281q-17 -39 -48 -57t-66 -18q-16 0 -31 3.5t-27.5 12.5t-21 23t-9.5 35l-34 516h158l25 -324l111 263q17 41 46 56.5t61 15.5t55.5 -15.5t25.5 -56.5z" />
    <glyph glyph-name="x" unicode="x" horiz-adv-x="577" 
d="M412 292l145 -292h-184l-78 149l-131 -149h-184l248 291l-144 289h185l76 -146l128 146h185z" />
    <glyph glyph-name="y" unicode="y" horiz-adv-x="668" 
d="M458 144l77 436h155l-115 -652q-7 -38 -25 -66t-44.5 -46t-59 -27t-68.5 -9h-372l25 144h329q26 0 45 14t25 49l3 13h-227q-36 0 -65.5 9t-49.5 27t-28.5 46t-1.5 66l76 432h155l-70 -395q-4 -23 12.5 -32t36.5 -9h187z" />
    <glyph glyph-name="z" unicode="z" horiz-adv-x="529" 
d="M342 436h-263l26 144h442q38 0 49 -12t7 -30q-4 -23 -23.5 -49.5t-42.5 -50.5l-290 -294h263l-25 -144h-422q-45 0 -62 12.5t-13 33.5q3 20 21 45t44 51z" />
    <glyph glyph-name="braceleft" unicode="{" horiz-adv-x="329" 
d="M215 91q-11 -59 4 -90.5t77 -31.5h7l-19 -109h-109q-77 0 -111 42t-22 114l30 170q8 46 1 75.5t-40 40.5l7 40q37 10 54.5 39.5t25.5 77.5l30 165q12 72 61 114t126 42h109l-19 -109h-7q-62 0 -88.5 -31.5t-36.5 -90.5l-16 -90q-8 -48 -28 -83t-55 -54q29 -19 36 -53.5
t-1 -82.5z" />
    <glyph glyph-name="bar" unicode="|" horiz-adv-x="990" 
d="M872 780h170l-107 -609q-6 -36 -21.5 -67t-39 -54t-55 -36.5t-69.5 -13.5h-189q-14 0 -27 5.5t-24 14t-18.5 18.5t-10.5 18q-6 -8 -16.5 -18t-24 -18.5t-28.5 -14t-30 -5.5h-189q-38 0 -63.5 13.5t-40 36.5t-17.5 54t3 67l107 609h171l-99 -559q-5 -26 6 -42t45 -16h58
q33 0 46.5 15.5t18.5 40.5l99 561h171l-99 -559q-5 -26 6.5 -42t45.5 -16h50q34 0 50.5 16t21.5 42z" />
    <glyph glyph-name="braceright" unicode="}" horiz-adv-x="329" 
d="M122 186q8 48 28 82.5t55 53.5q-28 19 -35.5 54t0.5 83l16 90q5 30 5 52.5t-9 38t-27.5 23.5t-49.5 8h-7l19 109h109q77 0 111 -42t22 -114l-30 -165q-8 -48 -1 -77.5t41 -39.5l-7 -40q-38 -11 -55.5 -40.5t-25.5 -75.5l-30 -170q-12 -72 -61 -114t-126 -42h-108l19 109
h6q31 0 52.5 8t36 23.5t23 38t13.5 52.5z" />
    <glyph glyph-name="asciitilde" unicode="~" horiz-adv-x="990" 
d="M215 0h-170l107 609q6 36 21.5 67t39 54t55 36.5t69.5 13.5h189q13 0 26.5 -5.5t24 -14t18 -18.5t10.5 -18q6 8 16.5 18t24.5 18.5t29 14t30 5.5h189q38 0 63.5 -13.5t40 -36.5t17.5 -54t-3 -67l-107 -609h-171l98 559q5 26 -6 42t-45 16h-58q-33 0 -46.5 -15.5
t-18.5 -40.5l-98 -561h-171l98 559q5 26 -6.5 42t-45.5 16h-50q-34 0 -50.5 -16t-21.5 -42z" />
    <glyph glyph-name="uni00A0" unicode="&#xa0;" horiz-adv-x="330" 
 />
    <glyph glyph-name="exclamdown" unicode="&#xa1;" horiz-adv-x="311" 
d="M143 534q5 26 17.5 36t34.5 10h76q26 0 36.5 -10.5t6.5 -35.5l-14 -75q-4 -25 -20 -35.5t-39 -10.5h-76q-20 0 -30.5 10t-5.5 36zM112 358h171l-99 -558h-171z" />
    <glyph glyph-name="cent" unicode="&#xa2;" horiz-adv-x="390" 
d="M376 673h92l-23 -131h-115q-46 0 -66.5 -20.5t-26.5 -53.5t8.5 -48.5t60.5 -15.5h115l-24 -132h-92l-17 -101h-119l18 103q-61 5 -87.5 45.5t-14.5 110.5l20 110q11 62 52.5 93.5t99.5 37.5l19 108h119z" />
    <glyph glyph-name="sterling" unicode="&#xa3;" horiz-adv-x="728" 
d="M704 151q-14 -75 -67 -113t-126 -38h-521l25 143q46 0 75 17t37 61l15 82h-99l27 151h99l30 175q14 76 67 113.5t127 37.5h159q73 0 113 -38t27 -113l-18 -102h-172l4 23q12 67 -41 67h-46q-51 0 -63 -67l-16 -96h187l-27 -151h-187q-6 -31 -12 -52.5t-13 -38.5
t-17 -31.5t-25 -29.5h233q53 0 65 67l5 26h172z" />
    <glyph glyph-name="currency" unicode="&#xa4;" horiz-adv-x="637" 
d="M252 236l-1 -6q-12 -67 41 -67h313l-28 -163h-370q-36 0 -65.5 9.5t-48.5 28.5t-26.5 47t-0.5 66l15 85h-60l23 127h60l9 53h-40l22 127h40l14 78q7 37 24.5 67t43.5 50t58.5 31t68.5 11h370l-29 -163h-313q-54 0 -64 -66l-2 -8h331l-22 -127h-331l-9 -53h311l-23 -127
h-311z" />
    <glyph glyph-name="yen" unicode="&#xa5;" horiz-adv-x="692" 
d="M80 473h150l-113 307h188l105 -294l210 294h189l-222 -307h151l-26 -147h-232l-16 -23l-10 -57h244l-26 -147h-244l-17 -99h-171l17 99h-243l26 147h243l10 58l-8 22h-231z" />
    <glyph glyph-name="brokenbar" unicode="&#xa6;" horiz-adv-x="871" 
d="M530 206q-6 -34 8.5 -48t45.5 -14h33q26 0 45 14t25 49l66 373h155l-76 -431q-7 -38 -25 -66t-44.5 -46.5t-59 -27.5t-68.5 -9h-106q-23 0 -41 6t-30.5 15.5t-20 21t-10.5 21.5q-6 -10 -17 -21.5t-26.5 -21t-36 -15.5t-45.5 -6h-106q-36 0 -65.5 9t-49.5 27t-28.5 46
t-1.5 66l76 432h155l-66 -373q-6 -35 9 -49t47 -14h32q25 0 44.5 14t25.5 49l66 373h156z" />
    <glyph glyph-name="section" unicode="&#xa7;" horiz-adv-x="560" 
d="M277 322q-20 0 -39 -8.5t-23 -29.5q-2 -11 1.5 -18.5t10.5 -12t17 -6.5t20 -2h84q19 0 36 9t20 29q2 11 -1.5 18.5t-10.5 12t-17 6.5t-20 2h-78zM555 257q-6 -33 -21 -59t-37 -46q4 -26 -2 -62l-10 -57q-7 -38 -25 -66t-44.5 -46t-59 -27t-68.5 -9h-199l26 144h159
q20 0 39 8t23 29q4 19 -10.5 26.5t-33.5 9.5h-94q-36 0 -65.5 8.5t-49.5 26.5t-28.5 46t-1.5 66l11 61q10 53 43 91q-5 16 -6.5 35t3.5 41l10 57q7 38 25 66t44.5 46t59 27t68.5 9h219l-26 -144h-179q-20 0 -39 -8t-23 -29q-4 -19 10 -27.5t33 -8.5h114q36 0 65.5 -8.5
t50 -26.5t29 -46t1.5 -66z" />
    <glyph glyph-name="dieresis" unicode="&#xa8;" horiz-adv-x="424" 
d="M338 716q3 18 12.5 33.5t23.5 27t30.5 18.5t34.5 7q35 0 56 -25.5t15 -60.5q-3 -18 -13 -33.5t-23.5 -27t-30 -18.5t-34.5 -7t-32.5 7t-24 18.5t-13.5 27t-1 33.5zM126 716q3 18 12.5 33.5t23.5 27t30.5 18.5t34.5 7q35 0 56 -25.5t15 -60.5q-3 -18 -13 -33.5t-23.5 -27
t-30 -18.5t-34.5 -7t-32.5 7t-24 18.5t-13.5 27t-1 33.5z" />
    <glyph glyph-name="copyright" unicode="&#xa9;" horiz-adv-x="856" 
d="M432 170q-36 0 -64.5 9t-47.5 27.5t-26.5 47t-0.5 66.5l25 145q7 38 24.5 65.5t43 45t57 26t67.5 8.5h156l-24 -137h-96q-37 0 -62.5 -17t-33.5 -61l-2 -10q-4 -22 -0.5 -37t13 -24t24 -13t32.5 -4h96l-25 -137h-156zM210 205q-8 -44 12 -61t61 -17h298q37 0 62.5 17
t33.5 61l65 370q8 44 -11.5 61t-56.5 17h-298q-41 0 -67 -17t-34 -61zM801 145q-7 -38 -24 -65.5t-42.5 -45t-57 -26t-67.5 -8.5h-404q-36 0 -64.5 9t-47.5 27.5t-27 47t-1 66.5l85 480q14 77 67 113.5t125 36.5h404q36 0 64.5 -9t47.5 -27.5t27 -47t1 -66.5z" />
    <glyph glyph-name="ordfeminine" unicode="&#xaa;" horiz-adv-x="737" 
d="M293 437h265l21 122q5 26 -6 42t-46 16h-141q-34 0 -50.5 -16t-21.5 -42zM481 0l48 277h-265l-48 -277h-171l107 609q6 36 21.5 67t39 54t55 36.5t69.5 13.5h304q38 0 63.5 -13.5t40 -36.5t17.5 -54t-3 -67l-107 -609h-171z" />
    <glyph glyph-name="guillemotleft" unicode="&#xab;" horiz-adv-x="528" 
d="M561 415l-120 -123l72 -116l-113 -77l-117 193l186 194zM329 415l-120 -123l72 -116l-113 -77l-117 193l186 194z" />
    <glyph glyph-name="logicalnot" unicode="&#xac;" horiz-adv-x="606" 
d="M50 0l137 780h171l-109 -617h365l-28 -163h-536z" />
    <glyph glyph-name="registered" unicode="&#xae;" horiz-adv-x="526" 
d="M337 649l-7 -38h26q13 0 17 2.5t6 15.5q3 15 -0.5 17.5t-15.5 2.5h-26zM324 547h-5l-13 -73h-74l42 239h124q35 0 50 -12.5t8 -53.5l-6 -33q-6 -32 -18 -46.5t-32 -18.5l24 -75h-76zM375 754q-33 0 -64.5 -12.5t-57.5 -34.5t-44 -51.5t-24 -63.5t1.5 -63.5t26 -51.5
t45.5 -35t60 -13t64.5 13t58 35t44.5 51.5t24 62.5t-2 62.5t-26 52t-45.5 35.5t-60.5 13zM389 825q48 0 87 -18.5t65 -50.5t36.5 -74.5t2.5 -90.5q-9 -48 -34.5 -90t-63 -74t-83 -50.5t-93.5 -18.5t-87 18.5t-65.5 50.5t-37.5 74.5t-2 90.5t35 90.5t63.5 74t83 50t93.5 18.5
z" />
    <glyph glyph-name="macron" unicode="&#xaf;" horiz-adv-x="339" 
d="M113 645l22 123h299l-22 -123h-299z" />
    <glyph glyph-name="macron" unicode="&#x2c9;" horiz-adv-x="339" 
d="M113 645l22 123h299l-22 -123h-299z" />
    <glyph glyph-name="degree" unicode="&#xb0;" horiz-adv-x="434" 
d="M231 577q-3 -18 -3.5 -30.5t4 -20t15.5 -10.5t31 -3h13q19 0 31.5 3t20 10.5t11.5 20t7 31.5q4 21 4 34t-5 20.5t-16 10.5t-30 3h-13q-32 0 -46.5 -11t-19.5 -36zM475 546q-14 -76 -64 -114t-130 -38h-30q-89 0 -121 42t-18 117l9 52q7 37 24.5 67t43.5 50t58.5 31
t68.5 11h30q73 0 112.5 -42t26.5 -117z" />
    <glyph glyph-name="plusminus" unicode="&#xb1;" horiz-adv-x="705" 
d="M685 0h-179l-78 547l-269 -547h-179l351 705q42 85 143 85q47 0 74.5 -19.5t33.5 -65.5z" />
    <glyph glyph-name="uni00B2" unicode="&#xb2;" horiz-adv-x="714" 
d="M499 450q53 0 64 66l6 34q12 67 -41 67h-150q-36 0 -50 -15t-20 -48l-18 -104h209zM249 219q-5 -30 6.5 -43t36.5 -13h353l-28 -163h-410q-36 0 -65 11t-47.5 31t-26 49.5t-0.5 67.5l81 462q7 37 24.5 67t43.5 50t58.5 31t68.5 11h270q73 0 113 -38t27 -113l-32 -184
q-7 -38 -24.5 -67.5t-43.5 -49.5t-58.5 -31t-68.5 -11h-266z" />
    <glyph glyph-name="uni00B3" unicode="&#xb3;" horiz-adv-x="513" 
d="M273 417q17 0 25 9t11 30q5 23 -1.5 31t-24.5 8h-95l17 97h100q14 0 22.5 11t12.5 28q2 17 -1.5 28t-17.5 11h-207l18 110h239q47 0 72.5 -27t17.5 -74l-12 -65q-4 -24 -15.5 -42t-27.5 -29q11 -8 15 -20.5t4 -30.5q0 -8 -1 -17.5t-3 -20.5l-8 -48q-10 -47 -43.5 -73
t-78.5 -26h-241l19 110h204z" />
    <glyph glyph-name="acute" unicode="&#xb4;" horiz-adv-x="279" 
d="M165 609l-48 59l185 162l66 -97z" />
    <glyph glyph-name="uni00B5" unicode="&#xb5;" horiz-adv-x="660" 
d="M226 206q-6 -34 9 -48.5t47 -14.5h114q26 0 45 14.5t25 48.5l66 374h155l-75 -425q-7 -38 -25.5 -67t-45 -48.5t-59 -29.5t-68.5 -10h-225l-35 -200h-155l137 780h156z" />
    <glyph glyph-name="paragraph" unicode="&#xb6;" horiz-adv-x="691" 
d="M269 -100l59 337h-157q-28 0 -48 4t-31.5 15.5t-14.5 32.5t3 54l45 253q6 33 16 54t25.5 32.5t37 15.5t49.5 4h471l-141 -802h-133l126 713h-48l-126 -713h-133z" />
    <glyph glyph-name="periodcentered" unicode="&#xb7;" horiz-adv-x="211" 
d="M214 249q-5 -26 -17.5 -36t-34.5 -10h-76q-26 0 -36.5 10.5t-6.5 35.5l14 75q4 25 20 35.5t39 10.5h76q20 0 30.5 -10t5.5 -36z" />
    <glyph glyph-name="cedilla" unicode="&#xb8;" horiz-adv-x="564" 
d="M294 -28q31 0 46.5 -25t5.5 -80q-10 -57 -37 -89.5t-58 -32.5h-91q-31 0 -47.5 20.5t-10.5 57.5l7 36h88l-1 -1q-2 -13 1.5 -21t22.5 -8h3q18 0 24.5 8t8.5 21l1 1q2 13 -1.5 20.5t-21.5 7.5h-77l20 118h78l-5 -33h44z" />
    <glyph glyph-name="uni00B9" unicode="&#xb9;" horiz-adv-x="714" 
d="M312 330q-53 0 -65 -66l-6 -34q-12 -67 41 -67h150q36 0 50.5 15t19.5 48l19 104h-209zM561 561q5 30 -6.5 43t-36.5 13h-353l29 163h410q73 0 112.5 -42t26.5 -117l-81 -462q-7 -38 -24.5 -67.5t-43.5 -49.5t-58.5 -31t-68.5 -11h-270q-36 0 -65.5 9.5t-48.5 28.5
t-26.5 47t-0.5 66l33 184q6 37 24 67t43.5 50t58.5 31t69 11h266z" />
    <glyph glyph-name="ordmasculine" unicode="&#xba;" horiz-adv-x="454" 
d="M93 248h313l-27 -152h-313zM228 503q-3 -18 -3.5 -30.5t4 -20t15.5 -10.5t31 -3h13q19 0 31.5 3t20 10.5t11.5 20t7 31.5q4 21 4 34t-5 20.5t-16 10.5t-30 3h-13q-32 0 -46.5 -11t-19.5 -36zM480 462q-14 -76 -64 -114t-130 -38h-50q-89 0 -120.5 42t-18.5 117l13 72
q7 37 24.5 67t43.5 50t58.5 31t68.5 11h50q73 0 112.5 -42t26.5 -117z" />
    <glyph glyph-name="guillemotright" unicode="&#xbb;" horiz-adv-x="528" 
d="M421 486l118 -194l-185 -193l-85 77l112 116l-76 123zM189 486l118 -194l-185 -193l-85 77l112 116l-76 123z" />
    <glyph glyph-name="onequarter" unicode="&#xbc;" horiz-adv-x="1095" 
d="M962 0h-114l23 128h-185q-31 0 -46.5 17.5t-10.5 46.5q2 11 13 30l159 251h126l-150 -235h113l41 235h114zM191 0h-135l623 780h140zM164 307h-114l82 473h115z" />
    <glyph glyph-name="onehalf" unicode="&#xbd;" horiz-adv-x="1091" 
d="M628 0l32 191q11 48 44 73.5t78 25.5h102q11 0 19 10t12 24q0 1 0.5 3t0.5 4q6 32 -18 32h-201l19 110h233q48 0 73 -25t17 -73l-18 -96q-6 -47 -41 -73t-81 -26h-101q-24 0 -30 -33l-7 -37h225l-19 -110h-339zM191 0h-135l623 780h140zM164 307h-114l82 473h115z" />
    <glyph glyph-name="threequarters" unicode="&#xbe;" horiz-adv-x="1311" 
d="M1178 0h-114l23 128h-185q-31 0 -46.5 17.5t-10.5 46.5q2 11 13 30l159 251h126l-150 -235h113l41 235h114zM407 0h-135l623 780h140zM273 417q17 0 25 9t11 30q5 23 -1.5 31t-24.5 8h-95l17 97h100q14 0 22.5 11t12.5 28q2 17 -1.5 28t-17.5 11h-207l18 110h239
q47 0 72.5 -27t17.5 -74l-12 -65q-4 -24 -15.5 -42t-27.5 -29q11 -8 15 -20.5t4 -30.5q0 -8 -1 -17.5t-3 -20.5l-8 -48q-10 -47 -43.5 -73t-78.5 -26h-241l19 110h204z" />
    <glyph glyph-name="questiondown" unicode="&#xbf;" horiz-adv-x="474" 
d="M368 534q5 26 17.5 36t34.5 10h76q26 0 36.5 -10.5t6.5 -35.5l-14 -75q-4 -25 -20 -35.5t-39 -10.5h-76q-20 0 -30.5 10t-5.5 36zM338 363h171l-17 -94q-7 -38 -24.5 -67.5t-43.5 -49.5t-58.5 -31t-68.5 -11h-29q-53 0 -65 -66l-2 -14q-12 -67 41 -67h309l-29 -163h-366
q-36 0 -65 9.5t-48 28.5t-26.5 47t-0.5 66l29 164q6 37 24 67t43.5 50t58.5 31t69 11h29q53 0 64 66z" />
    <glyph glyph-name="Agrave" unicode="&#xc0;" horiz-adv-x="694" 
d="M371 933l100 97l128 -162l-69 -59zM420 532l-116 -234h150zM-20 0l340 683q30 60 69 83t79 23q20 0 38.5 -5.5t33.5 -17.5t26 -32.5t15 -50.5l93 -683h-179l-22 134h-246l-68 -134h-179z" />
    <glyph glyph-name="Aacute" unicode="&#xc1;" horiz-adv-x="694" 
d="M407 809l-47 59l184 162l66 -97zM420 532l-116 -234h150zM-20 0l340 683q30 60 69 83t79 23q20 0 38.5 -5.5t33.5 -17.5t26 -32.5t15 -50.5l93 -683h-179l-22 134h-246l-68 -134h-179z" />
    <glyph glyph-name="Acircumflex" unicode="&#xc2;" horiz-adv-x="694" 
d="M483 898l-122 -83l-47 59l173 139h35l125 -140l-68 -59zM420 532l-116 -234h150zM-20 0l340 683q30 60 69 83t79 23q20 0 38.5 -5.5t33.5 -17.5t26 -32.5t15 -50.5l93 -683h-179l-22 134h-246l-68 -134h-179z" />
    <glyph glyph-name="Atilde" unicode="&#xc3;" horiz-adv-x="694" 
d="M650 906q-12 -16 -28 -30t-33 -24t-33 -16t-28 -6t-26.5 5.5t-29 12.5t-29.5 12.5t-29 5.5t-31.5 -8.5t-33.5 -31.5l-28 75q26 35 61.5 56t64.5 21q15 0 30 -5.5t29 -11.5t28 -11.5t28 -5.5q11 0 28 6.5t35 29.5zM420 532l-116 -234h150zM-20 0l340 683q30 60 69 83
t79 23q20 0 38.5 -5.5t33.5 -17.5t26 -32.5t15 -50.5l93 -683h-179l-22 134h-246l-68 -134h-179z" />
    <glyph glyph-name="Adieresis" unicode="&#xc4;" horiz-adv-x="694" 
d="M508 916q3 18 12.5 33.5t23.5 27t30.5 18.5t34.5 7q35 0 56 -25.5t15 -60.5q-3 -18 -12.5 -33.5t-23.5 -27t-30.5 -18.5t-34.5 -7q-35 0 -56 25.5t-15 60.5zM296 916q3 18 12.5 33.5t23.5 27t30.5 18.5t34.5 7q35 0 56 -25.5t15 -60.5q-3 -18 -12.5 -33.5t-23.5 -27
t-30.5 -18.5t-34.5 -7q-35 0 -56 25.5t-15 60.5zM420 532l-116 -234h150zM-20 0l340 683q30 60 69 83t79 23q20 0 38.5 -5.5t33.5 -17.5t26 -32.5t15 -50.5l93 -683h-179l-22 134h-246l-68 -134h-179z" />
    <glyph glyph-name="Aring" unicode="&#xc5;" horiz-adv-x="694" 
d="M497 965q-13 0 -24.5 -9t-13.5 -23q-2 -13 5.5 -22t21.5 -9q13 0 23.5 9t12.5 22t-5 22.5t-20 9.5zM515 1056q25 0 45.5 -9.5t33.5 -26t18 -39t1 -48.5q-5 -26 -18 -48t-32 -38.5t-43 -26t-50 -9.5t-47 9.5t-34.5 26t-19.5 38.5t-1 48q4 26 18 48.5t34.5 39t44.5 26
t50 9.5zM420 532l-116 -234h150zM-20 0l340 683q30 60 69 83t79 23q20 0 38.5 -5.5t33.5 -17.5t26 -32.5t15 -50.5l93 -683h-179l-22 134h-246l-68 -134h-179z" />
    <glyph glyph-name="AE" unicode="&#xc6;" horiz-adv-x="1052" 
d="M420 532l-116 -234h150zM679 309l-14 -79q-12 -67 41 -67h309l-28 -163h-366q-62 0 -98.5 27.5t-44.5 80.5l-5 26h-246l-68 -134h-179l340 683q30 60 69 83t77 23q22 0 42 -7t36 -20.5t25.5 -33t11.5 -45.5v-5q26 49 72.5 75.5t104.5 26.5h366l-29 -163h-309
q-54 0 -64 -66l-14 -79h352l-29 -163h-352z" />
    <glyph glyph-name="Ccedilla" unicode="&#xc7;" horiz-adv-x="637" 
d="M402 -28q31 0 46.5 -25t5.5 -80q-10 -57 -37 -89.5t-58 -32.5h-91q-31 0 -47.5 20.5t-10.5 57.5l7 36h88l-1 -1q-2 -13 1.5 -21t22.5 -8h3q18 0 24.5 8t8.5 21l1 1q2 13 -1.5 20.5t-21.5 7.5h-77l20 113h-78q-36 0 -65.5 9.5t-48.5 28.5t-26.5 47t-0.5 66l83 470
q7 37 24.5 67t43.5 50t58.5 31t68.5 11h370l-29 -163h-313q-54 0 -64 -66l-57 -321q-12 -67 41 -67h313l-28 -163h-214l-5 -28h44z" />
    <glyph glyph-name="Egrave" unicode="&#xc8;" 
d="M343 933l100 97l128 -162l-69 -59zM265 309l-14 -79q-12 -67 41 -67h309l-28 -163h-366q-36 0 -65.5 9.5t-48.5 28.5t-26.5 47t-0.5 66l83 470q7 37 24.5 67t43.5 50t58.5 31t68.5 11h366l-29 -163h-309q-54 0 -64 -66l-14 -79h352l-29 -163h-352z" />
    <glyph glyph-name="Eacute" unicode="&#xc9;" 
d="M449 809l-47 59l184 162l66 -97zM265 309l-14 -79q-12 -67 41 -67h309l-28 -163h-366q-36 0 -65.5 9.5t-48.5 28.5t-26.5 47t-0.5 66l83 470q7 37 24.5 67t43.5 50t58.5 31t68.5 11h366l-29 -163h-309q-54 0 -64 -66l-14 -79h352l-29 -163h-352z" />
    <glyph glyph-name="Ecircumflex" unicode="&#xca;" 
d="M494 898l-122 -83l-47 59l173 139h35l125 -140l-68 -59zM265 309l-14 -79q-12 -67 41 -67h309l-28 -163h-366q-36 0 -65.5 9.5t-48.5 28.5t-26.5 47t-0.5 66l83 470q7 37 24.5 67t43.5 50t58.5 31t68.5 11h366l-29 -163h-309q-54 0 -64 -66l-14 -79h352l-29 -163h-352z
" />
    <glyph glyph-name="Edieresis" unicode="&#xcb;" 
d="M510 916q3 18 12.5 33.5t23.5 27t30.5 18.5t34.5 7q35 0 56 -25.5t15 -60.5q-3 -18 -12.5 -33.5t-23.5 -27t-30.5 -18.5t-34.5 -7q-35 0 -56 25.5t-15 60.5zM298 916q3 18 12.5 33.5t23.5 27t30.5 18.5t34.5 7q35 0 56 -25.5t15 -60.5q-3 -18 -12.5 -33.5t-23.5 -27
t-30.5 -18.5t-34.5 -7q-35 0 -56 25.5t-15 60.5zM265 309l-14 -79q-12 -67 41 -67h309l-28 -163h-366q-36 0 -65.5 9.5t-48.5 28.5t-26.5 47t-0.5 66l83 470q7 37 24.5 67t43.5 50t58.5 31t68.5 11h366l-29 -163h-309q-54 0 -64 -66l-14 -79h352l-29 -163h-352z" />
    <glyph glyph-name="Igrave" unicode="&#xcc;" horiz-adv-x="311" 
d="M150 933l100 97l128 -162l-69 -59zM221 0h-171l137 780h171z" />
    <glyph glyph-name="Iacute" unicode="&#xcd;" horiz-adv-x="311" 
d="M246 809l-47 59l184 162l66 -97zM221 0h-171l137 780h171z" />
    <glyph glyph-name="Icircumflex" unicode="&#xce;" horiz-adv-x="311" 
d="M292 898l-122 -83l-47 59l173 139h35l125 -140l-68 -59zM221 0h-171l137 780h171z" />
    <glyph glyph-name="Idieresis" unicode="&#xcf;" horiz-adv-x="311" 
d="M317 916q3 18 12.5 33.5t23.5 27t30.5 18.5t34.5 7q35 0 56 -25.5t15 -60.5q-3 -18 -12.5 -33.5t-23.5 -27t-30.5 -18.5t-34.5 -7q-35 0 -56 25.5t-15 60.5zM105 916q3 18 12.5 33.5t23.5 27t30.5 18.5t34.5 7q35 0 56 -25.5t15 -60.5q-3 -18 -12.5 -33.5t-23.5 -27
t-30.5 -18.5t-34.5 -7q-35 0 -56 25.5t-15 60.5zM221 0h-171l137 780h171z" />
    <glyph glyph-name="Eth" unicode="&#xd0;" horiz-adv-x="740" 
d="M329 617l-25 -145h123l-29 -162h-123l-26 -147h215q53 0 65 67l57 321q10 66 -42 66h-215zM63 472h70l54 308h443q73 0 112.5 -42t26.5 -117l-83 -470q-14 -75 -67 -113t-126 -38h-443l54 310h-70z" />
    <glyph glyph-name="Ntilde" unicode="&#xd1;" horiz-adv-x="747" 
d="M674 906q-12 -16 -28 -30t-33 -24t-33 -16t-28 -6t-26.5 5.5t-29 12.5t-29.5 12.5t-29 5.5t-31.5 -8.5t-33.5 -31.5l-28 75q26 35 61.5 56t64.5 21q15 0 30 -5.5t29 -11.5t28 -11.5t28 -5.5q11 0 28 6.5t35 29.5zM794 780l-118 -669q-21 -121 -122 -121q-12 0 -26 3.5
t-30 15.5t-33 36t-36 65l-136 300l-72 -410h-171l119 679q10 53 41 81.5t69 28.5q25 0 49 -15t43 -58l171 -393l81 457h171z" />
    <glyph glyph-name="Ograve" unicode="&#xd2;" horiz-adv-x="724" 
d="M366 933l100 97l128 -162l-69 -59zM251 230q-6 -34 5.5 -50.5t43.5 -16.5h148q53 0 65 67l57 321q10 66 -42 66h-148q-62 0 -72 -66zM670 151q-14 -75 -67 -113t-126 -38h-270q-36 0 -65 11t-47.5 31t-26 49.5t-0.5 67.5l81 462q7 37 24.5 67t43.5 50t58.5 31t68.5 11
h270q73 0 112.5 -42t26.5 -117z" />
    <glyph glyph-name="Oacute" unicode="&#xd3;" horiz-adv-x="724" 
d="M451 809l-47 59l184 162l66 -97zM251 230q-6 -34 5.5 -50.5t43.5 -16.5h148q53 0 65 67l57 321q10 66 -42 66h-148q-62 0 -72 -66zM670 151q-14 -75 -67 -113t-126 -38h-270q-36 0 -65 11t-47.5 31t-26 49.5t-0.5 67.5l81 462q7 37 24.5 67t43.5 50t58.5 31t68.5 11h270
q73 0 112.5 -42t26.5 -117z" />
    <glyph glyph-name="Ocircumflex" unicode="&#xd4;" horiz-adv-x="724" 
d="M498 898l-122 -83l-47 59l173 139h35l125 -140l-68 -59zM251 230q-6 -34 5.5 -50.5t43.5 -16.5h148q53 0 65 67l57 321q10 66 -42 66h-148q-62 0 -72 -66zM670 151q-14 -75 -67 -113t-126 -38h-270q-36 0 -65 11t-47.5 31t-26 49.5t-0.5 67.5l81 462q7 37 24.5 67
t43.5 50t58.5 31t68.5 11h270q73 0 112.5 -42t26.5 -117z" />
    <glyph glyph-name="Otilde" unicode="&#xd5;" horiz-adv-x="724" 
d="M665 906q-12 -16 -28 -30t-33 -24t-33 -16t-28 -6t-26.5 5.5t-29 12.5t-29.5 12.5t-29 5.5t-31.5 -8.5t-33.5 -31.5l-28 75q26 35 61.5 56t64.5 21q15 0 30 -5.5t29 -11.5t28 -11.5t28 -5.5q11 0 28 6.5t35 29.5zM251 230q-6 -34 5.5 -50.5t43.5 -16.5h148q53 0 65 67
l57 321q10 66 -42 66h-148q-62 0 -72 -66zM670 151q-14 -75 -67 -113t-126 -38h-270q-36 0 -65 11t-47.5 31t-26 49.5t-0.5 67.5l81 462q7 37 24.5 67t43.5 50t58.5 31t68.5 11h270q73 0 112.5 -42t26.5 -117z" />
    <glyph glyph-name="Odieresis" unicode="&#xd6;" horiz-adv-x="724" 
d="M523 916q3 18 12.5 33.5t23.5 27t30.5 18.5t34.5 7q35 0 56 -25.5t15 -60.5q-3 -18 -12.5 -33.5t-23.5 -27t-30.5 -18.5t-34.5 -7q-35 0 -56 25.5t-15 60.5zM311 916q3 18 12.5 33.5t23.5 27t30.5 18.5t34.5 7q35 0 56 -25.5t15 -60.5q-3 -18 -12.5 -33.5t-23.5 -27
t-30.5 -18.5t-34.5 -7q-35 0 -56 25.5t-15 60.5zM251 230q-6 -34 5.5 -50.5t43.5 -16.5h148q53 0 65 67l57 321q10 66 -42 66h-148q-62 0 -72 -66zM670 151q-14 -75 -67 -113t-126 -38h-270q-36 0 -65 11t-47.5 31t-26 49.5t-0.5 67.5l81 462q7 37 24.5 67t43.5 50t58.5 31
t68.5 11h270q73 0 112.5 -42t26.5 -117z" />
    <glyph glyph-name="multiply" unicode="&#xd7;" horiz-adv-x="476" 
d="M265 263l-142 -121l-81 98l142 121l-99 120l114 97l99 -120l141 120l81 -98l-141 -120l99 -120l-114 -97z" />
    <glyph glyph-name="Oslash" unicode="&#xd8;" horiz-adv-x="724" 
d="M262 293l259 324h-141q-62 0 -72 -66zM448 163q53 0 65 67l46 262l-265 -329h154zM670 151q-14 -75 -67 -113t-126 -38h-270q-24 0 -41 4l-57 -72h-134l104 131q-22 39 -11 96l81 462q7 37 24.5 67t43.5 50t58.5 31t68.5 11h270q18 0 36 -3l57 73h140l-106 -133
q22 -40 12 -96z" />
    <glyph glyph-name="Ugrave" unicode="&#xd9;" horiz-adv-x="737" 
d="M363 933l100 97l128 -162l-69 -59zM254 221q-5 -26 6.5 -42t45.5 -16h141q35 0 51 16t21 42l99 559h171l-107 -609q-6 -36 -20.5 -67t-36.5 -54t-52.5 -36.5t-68.5 -13.5h-304q-38 0 -65 13.5t-42.5 36.5t-19.5 54t2 67l107 609h171z" />
    <glyph glyph-name="Uacute" unicode="&#xda;" horiz-adv-x="737" 
d="M479 809l-47 59l184 162l66 -97zM254 221q-5 -26 6.5 -42t45.5 -16h141q35 0 51 16t21 42l99 559h171l-107 -609q-6 -36 -20.5 -67t-36.5 -54t-52.5 -36.5t-68.5 -13.5h-304q-38 0 -65 13.5t-42.5 36.5t-19.5 54t2 67l107 609h171z" />
    <glyph glyph-name="Ucircumflex" unicode="&#xdb;" horiz-adv-x="737" 
d="M506 898l-122 -83l-47 59l173 139h35l125 -140l-68 -59zM254 221q-5 -26 6.5 -42t45.5 -16h141q35 0 51 16t21 42l99 559h171l-107 -609q-6 -36 -20.5 -67t-36.5 -54t-52.5 -36.5t-68.5 -13.5h-304q-38 0 -65 13.5t-42.5 36.5t-19.5 54t2 67l107 609h171z" />
    <glyph glyph-name="Udieresis" unicode="&#xdc;" horiz-adv-x="737" 
d="M529 916q3 18 12.5 33.5t23.5 27t30.5 18.5t34.5 7q35 0 56 -25.5t15 -60.5q-3 -18 -12.5 -33.5t-23.5 -27t-30.5 -18.5t-34.5 -7q-35 0 -56 25.5t-15 60.5zM317 916q3 18 12.5 33.5t23.5 27t30.5 18.5t34.5 7q35 0 56 -25.5t15 -60.5q-3 -18 -12.5 -33.5t-23.5 -27
t-30.5 -18.5t-34.5 -7q-35 0 -56 25.5t-15 60.5zM254 221q-5 -26 6.5 -42t45.5 -16h141q35 0 51 16t21 42l99 559h171l-107 -609q-6 -36 -20.5 -67t-36.5 -54t-52.5 -36.5t-68.5 -13.5h-304q-38 0 -65 13.5t-42.5 36.5t-19.5 54t2 67l107 609h171z" />
    <glyph glyph-name="Yacute" unicode="&#xdd;" horiz-adv-x="692" 
d="M456 809l-47 59l184 162l66 -97zM240 0l53 304l-176 476h188l105 -294l210 294h189l-345 -477l-53 -303h-171z" />
    <glyph glyph-name="Thorn" unicode="&#xde;" horiz-adv-x="713" 
d="M308 495l-37 -210h207q54 0 66 67l13 77q12 66 -42 66h-207zM337 658h265q73 0 112 -42t26 -117l-28 -163q-4 -22 -8.5 -42.5t-10.5 -40.5q-7 -33 -24.5 -57.5t-42.5 -41t-55.5 -24.5t-63.5 -8h-265l-21 -122h-171l137 780h171z" />
    <glyph glyph-name="germandbls" unicode="&#xdf;" horiz-adv-x="631" 
d="M368 142q36 0 51 22.5t23 68.5q5 30 5 49t-6 29.5t-19 14.5t-32 4h-83l21 122h94q32 0 48.5 19.5t25.5 71.5q8 48 0.5 70.5t-41.5 22.5h-76q-36 0 -53.5 -11.5t-22.5 -38.5l-128 -726h-155l136 775q7 36 25 63.5t44 45.5t57.5 27t64.5 9h179q73 0 112.5 -42t26.5 -117
l-19 -109q-8 -45 -30.5 -75t-55.5 -47q35 -20 42 -55t-4 -95l-14 -81q-7 -38 -24.5 -67.5t-43.5 -49.5t-58.5 -31t-68.5 -11h-140l25 142h94z" />
    <glyph glyph-name="agrave" unicode="&#xe0;" horiz-adv-x="643" 
d="M271 733l100 97l127 -162l-68 -59zM384 143q26 0 45 14.5t25 48.5l3 17h-187q-20 0 -39.5 -9t-23.5 -32q-2 -11 1.5 -18.5t10.5 -12t17 -6.5t20 -2h128zM191 0q-36 0 -65.5 10t-49 29.5t-28 48.5t-1.5 67l11 64q7 38 25 66t44.5 46t59 27t68.5 9h227l1 6q6 35 -8 49
t-40 14h-329l26 144h372q36 0 65.5 -9t49.5 -27t28.5 -46t1.5 -66l-49 -277q-7 -38 -25.5 -67t-45 -48.5t-59 -29.5t-68.5 -10h-211z" />
    <glyph glyph-name="aacute" unicode="&#xe1;" horiz-adv-x="643" 
d="M347 609l-48 59l185 162l66 -97zM384 143q26 0 45 14.5t25 48.5l3 17h-187q-20 0 -39.5 -9t-23.5 -32q-2 -11 1.5 -18.5t10.5 -12t17 -6.5t20 -2h128zM191 0q-36 0 -65.5 10t-49 29.5t-28 48.5t-1.5 67l11 64q7 38 25 66t44.5 46t59 27t68.5 9h227l1 6q6 35 -8 49t-40 14
h-329l26 144h372q36 0 65.5 -9t49.5 -27t28.5 -46t1.5 -66l-49 -277q-7 -38 -25.5 -67t-45 -48.5t-59 -29.5t-68.5 -10h-211z" />
    <glyph glyph-name="acircumflex" unicode="&#xe2;" horiz-adv-x="643" 
d="M405 698l-122 -83l-48 59l174 139h35l125 -140l-68 -59zM384 143q26 0 45 14.5t25 48.5l3 17h-187q-20 0 -39.5 -9t-23.5 -32q-2 -11 1.5 -18.5t10.5 -12t17 -6.5t20 -2h128zM191 0q-36 0 -65.5 10t-49 29.5t-28 48.5t-1.5 67l11 64q7 38 25 66t44.5 46t59 27t68.5 9h227
l1 6q6 35 -8 49t-40 14h-329l26 144h372q36 0 65.5 -9t49.5 -27t28.5 -46t1.5 -66l-49 -277q-7 -38 -25.5 -67t-45 -48.5t-59 -29.5t-68.5 -10h-211z" />
    <glyph glyph-name="atilde" unicode="&#xe3;" horiz-adv-x="643" 
d="M571 706q-12 -16 -28.5 -30t-33.5 -24t-32.5 -16t-27.5 -6t-26.5 5.5t-29 12.5t-29.5 12.5t-29 5.5t-31.5 -8.5t-33.5 -31.5l-28 75q25 35 61 56t65 21q15 0 30 -5.5t29 -11.5t28 -11.5t28 -5.5q11 0 28 6.5t35 29.5zM384 143q26 0 45 14.5t25 48.5l3 17h-187
q-20 0 -39.5 -9t-23.5 -32q-2 -11 1.5 -18.5t10.5 -12t17 -6.5t20 -2h128zM191 0q-36 0 -65.5 10t-49 29.5t-28 48.5t-1.5 67l11 64q7 38 25 66t44.5 46t59 27t68.5 9h227l1 6q6 35 -8 49t-40 14h-329l26 144h372q36 0 65.5 -9t49.5 -27t28.5 -46t1.5 -66l-49 -277
q-7 -38 -25.5 -67t-45 -48.5t-59 -29.5t-68.5 -10h-211z" />
    <glyph glyph-name="adieresis" unicode="&#xe4;" horiz-adv-x="643" 
d="M420 716q3 18 12.5 33.5t23.5 27t30.5 18.5t34.5 7q35 0 56 -25.5t15 -60.5q-3 -18 -13 -33.5t-23.5 -27t-30 -18.5t-34.5 -7t-32.5 7t-24 18.5t-13.5 27t-1 33.5zM208 716q3 18 12.5 33.5t23.5 27t30.5 18.5t34.5 7q35 0 56 -25.5t15 -60.5q-3 -18 -13 -33.5t-23.5 -27
t-30 -18.5t-34.5 -7t-32.5 7t-24 18.5t-13.5 27t-1 33.5zM384 143q26 0 45 14.5t25 48.5l3 17h-187q-20 0 -39.5 -9t-23.5 -32q-2 -11 1.5 -18.5t10.5 -12t17 -6.5t20 -2h128zM191 0q-36 0 -65.5 10t-49 29.5t-28 48.5t-1.5 67l11 64q7 38 25 66t44.5 46t59 27t68.5 9h227
l1 6q6 35 -8 49t-40 14h-329l26 144h372q36 0 65.5 -9t49.5 -27t28.5 -46t1.5 -66l-49 -277q-7 -38 -25.5 -67t-45 -48.5t-59 -29.5t-68.5 -10h-211z" />
    <glyph glyph-name="aring" unicode="&#xe5;" horiz-adv-x="643" 
d="M416 765q-13 0 -24 -9t-13 -23q-2 -13 5 -22t21 -9q13 0 24 9t13 22t-5.5 22.5t-20.5 9.5zM434 856q25 0 45.5 -9.5t34 -26t18.5 -39t1 -48.5q-5 -26 -18 -48t-32.5 -38.5t-43.5 -26t-50 -9.5t-47 9.5t-34.5 26t-19 38.5t-0.5 48q4 26 18 48.5t34 39t44 26t50 9.5z
M384 143q26 0 45 14.5t25 48.5l3 17h-187q-20 0 -39.5 -9t-23.5 -32q-2 -11 1.5 -18.5t10.5 -12t17 -6.5t20 -2h128zM191 0q-36 0 -65.5 10t-49 29.5t-28 48.5t-1.5 67l11 64q7 38 25 66t44.5 46t59 27t68.5 9h227l1 6q6 35 -8 49t-40 14h-329l26 144h372q36 0 65.5 -9
t49.5 -27t28.5 -46t1.5 -66l-49 -277q-7 -38 -25.5 -67t-45 -48.5t-59 -29.5t-68.5 -10h-211z" />
    <glyph glyph-name="ae" unicode="&#xe6;" horiz-adv-x="1027" 
d="M723 436q-23 0 -38 -5t-25 -13.5t-15 -20.5t-7 -25l-10 -57l254 85q3 17 -3 26.5t-40 9.5h-116zM384 143q26 0 45 14.5t25 48.5l3 17h-187q-20 0 -39.5 -9t-23.5 -32q-2 -11 1.5 -18.5t10.5 -12t17 -6.5t20 -2h128zM952 0h-364q-26 0 -48 6.5t-39 24.5q-23 -18 -48 -24.5
t-51 -6.5h-211q-36 0 -65.5 10t-49 29.5t-28 48.5t-1.5 67l11 64q7 38 25 66t44.5 46t59 27t68.5 9h227l1 6q6 35 -8 49t-40 14h-329l26 144h372q26 0 49 -6t40 -23q23 17 48 23t51 6h211q36 0 64.5 -9.5t47.5 -28.5t26.5 -47.5t0.5 -66.5l-21 -120l-415 -137
q-4 -21 18 -24.5t59 -3.5h294z" />
    <glyph glyph-name="ccedilla" unicode="&#xe7;" horiz-adv-x="539" 
d="M346 -26q28 0 42 -22t5 -72q-9 -53 -33.5 -82.5t-52.5 -29.5h-83q-28 0 -43.5 18.5t-9.5 52.5l6 32h80q-2 -12 1.5 -19.5t20.5 -7.5h3q16 0 22 7.5t8 19.5t-1.5 19t-19.5 7h-71l19 103h-38q-36 0 -65.5 10t-49 29.5t-28 48.5t-1.5 67l49 277q7 38 25 66t44.5 46t59 27
t68.5 9h288l-26 -144h-245q-26 0 -45 -14t-25 -49l-29 -167q-6 -34 8 -48.5t40 -14.5h245l-25 -143h-178l-5 -26h40z" />
    <glyph glyph-name="egrave" unicode="&#xe8;" 
d="M298 733l100 97l127 -162l-68 -59zM239 315l254 85q3 17 -3 26.5t-40 9.5h-116q-25 0 -40.5 -5.5t-24.5 -15.5t-13.5 -23.5t-7.5 -28.5zM563 0h-364q-36 0 -65 10t-48.5 30.5t-27 50t-0.5 68.5l48 273q7 38 25 66t44.5 46t59 27t68.5 9h211q36 0 64.5 -9.5t47.5 -28.5
t26.5 -47.5t0.5 -66.5l-21 -120l-415 -137q-4 -21 18 -24.5t59 -3.5h294z" />
    <glyph glyph-name="eacute" unicode="&#xe9;" 
d="M394 609l-48 59l185 162l66 -97zM239 315l254 85q3 17 -3 26.5t-40 9.5h-116q-25 0 -40.5 -5.5t-24.5 -15.5t-13.5 -23.5t-7.5 -28.5zM563 0h-364q-36 0 -65 10t-48.5 30.5t-27 50t-0.5 68.5l48 273q7 38 25 66t44.5 46t59 27t68.5 9h211q36 0 64.5 -9.5t47.5 -28.5
t26.5 -47.5t0.5 -66.5l-21 -120l-415 -137q-4 -21 18 -24.5t59 -3.5h294z" />
    <glyph glyph-name="ecircumflex" unicode="&#xea;" 
d="M420 698l-122 -83l-48 59l174 139h35l125 -140l-68 -59zM239 315l254 85q3 17 -3 26.5t-40 9.5h-116q-25 0 -40.5 -5.5t-24.5 -15.5t-13.5 -23.5t-7.5 -28.5zM563 0h-364q-36 0 -65 10t-48.5 30.5t-27 50t-0.5 68.5l48 273q7 38 25 66t44.5 46t59 27t68.5 9h211
q36 0 64.5 -9.5t47.5 -28.5t26.5 -47.5t0.5 -66.5l-21 -120l-415 -137q-4 -21 18 -24.5t59 -3.5h294z" />
    <glyph glyph-name="edieresis" unicode="&#xeb;" 
d="M445 716q3 18 12.5 33.5t23.5 27t30.5 18.5t34.5 7q35 0 56 -25.5t15 -60.5q-3 -18 -13 -33.5t-23.5 -27t-30 -18.5t-34.5 -7t-32.5 7t-24 18.5t-13.5 27t-1 33.5zM233 716q3 18 12.5 33.5t23.5 27t30.5 18.5t34.5 7q35 0 56 -25.5t15 -60.5q-3 -18 -13 -33.5t-23.5 -27
t-30 -18.5t-34.5 -7t-32.5 7t-24 18.5t-13.5 27t-1 33.5zM239 315l254 85q3 17 -3 26.5t-40 9.5h-116q-25 0 -40.5 -5.5t-24.5 -15.5t-13.5 -23.5t-7.5 -28.5zM563 0h-364q-36 0 -65 10t-48.5 30.5t-27 50t-0.5 68.5l48 273q7 38 25 66t44.5 46t59 27t68.5 9h211
q36 0 64.5 -9.5t47.5 -28.5t26.5 -47.5t0.5 -66.5l-21 -120l-415 -137q-4 -21 18 -24.5t59 -3.5h294z" />
    <glyph glyph-name="igrave" unicode="&#xec;" horiz-adv-x="275" 
d="M98 733l100 97l127 -162l-68 -59zM195 0h-155l102 580h155z" />
    <glyph glyph-name="iacute" unicode="&#xed;" horiz-adv-x="275" 
d="M201 609l-48 59l185 162l66 -97zM195 0h-155l102 580h155z" />
    <glyph glyph-name="icircumflex" unicode="&#xee;" horiz-adv-x="275" 
d="M238 698l-122 -83l-48 59l174 139h35l125 -140l-68 -59zM195 0h-155l102 580h155z" />
    <glyph glyph-name="idieresis" unicode="&#xef;" horiz-adv-x="275" 
d="M263 716q3 18 12.5 33.5t23.5 27t30.5 18.5t34.5 7q35 0 56 -25.5t15 -60.5q-3 -18 -13 -33.5t-23.5 -27t-30 -18.5t-34.5 -7t-32.5 7t-24 18.5t-13.5 27t-1 33.5zM51 716q3 18 12.5 33.5t23.5 27t30.5 18.5t34.5 7q35 0 56 -25.5t15 -60.5q-3 -18 -13 -33.5t-23.5 -27
t-30 -18.5t-34.5 -7t-32.5 7t-24 18.5t-13.5 27t-1 33.5zM195 0h-155l102 580h155z" />
    <glyph glyph-name="eth" unicode="&#xf0;" horiz-adv-x="637" 
d="M394 143q26 0 45 14.5t25 48.5l40 230h-187q-20 0 -39 -9t-24 -32l-33 -189q-6 -34 10 -48.5t35 -14.5h128zM678 728q12 -18 16.5 -41.5t-0.5 -54.5l-85 -483q-7 -38 -25 -66t-44.5 -46.5t-59 -27.5t-68.5 -9h-211q-36 0 -65.5 10t-49 29.5t-28 48.5t-1.5 67l48 272
q7 38 25.5 67t45 48t59 28.5t68.5 9.5h227q1 9 0 16t-3 13l-20 -15l-17 22l18 14q-12 6 -27 6h-175l25 144h218q67 0 108 -30l45 36l18 -25z" />
    <glyph glyph-name="ntilde" unicode="&#xf1;" horiz-adv-x="640" 
d="M588 706q-12 -16 -28.5 -30t-33.5 -24t-32.5 -16t-27.5 -6t-26.5 5.5t-29 12.5t-29.5 12.5t-29 5.5t-31.5 -8.5t-33.5 -31.5l-28 75q25 35 61 56t65 21q15 0 30 -5.5t29 -11.5t28 -11.5t28 -5.5q11 0 28 6.5t35 29.5zM485 373q6 35 -9 49t-47 14h-114q-26 0 -45 -14
t-25 -49l-65 -373h-155l76 433q7 38 25 66t44.5 46t59 26.5t68.5 8.5h208q36 0 65.5 -9t49 -27.5t28 -46.5t1.5 -66l-75 -431h-155z" />
    <glyph glyph-name="ograve" unicode="&#xf2;" horiz-adv-x="651" 
d="M277 733l100 97l127 -162l-68 -59zM222 206q-6 -34 9 -48.5t47 -14.5h114q26 0 45.5 14.5t25.5 48.5l29 167q6 35 -8.5 49t-40.5 14h-114q-32 0 -52 -14t-26 -49zM607 153q-7 -38 -25 -67t-44.5 -48t-59 -28.5t-68.5 -9.5h-209q-36 0 -65.5 10t-49 30t-28 49.5t-1.5 67.5
l48 272q7 38 25.5 66.5t45 47t59 28t68.5 9.5h209q36 0 65.5 -8.5t49.5 -26.5t28.5 -45.5t1.5 -65.5z" />
    <glyph glyph-name="oacute" unicode="&#xf3;" horiz-adv-x="651" 
d="M400 609l-48 59l185 162l66 -97zM222 206q-6 -34 9 -48.5t47 -14.5h114q26 0 45.5 14.5t25.5 48.5l29 167q6 35 -8.5 49t-40.5 14h-114q-32 0 -52 -14t-26 -49zM607 153q-7 -38 -25 -67t-44.5 -48t-59 -28.5t-68.5 -9.5h-209q-36 0 -65.5 10t-49 30t-28 49.5t-1.5 67.5
l48 272q7 38 25.5 66.5t45 47t59 28t68.5 9.5h209q36 0 65.5 -8.5t49.5 -26.5t28.5 -45.5t1.5 -65.5z" />
    <glyph glyph-name="ocircumflex" unicode="&#xf4;" horiz-adv-x="651" 
d="M426 698l-122 -83l-48 59l174 139h35l125 -140l-68 -59zM222 206q-6 -34 9 -48.5t47 -14.5h114q26 0 45.5 14.5t25.5 48.5l29 167q6 35 -8.5 49t-40.5 14h-114q-32 0 -52 -14t-26 -49zM607 153q-7 -38 -25 -67t-44.5 -48t-59 -28.5t-68.5 -9.5h-209q-36 0 -65.5 10
t-49 30t-28 49.5t-1.5 67.5l48 272q7 38 25.5 66.5t45 47t59 28t68.5 9.5h209q36 0 65.5 -8.5t49.5 -26.5t28.5 -45.5t1.5 -65.5z" />
    <glyph glyph-name="otilde" unicode="&#xf5;" horiz-adv-x="651" 
d="M593 706q-12 -16 -28.5 -30t-33.5 -24t-32.5 -16t-27.5 -6t-26.5 5.5t-29 12.5t-29.5 12.5t-29 5.5t-31.5 -8.5t-33.5 -31.5l-28 75q25 35 61 56t65 21q15 0 30 -5.5t29 -11.5t28 -11.5t28 -5.5q11 0 28 6.5t35 29.5zM222 206q-6 -34 9 -48.5t47 -14.5h114
q26 0 45.5 14.5t25.5 48.5l29 167q6 35 -8.5 49t-40.5 14h-114q-32 0 -52 -14t-26 -49zM607 153q-7 -38 -25 -67t-44.5 -48t-59 -28.5t-68.5 -9.5h-209q-36 0 -65.5 10t-49 30t-28 49.5t-1.5 67.5l48 272q7 38 25.5 66.5t45 47t59 28t68.5 9.5h209q36 0 65.5 -8.5
t49.5 -26.5t28.5 -45.5t1.5 -65.5z" />
    <glyph glyph-name="odieresis" unicode="&#xf6;" horiz-adv-x="651" 
d="M451 716q3 18 12.5 33.5t23.5 27t30.5 18.5t34.5 7q35 0 56 -25.5t15 -60.5q-3 -18 -13 -33.5t-23.5 -27t-30 -18.5t-34.5 -7t-32.5 7t-24 18.5t-13.5 27t-1 33.5zM239 716q3 18 12.5 33.5t23.5 27t30.5 18.5t34.5 7q35 0 56 -25.5t15 -60.5q-3 -18 -13 -33.5t-23.5 -27
t-30 -18.5t-34.5 -7t-32.5 7t-24 18.5t-13.5 27t-1 33.5zM222 206q-6 -34 9 -48.5t47 -14.5h114q26 0 45.5 14.5t25.5 48.5l29 167q6 35 -8.5 49t-40.5 14h-114q-32 0 -52 -14t-26 -49zM607 153q-7 -38 -25 -67t-44.5 -48t-59 -28.5t-68.5 -9.5h-209q-36 0 -65.5 10t-49 30
t-28 49.5t-1.5 67.5l48 272q7 38 25.5 66.5t45 47t59 28t68.5 9.5h209q36 0 65.5 -8.5t49.5 -26.5t28.5 -45.5t1.5 -65.5z" />
    <glyph glyph-name="divide" unicode="&#xf7;" horiz-adv-x="498" 
d="M236 542q3 18 12.5 33.5t23.5 27t30.5 18.5t34.5 7q35 0 56 -25.5t15 -60.5q-3 -18 -12.5 -33.5t-23.5 -27t-30.5 -18.5t-34.5 -7q-35 0 -56 25.5t-15 60.5zM172 178q3 18 12.5 33.5t23.5 27t30.5 18.5t34.5 7q35 0 56 -25.5t15 -60.5q-3 -18 -12.5 -33.5t-23.5 -27
t-30.5 -18.5t-34.5 -7q-35 0 -56 25.5t-15 60.5zM41 292l24 137h478l-24 -137h-478z" />
    <glyph glyph-name="oslash" unicode="&#xf8;" horiz-adv-x="651" 
d="M223 212l179 224h-73q-32 0 -52 -14t-26 -49zM493 376l-188 -233h87q26 0 45.5 14.5t25.5 48.5zM627 544q20 -18 28.5 -45t1.5 -65l-50 -281q-7 -38 -25 -67t-44.5 -48t-59 -28.5t-68.5 -9.5h-220l-81 -100h-134l111 141q-20 20 -28 49t-1 67l48 272q7 38 25.5 66.5
t45 47t59 28t68.5 9.5h214l80 100h140z" />
    <glyph glyph-name="ugrave" unicode="&#xf9;" horiz-adv-x="660" 
d="M279 733l100 97l127 -162l-68 -59zM226 206q-6 -34 9 -48.5t47 -14.5h114q26 0 45 14.5t25 48.5l66 374h155l-75 -425q-7 -38 -25.5 -67t-45 -48.5t-59 -29.5t-68.5 -10h-208q-36 0 -65.5 10t-49 29.5t-28 48.5t-1.5 67l75 425h155z" />
    <glyph glyph-name="uacute" unicode="&#xfa;" horiz-adv-x="660" 
d="M405 609l-48 59l185 162l66 -97zM226 206q-6 -34 9 -48.5t47 -14.5h114q26 0 45 14.5t25 48.5l66 374h155l-75 -425q-7 -38 -25.5 -67t-45 -48.5t-59 -29.5t-68.5 -10h-208q-36 0 -65.5 10t-49 29.5t-28 48.5t-1.5 67l75 425h155z" />
    <glyph glyph-name="ucircumflex" unicode="&#xfb;" horiz-adv-x="660" 
d="M431 698l-122 -83l-48 59l174 139h35l125 -140l-68 -59zM226 206q-6 -34 9 -48.5t47 -14.5h114q26 0 45 14.5t25 48.5l66 374h155l-75 -425q-7 -38 -25.5 -67t-45 -48.5t-59 -29.5t-68.5 -10h-208q-36 0 -65.5 10t-49 29.5t-28 48.5t-1.5 67l75 425h155z" />
    <glyph glyph-name="udieresis" unicode="&#xfc;" horiz-adv-x="660" 
d="M456 716q3 18 12.5 33.5t23.5 27t30.5 18.5t34.5 7q35 0 56 -25.5t15 -60.5q-3 -18 -13 -33.5t-23.5 -27t-30 -18.5t-34.5 -7t-32.5 7t-24 18.5t-13.5 27t-1 33.5zM244 716q3 18 12.5 33.5t23.5 27t30.5 18.5t34.5 7q35 0 56 -25.5t15 -60.5q-3 -18 -13 -33.5t-23.5 -27
t-30 -18.5t-34.5 -7t-32.5 7t-24 18.5t-13.5 27t-1 33.5zM226 206q-6 -34 9 -48.5t47 -14.5h114q26 0 45 14.5t25 48.5l66 374h155l-75 -425q-7 -38 -25.5 -67t-45 -48.5t-59 -29.5t-68.5 -10h-208q-36 0 -65.5 10t-49 29.5t-28 48.5t-1.5 67l75 425h155z" />
    <glyph glyph-name="yacute" unicode="&#xfd;" horiz-adv-x="668" 
d="M399 609l-48 59l185 162l66 -97zM458 144l77 436h155l-115 -652q-7 -38 -25 -66t-44.5 -46t-59 -27t-68.5 -9h-372l25 144h329q26 0 45 14t25 49l3 13h-227q-36 0 -65.5 9t-49.5 27t-28.5 46t-1.5 66l76 432h155l-70 -395q-4 -23 12.5 -32t36.5 -9h187z" />
    <glyph glyph-name="thorn" unicode="&#xfe;" horiz-adv-x="661" 
d="M272 437l-52 -293h160q14 0 28.5 1t27.5 7t22.5 19t13.5 36l29 167q6 34 -8 48.5t-40 14.5h-181zM195 0l-39 -220h-155l176 1000h155l-35 -200h225q36 0 65 -10t48.5 -29.5t28 -48.5t1.5 -67l-48 -277q-7 -38 -25 -66t-44.5 -46t-59 -27t-68.5 -9h-225z" />
    <glyph glyph-name="ydieresis" unicode="&#xff;" horiz-adv-x="668" 
d="M460 716q3 18 12.5 33.5t23.5 27t30.5 18.5t34.5 7q35 0 56 -25.5t15 -60.5q-3 -18 -13 -33.5t-23.5 -27t-30 -18.5t-34.5 -7t-32.5 7t-24 18.5t-13.5 27t-1 33.5zM248 716q3 18 12.5 33.5t23.5 27t30.5 18.5t34.5 7q35 0 56 -25.5t15 -60.5q-3 -18 -13 -33.5t-23.5 -27
t-30 -18.5t-34.5 -7t-32.5 7t-24 18.5t-13.5 27t-1 33.5zM458 144l77 436h155l-115 -652q-7 -38 -25 -66t-44.5 -46t-59 -27t-68.5 -9h-372l25 144h329q26 0 45 14t25 49l3 13h-227q-36 0 -65.5 9t-49.5 27t-28.5 46t-1.5 66l76 432h155l-70 -395q-4 -23 12.5 -32t36.5 -9
h187z" />
    <glyph glyph-name="OE" unicode="&#x152;" horiz-adv-x="1071" 
d="M251 230q-6 -34 5.5 -50.5t43.5 -16.5h148q25 0 42 15t22 45l58 328q10 66 -42 66h-148q-62 0 -72 -66zM698 309l-15 -86q-11 -60 42 -60h309l-28 -163h-366q-23 0 -43 4.5t-35 19.5q-20 -15 -41 -19.5t-44 -4.5h-270q-36 0 -65 11t-47.5 31t-26 49.5t-0.5 67.5l81 462
q7 37 24.5 67t43.5 50t58.5 31t68.5 11h270q23 0 42.5 -5.5t33.5 -21.5q21 16 42.5 21.5t44.5 5.5h366l-29 -163h-309q-54 0 -64 -66l-14 -79h352l-29 -163h-352z" />
    <glyph glyph-name="oe" unicode="&#x153;" horiz-adv-x="1035" 
d="M636 315l254 85q3 17 -3 26.5t-40 9.5h-116q-23 0 -38 -5t-24.5 -13.5t-14.5 -20.5t-8 -25zM222 206q-6 -34 9 -48.5t47 -14.5h114q26 0 45.5 14.5t25.5 48.5l29 167q6 35 -8.5 49t-40.5 14h-114q-32 0 -52 -14t-26 -49zM960 0h-364q-26 0 -48 6.5t-39 24.5
q-23 -18 -48 -24.5t-51 -6.5h-209q-36 0 -65.5 10t-49 30t-28 49.5t-1.5 67.5l48 272q7 38 25.5 66.5t45 47t59 28t68.5 9.5h209q26 0 49 -6t40 -23q23 17 48 23t51 6h211q36 0 64.5 -9.5t47.5 -28.5t26.5 -47.5t0.5 -66.5l-21 -120l-415 -137q-4 -21 18 -24.5t59 -3.5h294z
" />
    <glyph glyph-name="Scaron" unicode="&#x160;" horiz-adv-x="658" 
d="M616 1013l48 -59l-175 -140h-35l-124 139l68 59l92 -83zM505 477q36 0 65 -11t47.5 -31t25.5 -50t1 -67l-30 -167q-14 -75 -67 -113t-126 -38h-381l28 163h324q53 0 65 67l3 17q12 66 -41 66h-167q-36 0 -65 11t-47.5 31t-26 49.5t-0.5 67.5l27 157q14 75 67.5 113
t126.5 38h381l-29 -163h-324q-53 0 -65 -67l-1 -7q-12 -66 42 -66h167z" />
    <glyph glyph-name="scaron" unicode="&#x161;" horiz-adv-x="550" 
d="M514 813l47 -59l-174 -140h-35l-125 139l69 59l92 -83zM15 0l25 143h274q20 0 39 8.5t23 29.5q2 11 -1.5 18.5t-10.5 12t-17 6.5t-20 2h-108q-36 0 -65 10t-48.5 29.5t-28 48.5t-1.5 67l10 57q7 38 25 66t44.5 46t59 27t68.5 9h309l-26 -144h-269q-20 0 -39 -8t-23 -29
q-4 -20 13 -28t37 -8h108q36 0 65.5 -8.5t49.5 -26.5t28.5 -46t1.5 -66l-11 -61q-7 -38 -25.5 -67t-45 -48.5t-59 -29.5t-68.5 -10h-314z" />
    <glyph glyph-name="Ydieresis" unicode="&#x178;" horiz-adv-x="692" 
d="M507 916q3 18 12.5 33.5t23.5 27t30.5 18.5t34.5 7q35 0 56 -25.5t15 -60.5q-3 -18 -12.5 -33.5t-23.5 -27t-30.5 -18.5t-34.5 -7q-35 0 -56 25.5t-15 60.5zM295 916q3 18 12.5 33.5t23.5 27t30.5 18.5t34.5 7q35 0 56 -25.5t15 -60.5q-3 -18 -12.5 -33.5t-23.5 -27
t-30.5 -18.5t-34.5 -7q-35 0 -56 25.5t-15 60.5zM240 0l53 304l-176 476h188l105 -294l210 294h189l-345 -477l-53 -303h-171z" />
    <glyph glyph-name="Zcaron" unicode="&#x17d;" horiz-adv-x="653" 
d="M593 1013l48 -59l-175 -140h-35l-124 139l68 59l92 -83zM482 617h-344l29 163h482q59 0 80.5 -25.5t15.5 -60.5q-5 -23 -19.5 -47.5t-35.5 -46.5l-424 -437h343l-28 -163h-480q-59 0 -81 25.5t-15 61.5q4 21 16.5 44.5t37.5 48.5z" />
    <glyph glyph-name="zcaron" unicode="&#x17e;" horiz-adv-x="529" 
d="M496 813l47 -59l-174 -140h-35l-125 139l69 59l92 -83zM342 436h-263l26 144h442q38 0 49 -12t7 -30q-4 -23 -23.5 -49.5t-42.5 -50.5l-290 -294h263l-25 -144h-422q-45 0 -62 12.5t-13 33.5q3 20 21 45t44 51z" />
    <glyph glyph-name="florin" unicode="&#x192;" horiz-adv-x="383" 
d="M430 500l-26 -143h-93l-76 -432q-6 -36 -24.5 -63.5t-44 -45.5t-57 -27t-64.5 -9h-126l25 144h69q36 0 52.5 11.5t23.5 38.5l67 383h-93l26 143h93l23 135q7 36 25 63.5t44 45.5t57.5 27t64.5 9h127l-25 -144h-70q-36 0 -52.5 -11.5t-23.5 -38.5l-15 -86h93z" />
    <glyph glyph-name="circumflex" unicode="&#x2c6;" horiz-adv-x="387" 
d="M296 698l-122 -83l-48 59l174 139h35l125 -140l-68 -59z" />
    <glyph glyph-name="caron" unicode="&#x2c7;" horiz-adv-x="387" 
d="M290 728l122 83l48 -59l-174 -139h-35l-125 140l68 59z" />
    <glyph glyph-name="tilde" unicode="&#x2dc;" horiz-adv-x="368" 
d="M452 706q-12 -16 -28.5 -30t-33.5 -24t-32.5 -16t-27.5 -6t-26.5 5.5t-29 12.5t-29.5 12.5t-29 5.5t-31.5 -8.5t-33.5 -31.5l-28 75q25 35 61 56t65 21q15 0 30 -5.5t29 -11.5t28 -11.5t28 -5.5q11 0 28 6.5t35 29.5z" />
    <glyph glyph-name="endash" unicode="&#x2013;" horiz-adv-x="570" 
d="M55 369h550l-29 -163h-550z" />
    <glyph glyph-name="emdash" unicode="&#x2014;" horiz-adv-x="801" 
d="M55 369h781l-29 -163h-781z" />
    <glyph glyph-name="quoteleft" unicode="&#x2018;" horiz-adv-x="211" 
d="M111 632q3 21 13 34l91 114h91l-79 -102h12q26 0 37 -10.5t6 -35.5l-13 -75q-5 -25 -20.5 -35.5t-38.5 -10.5h-76q-20 0 -30.5 10t-5.5 36z" />
    <glyph glyph-name="quoteright" unicode="&#x2019;" horiz-adv-x="211" 
d="M287 659q-2 -10 -5 -19t-8 -15l-91 -114h-91l79 102h-12q-26 0 -37 10.5t-6 35.5l13 75q5 25 20.5 35.5t38.5 10.5h76q20 0 30.5 -10t5.5 -36z" />
    <glyph glyph-name="quotesinglbase" unicode="&#x201a;" horiz-adv-x="211" 
d="M179 46q-2 -10 -5 -19t-8 -15l-91 -114h-91l79 102h-12q-26 0 -37 10.5t-6 35.5l13 75q5 25 20.5 35.5t38.5 10.5h76q20 0 30.5 -10t5.5 -36z" />
    <glyph glyph-name="quotedblleft" unicode="&#x201c;" horiz-adv-x="417" 
d="M111 632q3 21 13 34l91 114h91l-79 -102h12q26 0 37 -10.5t6 -35.5l-13 -75q-5 -25 -20.5 -35.5t-38.5 -10.5h-76q-20 0 -30.5 10t-5.5 36zM317 632q3 21 13 34l91 114h91l-79 -102h12q26 0 37 -10.5t6 -35.5l-13 -75q-5 -25 -20.5 -35.5t-38.5 -10.5h-76q-20 0 -30.5 10
t-5.5 36z" />
    <glyph glyph-name="quotedblright" unicode="&#x201d;" horiz-adv-x="417" 
d="M493 659q-2 -10 -5 -19t-8 -15l-91 -114h-91l79 102h-12q-26 0 -37 10.5t-6 35.5l13 75q5 25 20.5 35.5t38.5 10.5h76q20 0 30.5 -10t5.5 -36zM287 659q-2 -10 -5 -19t-8 -15l-91 -114h-91l79 102h-12q-26 0 -37 10.5t-6 35.5l13 75q5 25 20.5 35.5t38.5 10.5h76
q20 0 30.5 -10t5.5 -36z" />
    <glyph glyph-name="quotedblbase" unicode="&#x201e;" horiz-adv-x="417" 
d="M385 46q-2 -10 -5 -19t-8 -15l-91 -114h-91l79 102h-12q-26 0 -37 10.5t-6 35.5l13 75q5 25 20.5 35.5t38.5 10.5h76q20 0 30.5 -10t5.5 -36zM179 46q-2 -10 -5 -19t-8 -15l-91 -114h-91l79 102h-12q-26 0 -37 10.5t-6 35.5l13 75q5 25 20.5 35.5t38.5 10.5h76
q20 0 30.5 -10t5.5 -36z" />
    <glyph glyph-name="dagger" unicode="&#x2020;" horiz-adv-x="399" 
d="M257 0h-155l83 473h-112l26 147h112l28 160h155l-28 -160h112l-26 -147h-112z" />
    <glyph glyph-name="daggerdbl" unicode="&#x2021;" horiz-adv-x="420" 
d="M351 473l-27 -152h112l-26 -148h-112l-30 -173h-156l30 173h-112l26 148h112l27 152h-112l26 147h112l28 160h156l-28 -160h112l-26 -147h-112z" />
    <glyph glyph-name="bullet" unicode="&#x2022;" horiz-adv-x="362" 
d="M61 350q6 36 22.5 67t41.5 53.5t56.5 35.5t68.5 13q36 0 64 -13t45.5 -35.5t23.5 -53.5t0 -67q-6 -37 -23.5 -67.5t-43 -52t-57.5 -33.5t-68 -12q-73 0 -108 46t-22 119z" />
    <glyph glyph-name="ellipsis" unicode="&#x2026;" horiz-adv-x="633" 
d="M601 46q-5 -26 -17.5 -36t-34.5 -10h-76q-26 0 -37 10.5t-6 35.5l13 75q5 25 20.5 35.5t38.5 10.5h76q20 0 30.5 -10t5.5 -36zM390 46q-5 -26 -17.5 -36t-34.5 -10h-76q-26 0 -37 10.5t-6 35.5l13 75q5 25 20.5 35.5t38.5 10.5h76q20 0 30.5 -10t5.5 -36zM179 46
q-5 -26 -17.5 -36t-34.5 -10h-76q-26 0 -37 10.5t-6 35.5l13 75q5 25 20.5 35.5t38.5 10.5h76q20 0 30.5 -10t5.5 -36z" />
    <glyph glyph-name="perthousand" unicode="&#x2030;" horiz-adv-x="1299" 
d="M1027 183q-3 -19 -4 -31t3.5 -19.5t15.5 -10.5t31 -3h12q19 0 31.5 3t20.5 10.5t12.5 20t7.5 31.5q4 21 4 34t-5 20.5t-16.5 10t-30.5 2.5h-12q-32 0 -47 -10.5t-19 -35.5zM1270 151q-14 -75 -63.5 -113t-129.5 -38h-30q-89 0 -121 42t-18 117l9 52q6 37 24 67t43.5 50
t58.5 31t69 11h30q36 0 65 -11t47.5 -31.5t25.5 -50t1 -66.5zM628 183q-3 -18 -4 -30.5t3.5 -20t15.5 -10.5t31 -3h13q19 0 31.5 3t20 10.5t12 20t7.5 31.5q4 21 4 34t-5 20.5t-16 10.5t-30 3h-13q-32 0 -47 -11t-19 -36zM231 577q-3 -19 -3.5 -31t4 -19.5t15.5 -10.5t31 -3
h12q19 0 31.5 3t20 10.5t12 20t7.5 31.5q4 21 4 34t-5 20.5t-16.5 10t-30.5 2.5h-12q-32 0 -46.5 -10.5t-19.5 -35.5zM871 152q-14 -76 -63.5 -114t-129.5 -38h-30q-89 0 -121 42t-18 117l9 52q6 37 24 67t43.5 50t58.5 31t69 11h30q36 0 65 -11t47.5 -31t25.5 -50t1 -67z
M475 545q-14 -75 -64 -113t-130 -38h-30q-89 0 -121 42t-18 117l9 52q7 37 24.5 67t43.5 50t58.5 31t68.5 11h30q73 0 112.5 -42.5t26.5 -116.5zM264 0h-135l622 781h141z" />
    <glyph glyph-name="guilsinglleft" unicode="&#x2039;" horiz-adv-x="296" 
d="M329 415l-120 -123l72 -116l-113 -77l-117 193l186 194z" />
    <glyph glyph-name="guilsinglright" unicode="&#x203a;" horiz-adv-x="296" 
d="M189 486l118 -194l-185 -193l-85 77l112 116l-76 123z" />
    <glyph glyph-name="Euro" unicode="&#x20ac;" horiz-adv-x="637" 
d="M252 236l-1 -6q-12 -67 41 -67h313l-28 -163h-370q-36 0 -65.5 9.5t-48.5 28.5t-26.5 47t-0.5 66l15 85h-60l23 127h60l9 53h-40l22 127h40l14 78q7 37 24.5 67t43.5 50t58.5 31t68.5 11h370l-29 -163h-313q-54 0 -64 -66l-2 -8h331l-22 -127h-331l-9 -53h311l-23 -127
h-311z" />
    <glyph glyph-name="trademark" unicode="&#x2122;" horiz-adv-x="655" 
d="M338 460l59 338h126l18 -186l78 186h126l-59 -338h-93l35 201l-82 -201h-69l-11 202l-35 -202h-93zM342 709h-67l-44 -249h-93l44 249h-67l15 89h227z" />
    <glyph glyph-name="glyph184" horiz-adv-x="333" 
d="M55 369h313l-29 -162h-313z" />
    </font>
</defs>
</svg>
