<?xml version="1.0" standalone="no"?>
<!DOCTYPE svg PUBLIC "-//W3C//DTD SVG 1.1//EN" "http://www.w3.org/Graphics/SVG/1.1/DTD/svg11.dtd" >
<svg>
<metadata>
Created by FontForge 20120731 at Wed Nov  8 00:41:06 2023
 By www
Copyright (c) 2013 by Eurotypo. All rights reserved.
</metadata>
<defs>
<font id="Dignus" horiz-adv-x="540" >
  <font-face 
    font-family="Dignus"
    font-weight="400"
    font-stretch="normal"
    units-per-em="1000"
    panose-1="2 0 5 3 5 0 0 2 0 4"
    ascent="791"
    descent="-209"
    x-height="467"
    cap-height="637"
    bbox="-235 -231 1270 815"
    underline-thickness="51"
    underline-position="-47"
    unicode-range="U+0020-FB04"
  />
<missing-glyph horiz-adv-x="702" 
d="M118 0v637h469v-637h-469zM352 359l160 232h-319zM381 318l159 -232v465zM164 86l160 232l-160 233v-465zM193 45h319l-160 233z" />
    <glyph glyph-name=".notdef" horiz-adv-x="702" 
d="M118 0v637h469v-637h-469zM352 359l160 232h-319zM381 318l159 -232v465zM164 86l160 232l-160 233v-465zM193 45h319l-160 233z" />
    <glyph glyph-name=".null" horiz-adv-x="0" 
 />
    <glyph glyph-name="nonmarkingreturn" horiz-adv-x="333" 
 />
    <glyph glyph-name="space" unicode=" " horiz-adv-x="264" 
 />
    <glyph glyph-name="exclam" unicode="!" horiz-adv-x="226" 
d="M70 475v162h82v-162l-14 -332h-53zM146 83v-83h-70v83h70z" />
    <glyph glyph-name="quotedbl" unicode="&#x22;" horiz-adv-x="212" 
d="M77 475h-39l-11 162h61zM173 475h-39l-11 162h61z" />
    <glyph glyph-name="numbersign" unicode="#" horiz-adv-x="573" 
d="M382 233l-29 -199h-41l29 199h-118l-27 -199h-42l27 199h-108l6 40h108l16 112h-109l6 41h108l26 183h41l-25 -183h118l24 183h42l-26 -183h113l-5 -41h-112l-16 -112h112l-5 -40h-113zM362 385h-118l-15 -112h119z" />
    <glyph glyph-name="dollar" unicode="$" horiz-adv-x="593" 
d="M333 697v-52q49 -1 80.5 -7t61 -23.5t43 -53.5t13.5 -93h-72q-5 65 -28.5 88t-97.5 25v-223q39 -4 62 -7.5t55 -14.5t49.5 -28t30.5 -47.5t13 -72.5q0 -113 -49.5 -152.5t-160.5 -42.5v-100h-53v99q-47 1 -80 7t-66.5 24t-51 56t-17.5 96v29h73q0 -89 28.5 -118
t113.5 -30v241q-37 4 -61 8t-54.5 15.5t-48 29.5t-30 50t-12.5 76q0 96 50 131.5t156 37.5v52h53zM471 183q0 57 -35.5 80t-102.5 30v-237q73 2 105.5 27.5t32.5 99.5zM146 480q0 -58 34.5 -82t99.5 -33v217q-71 -2 -102.5 -21t-31.5 -81z" />
    <glyph glyph-name="percent" unicode="%" horiz-adv-x="958" 
d="M623 637l-266 -637h-39l264 637h41zM591 244q0 148 151 148t151 -148v-105q0 -72 -44.5 -108t-106.5 -36t-106.5 35t-44.5 109v105zM840 147v95q0 60 -27 80.5t-71 20.5t-71 -20.5t-27 -80.5v-95q0 -102 98 -102t98 102zM60 493q0 148 151 148t151 -148v-105
q0 -72 -44.5 -108t-106.5 -36t-106.5 35t-44.5 109v105zM309 396v95q0 60 -27 80.5t-71 20.5t-71 -20.5t-27 -80.5v-95q0 -102 98 -102t98 102z" />
    <glyph glyph-name="ampersand" unicode="&#x26;" horiz-adv-x="663" 
d="M415 322v59h195v-59h-70v-125q0 -46 -7 -75l84 -80l-39 -48l-72 64q-28 -39 -80.5 -52.5t-140.5 -13.5h-9q-128 0 -175.5 41.5t-47.5 163.5q0 72 27 114t93 65q-38 32 -55.5 62t-17.5 76q0 69 53 100t139 31q76 0 148 -13v-68q-70 20 -148 20q-60 0 -92 -14.5t-32 -54.5
q0 -35 33 -73t171 -169q62 -58 99 -94q1 6 1 19v124h-57zM217 335q-50 -17 -71.5 -45t-21.5 -92q0 -87 26 -114.5t113 -27.5h35q70 0 105.5 10t51.5 39z" />
    <glyph glyph-name="quotesingle" unicode="'" horiz-adv-x="78" 
d="M58 475h-39l-11 162h61z" />
    <glyph glyph-name="parenleft" unicode="(" horiz-adv-x="313" 
d="M70 127v213q0 124 47.5 207t120.5 98l17 -44q-58 -30 -86 -93.5t-28 -182.5v-183q0 -119 28 -182.5t86 -93.5l-17 -44q-73 15 -120.5 98t-47.5 207z" />
    <glyph glyph-name="parenright" unicode=")" horiz-adv-x="303" 
d="M255 340v-213q0 -124 -48 -207t-121 -98l-16 44q57 30 85 93.5t28 182.5v183q0 119 -28 182.5t-85 93.5l16 44q73 -15 121 -98t48 -207z" />
    <glyph glyph-name="asterisk" unicode="*" horiz-adv-x="580" 
d="M460 523l-118 -50l65 -116l-37 -29l-78 105l-85 -105l-37 29l68 116l-116 53l15 42l120 -29l11 128h46l9 -130l122 32z" />
    <glyph glyph-name="plus" unicode="+" horiz-adv-x="473" 
d="M30 385h186v203h40v-203h187v-41h-187v-203h-40v203h-186v41z" />
    <glyph glyph-name="comma" unicode="," horiz-adv-x="190" 
d="M78 0h-19v83h70v-58q0 -40 -10.5 -85.5t-23.5 -70.5h-60l11 19q10 18 21 51t11 61z" />
    <glyph glyph-name="hyphen" unicode="-" horiz-adv-x="328" 
d="M75 300h197v-60h-197v60z" />
    <glyph glyph-name="period" unicode="." horiz-adv-x="187" 
d="M129 83v-83h-70v83h70z" />
    <glyph glyph-name="slash" unicode="/" horiz-adv-x="612" 
d="M28 -5l512 656l36 -33l-511 -657z" />
    <glyph glyph-name="zero" unicode="0" horiz-adv-x="644" 
d="M75 405q0 240 247 240q246 0 246 -240v-179q0 -61 -21.5 -107.5t-57.5 -73.5t-78 -40t-89 -13t-89 12.5t-78.5 38.5t-58 73t-21.5 110v179zM496 240v162q0 56 -14.5 93.5t-41 55.5t-54 24.5t-64.5 6.5t-64.5 -6.5t-54.5 -24.5t-41.5 -55.5t-14.5 -93.5v-162
q0 -184 175 -184q174 0 174 184z" />
    <glyph glyph-name="one" unicode="1" horiz-adv-x="463" 
d="M83 0v63h147v511h-184v63h256v-574h114v-63h-333z" />
    <glyph glyph-name="two" unicode="2" horiz-adv-x="589" 
d="M521 63v-63h-456v88q0 61 21.5 102t55.5 61t75 32.5t82.5 23.5t75.5 26.5t55.5 48t21.5 81.5q0 76 -29 97t-123 21q-28 0 -43.5 -0.5t-35.5 -3t-29.5 -6.5t-21.5 -12.5t-17 -20.5t-10 -30t-6.5 -41.5t-1.5 -54.5h-70q0 35 0.5 55t4 46t9.5 40.5t17.5 32t28.5 26.5
t41.5 17.5t57.5 12t76 3.5q123 0 173 -36.5t50 -145.5q0 -63 -21.5 -105.5t-55.5 -62.5t-75 -32.5t-82 -23t-75 -26t-55.5 -48.5t-21.5 -84v-18h384z" />
    <glyph glyph-name="three" unicode="3" horiz-adv-x="613" 
d="M239 300v58h54q31 0 44.5 0.5t34.5 2.5t30 6t20.5 12t15.5 20.5t7.5 30t3.5 41.5q0 32 -6 52.5t-15.5 32.5t-32 17.5t-42.5 7t-60 1.5q-33 0 -51.5 -1t-41.5 -7t-35 -17t-20.5 -32.5t-8.5 -52.5v-15h-72q0 116 48 152t181 36q67 0 105 -5.5t68.5 -23.5t42.5 -53.5
t12 -94.5t-16.5 -89t-62.5 -45v-5q52 -8 69 -40.5t17 -99.5q0 -124 -46.5 -160.5t-190.5 -36.5q-48 0 -76.5 1.5t-59 8t-46 19.5t-29.5 35.5t-19 55.5t-5 81h71v-6q0 -32 3 -53.5t13.5 -36t20.5 -22.5t32.5 -11.5t41 -4.5t55.5 -1q104 0 135 22.5t31 103.5q0 34 -6.5 56
t-15.5 34t-32 17.5t-43 7t-62 1.5h-7h-54z" />
    <glyph glyph-name="four" unicode="4" horiz-adv-x="590" 
d="M452 637v-420h101v-63h-101v-154h-70v154h-361v56l343 427h88zM382 217v348l-274 -348h274z" />
    <glyph glyph-name="five" unicode="5" horiz-adv-x="588" 
d="M495 637v-65h-315l-24 -167q62 16 156 16q108 0 164 -43t56 -151q0 -74 -8 -116t-33.5 -70.5t-69.5 -38.5t-120 -10q-52 0 -83.5 3t-64 13.5t-49.5 32t-28 58.5t-11 92h71q0 -83 25.5 -108t103.5 -25h28q50 0 77 3.5t50 17t31 40t8 72.5q0 45 -4 70.5t-19 49.5t-47.5 34
t-85.5 10q-102 0 -158 -22l-67 10l42 294h375z" />
    <glyph glyph-name="six" unicode="6" horiz-adv-x="615" 
d="M542 493v-18h-70q0 70 -29.5 88.5t-113.5 18.5q-47 0 -73.5 -3t-51 -15t-34.5 -37.5t-10 -67.5v-107q38 43 185 43q61 0 98.5 -7t65.5 -27t39 -56.5t11 -96.5q0 -127 -53 -170t-181 -43q-69 0 -111 9t-72 34.5t-42 71t-12 118.5v241q0 45 13 78t33 51.5t53 29t65 13.5
t77 3q40 0 64 -1.5t56 -9.5t49.5 -23t30.5 -45t13 -72zM160 216q0 -57 4 -83.5t24 -46t53.5 -24t100.5 -4.5q45 0 67.5 3t43 15.5t27.5 38t7 69.5q0 35 -1 52.5t-5.5 37.5t-13 28t-25.5 16.5t-41 10.5t-60 2q-34 0 -55 -1.5t-47.5 -7.5t-42 -18t-26 -34t-10.5 -54z" />
    <glyph glyph-name="seven" unicode="7" horiz-adv-x="497" 
d="M488 637v-63l-325 -574h-84l332 574h-385v63h462z" />
    <glyph glyph-name="eight" unicode="8" horiz-adv-x="636" 
d="M552 185q0 -112 -51.5 -152.5t-182.5 -40.5q-134 0 -184 40t-50 153q0 67 17.5 100.5t69.5 41.5v5q-46 15 -63 47.5t-17 91.5q0 58 12 93t43 53t68.5 23t103.5 5q67 0 104.5 -5t68 -23t42.5 -53t12 -93q0 -59 -17 -91.5t-63 -47.5v-5q53 -8 70 -41.5t17 -100.5zM154 184
q0 -81 30.5 -103.5t133.5 -22.5t134 23t31 103q0 24 -3.5 41.5t-7.5 30t-16.5 20.5t-21.5 12t-31.5 6t-37 2.5t-47.5 0.5t-47.5 -0.5t-37 -2.5t-31 -6t-21 -12t-16.5 -20.5t-7.5 -30t-3.5 -41.5zM473 471q0 32 -6.5 52.5t-16 32.5t-31 17.5t-42.5 7t-59 1.5t-59 -1.5
t-42.5 -7t-31 -17.5t-16 -32.5t-6.5 -52.5q0 -76 31.5 -94.5t123.5 -18.5t123.5 18.5t31.5 94.5z" />
    <glyph glyph-name="nine" unicode="9" horiz-adv-x="615" 
d="M72 146v18h70q0 -70 29.5 -88.5t114.5 -18.5q47 0 73 3t50.5 15t34.5 37.5t10 67.5v107q-37 -43 -184 -43q-61 0 -98.5 7t-65.5 27t-39 56.5t-11 96.5q0 66 13 108t43.5 65t71.5 31.5t106 8.5q69 0 110.5 -9t71.5 -35t42 -71t12 -118v-241q0 -56 -17.5 -92.5t-53.5 -53.5
t-74 -23t-95 -6q-41 0 -64.5 1.5t-56 9.5t-50 23t-30.5 45t-13 72zM454 423q0 57 -4 83.5t-23.5 46t-53 24t-100.5 4.5q-45 0 -68 -3t-43.5 -15.5t-27.5 -38t-7 -69.5q0 -41 2 -61t9 -40.5t23.5 -28.5t42.5 -12.5t70 -4.5q34 0 55 1.5t47.5 7.5t41.5 18t25.5 34t10.5 54z
" />
    <glyph glyph-name="colon" unicode=":" horiz-adv-x="187" 
d="M129 467v-83h-70v83h70zM129 83v-83h-70v83h70z" />
    <glyph glyph-name="semicolon" unicode=";" horiz-adv-x="204" 
d="M78 0h-19v83h70v-58q0 -40 -10.5 -85.5t-23.5 -70.5h-60l11 19q10 18 21 51t11 61zM129 467v-83h-70v83h70z" />
    <glyph glyph-name="less" unicode="&#x3c;" horiz-adv-x="473" 
d="M442 558v-63l-333 -160l333 -161v-62l-412 204v38z" />
    <glyph glyph-name="equal" unicode="=" horiz-adv-x="516" 
d="M53 456h414v-41h-414v41zM53 315h414v-41h-414v41z" />
    <glyph glyph-name="greater" unicode="&#x3e;" horiz-adv-x="473" 
d="M31 112v62l333 161l-333 161v62l412 -205v-37z" />
    <glyph glyph-name="question" unicode="?" horiz-adv-x="492" 
d="M184 143v41q0 47 11 79t28 47.5t38 25t42 17.5t38 19.5t28 35.5t11 61q0 76 -22 94t-105 18q-66 0 -94 -19t-28 -87v-21h-66q2 113 38 152t148 39q57 0 88 -4.5t58.5 -21t38 -51t10.5 -91.5q0 -53 -10.5 -88.5t-27.5 -52t-37 -26t-40.5 -16.5t-37.5 -17t-27.5 -33
t-10.5 -60v-41h-71zM255 83v-83h-71v83h71z" />
    <glyph glyph-name="at" unicode="@" horiz-adv-x="800" 
d="M553 411v-265q0 -18 13 -31.5t31 -13.5h19q62 0 62 86v113q0 124 -61.5 172.5t-183.5 48.5h-67q-122 0 -183 -48.5t-61 -172.5v-140q0 -67 17.5 -112t52.5 -68t76 -32t98 -9h218v-59h-225q-60 0 -110 13.5t-92.5 42.5t-67 82.5t-24.5 127.5v165q0 73 23 126t64.5 83.5
t92.5 44.5t114 14h81q131 0 212.5 -63.5t81.5 -203.5v-133q0 -32 -8.5 -60.5t-35.5 -52.5t-69 -24h-31q-64 0 -90 47h-4q-19 -21 -50 -36.5t-62 -15.5q-78 0 -115.5 38t-37.5 107v91q0 72 43.5 115t127.5 43q40 0 77.5 -5t55.5 -10zM294 277v-92q0 -92 94 -92
q32 0 60.5 20.5t40.5 41.5v209q-49 12 -87 12q-51 0 -79.5 -27t-28.5 -72z" />
    <glyph glyph-name="A" unicode="A" horiz-adv-x="581" 
d="M332 637l229 -637h-77l-55 164h-277l-55 -164h-77l229 637h83zM173 227h235l-115 347h-4z" />
    <glyph glyph-name="B" unicode="B" horiz-adv-x="656" 
d="M94 0v637h297q87 0 129 -35.5t42 -115.5q0 -59 -15 -92t-62 -53v-4q54 -18 75 -52t21 -96q0 -95 -36.5 -142t-127.5 -47h-323zM166 63h195q85 0 115.5 23.5t30.5 101.5q0 52 -28 82t-85 30h-228v-237zM166 363h203q70 0 95 25t25 92q0 48 -24.5 71t-80.5 23h-218v-211z
" />
    <glyph glyph-name="C" unicode="C" horiz-adv-x="619" 
d="M491 220v6h72v-9q0 -60 -10.5 -100.5t-28 -65t-50 -37.5t-66 -17t-86.5 -5h-15q-44 1 -73.5 3.5t-59.5 11t-48 23.5t-33 39.5t-21.5 61t-6.5 86.5v203q0 50 6.5 86.5t21.5 61t33 39.5t48 23.5t59.5 11t73.5 3.5h15q63 -1 101 -7.5t71.5 -26t49 -58.5t18.5 -103h-72
q-3 47 -12 73.5t-33 39.5t-48 16t-75 3h-15q-31 0 -49 -1t-39 -4.5t-31.5 -10.5t-22 -18t-16.5 -29t-8 -43t-3 -59v-197q0 -34 3 -59t8 -43t16.5 -29t22 -18t31.5 -10.5t39 -4.5t49 -1h15q37 0 56.5 1.5t42 6.5t33 15.5t20.5 29t13.5 45.5t3.5 67z" />
    <glyph glyph-name="D" unicode="D" horiz-adv-x="658" 
d="M593 365v-93q0 -148 -47.5 -210t-184.5 -62h-267v637h267q137 0 184.5 -62t47.5 -210zM166 574v-511h194q24 0 43.5 2t35 7.5t27.5 10.5t20.5 17t14.5 20t10 26.5t6 30t3 36.5t1 39.5v46.5v40q0 39 -0.5 57t-2 47.5t-6 42t-12 31t-19 26.5t-28.5 16.5t-40 11.5t-53 3
h-194z" />
    <glyph glyph-name="E" unicode="E" horiz-adv-x="547" 
d="M166 574v-211h320v-63h-320v-237h335v-63h-407v637h407v-63h-335z" />
    <glyph glyph-name="F" unicode="F" horiz-adv-x="509" 
d="M166 574v-211h308v-63h-308v-300h-72v637h388v-63h-316z" />
    <glyph glyph-name="G" unicode="G" horiz-adv-x="619" 
d="M491 220v48h-134v63h206v-114q0 -60 -10.5 -100.5t-28 -65t-50 -37.5t-66 -17t-86.5 -5h-15q-44 1 -73.5 3.5t-59.5 11t-48 23.5t-33 39.5t-21.5 61t-6.5 86.5v203q0 50 6.5 86.5t21.5 61t33 39.5t48 23.5t59.5 11t73.5 3.5h15q63 -1 101 -7.5t71.5 -26t49 -58.5
t18.5 -103h-72q-3 47 -12 73.5t-33 39.5t-48 16t-75 3h-15q-31 0 -49 -1t-39 -4.5t-31.5 -10.5t-22 -18t-16.5 -29t-8 -43t-3 -59v-197q0 -34 3 -59t8 -43t16.5 -29t22 -18t31.5 -10.5t39 -4.5t49 -1h15q37 0 56.5 1.5t42 6.5t33 15.5t20.5 29t13.5 45.5t3.5 67z" />
    <glyph glyph-name="H" unicode="H" horiz-adv-x="667" 
d="M166 0h-72v637h72v-274h335v274h72v-637h-72v300h-335v-300z" />
    <glyph glyph-name="I" unicode="I" horiz-adv-x="260" 
d="M166 0h-72v637h72v-637z" />
    <glyph glyph-name="J" unicode="J" horiz-adv-x="484" 
d="M18 179v21h72v-24q0 -77 22.5 -99t85.5 -22h12q63 0 85.5 22t22.5 99v461h72v-458q0 -104 -40.5 -145.5t-139.5 -41.5h-12q-99 0 -139.5 41.5t-40.5 145.5z" />
    <glyph glyph-name="K" unicode="K" horiz-adv-x="573" 
d="M166 0h-72v637h72v-271h37l231 271h83l-252 -298l302 -339h-87l-279 310h-35v-310z" />
    <glyph glyph-name="L" unicode="L" horiz-adv-x="497" 
d="M488 0h-394v637h72v-574h322v-63z" />
    <glyph glyph-name="M" unicode="M" horiz-adv-x="735" 
d="M397 170h-59l-168 399h-4l-28 -569h-73l29 637h118l154 -367h4l153 367h118l29 -637h-73l-28 569h-4z" />
    <glyph glyph-name="N" unicode="N" horiz-adv-x="668" 
d="M574 637v-637h-116l-288 565h-4v-565h-72v637h117l286 -571h5v571h72z" />
    <glyph glyph-name="O" unicode="O" horiz-adv-x="629" 
d="M65 420q0 50 6.5 86.5t21.5 61t33 39.5t48 23.5t59.5 11t73.5 3.5h15q53 -1 86.5 -5t66 -17t50 -37.5t28 -65t10.5 -100.5v-203q0 -60 -10.5 -100.5t-28 -65t-50 -37.5t-66 -17t-86.5 -5h-15q-44 1 -73.5 3.5t-59.5 11t-48 23.5t-33 39.5t-21.5 61t-6.5 86.5v203z
M491 220v197q0 40 -3.5 67t-13.5 45.5t-20.5 29t-33 15.5t-42 6.5t-56.5 1.5h-15q-31 0 -49 -1t-39 -4.5t-31.5 -10.5t-22 -18t-16.5 -29t-8 -43t-3 -59v-197q0 -34 3 -59t8 -43t16.5 -29t22 -18t31.5 -10.5t39 -4.5t49 -1h15q37 0 56.5 1.5t42 6.5t33 15.5t20.5 29
t13.5 45.5t3.5 67z" />
    <glyph glyph-name="P" unicode="P" horiz-adv-x="609" 
d="M94 0v637h288q100 0 143.5 -43.5t43.5 -149.5q0 -61 -13.5 -100.5t-41.5 -59.5t-61.5 -27.5t-84.5 -7.5h-202v-249h-72zM166 312h192q78 0 107.5 21t29.5 93q0 81 -20 114.5t-92 33.5h-217v-262z" />
    <glyph glyph-name="Q" unicode="Q" horiz-adv-x="629" 
d="M65 420q0 50 6.5 86.5t21.5 61t33 39.5t48 23.5t59.5 11t73.5 3.5h15q53 -1 86.5 -5t66 -17t50 -37.5t28 -65t10.5 -100.5v-203q0 -69 -13 -113t-42 -67.5t-64.5 -32.5t-92.5 -11v-24q0 -40 15.5 -60.5t52.5 -20.5h58v-58h-51q-75 0 -109 30.5t-34 108.5v24
q-59 2 -95.5 10t-66.5 31.5t-43 68t-13 114.5v203zM491 220v197q0 40 -3.5 67t-13.5 45.5t-20.5 29t-33 15.5t-42 6.5t-56.5 1.5h-15q-31 0 -49 -1t-39 -4.5t-31.5 -10.5t-22 -18t-16.5 -29t-8 -43t-3 -59v-197q0 -34 3 -59t8 -43t16.5 -29t22 -18t31.5 -10.5t39 -4.5t49 -1
h15q37 0 56.5 1.5t42 6.5t33 15.5t20.5 29t13.5 45.5t3.5 67z" />
    <glyph glyph-name="R" unicode="R" horiz-adv-x="658" 
d="M94 0v637h286q101 0 141.5 -38t40.5 -143q0 -134 -79 -155v-4q86 -13 86 -127v-170h-73v153q0 64 -28 89t-92 25h-210v-267h-72zM166 330h187q135 0 135 120q0 72 -20 98t-94 26h-208v-244z" />
    <glyph glyph-name="S" unicode="S" horiz-adv-x="609" 
d="M303 645q40 0 63.5 -1.5t53.5 -6.5t47 -16.5t33.5 -30.5t23.5 -49.5t7 -72.5h-72q-5 70 -33 92t-121 22q-35 0 -55 -1t-43 -6.5t-34.5 -16t-19 -30t-7.5 -48.5q0 -44 22 -69.5t57 -35t77 -13.5t84.5 -10.5t77.5 -20.5t57 -50t22 -93q0 -64 -15 -104t-50.5 -60t-76 -26
t-108.5 -6q-39 0 -67 2.5t-60.5 13.5t-53 30t-34 53.5t-13.5 83.5v29h73q0 -90 29.5 -119t118.5 -29h22q88 0 125.5 24t37.5 103q0 43 -22 67.5t-57 32.5t-77 11t-84.5 9.5t-77.5 21.5t-57 53t-22 98q0 101 55 135t174 34z" />
    <glyph glyph-name="T" unicode="T" horiz-adv-x="500" 
d="M288 574v-574h-72v574h-208v63h483v-63h-203z" />
    <glyph glyph-name="U" unicode="U" horiz-adv-x="646" 
d="M489 226v411h72v-414q0 -131 -53 -181t-188 -50h-13q-135 0 -188.5 50.5t-53.5 180.5v414h73v-411q0 -56 8.5 -90t31.5 -51.5t51 -23t78 -5.5h13q50 0 78 5.5t51 23t31.5 51.5t8.5 90z" />
    <glyph glyph-name="V" unicode="V" horiz-adv-x="547" 
d="M275 87l192 550h77l-229 -637h-83l-229 637h77q1 -1 192 -550h3z" />
    <glyph glyph-name="W" unicode="W" horiz-adv-x="821" 
d="M206 92h4l156 545h88l157 -545h4l88 545h77l-118 -637h-87l-164 560h-4l-161 -560h-87q-104 557 -118 637h77q76 -466 88 -545z" />
    <glyph glyph-name="X" unicode="X" horiz-adv-x="607" 
d="M560 637l-193 -305l211 -332h-84l-187 293l-191 -293h-88l221 332l-201 305h87l172 -268l170 268h83z" />
    <glyph glyph-name="Y" unicode="Y" horiz-adv-x="533" 
d="M521 637l-222 -371v-266h-72v266l-215 371h83l171 -300l170 300h85z" />
    <glyph glyph-name="Z" unicode="Z" horiz-adv-x="539" 
d="M497 637v-57l-375 -513v-4h382v-63h-475v57l376 513v4h-365v63h457z" />
    <glyph glyph-name="bracketleft" unicode="[" horiz-adv-x="261" 
d="M51 637h162v-57h-91v-693h91v-57h-162v807z" />
    <glyph glyph-name="backslash" unicode="\" horiz-adv-x="612" 
d="M65 651l511 -656l-37 -34l-511 657z" />
    <glyph glyph-name="bracketright" unicode="]" horiz-adv-x="261" 
d="M49 637h162v-807h-162v57h92v693h-92v57z" />
    <glyph glyph-name="asciicircum" unicode="^" horiz-adv-x="473" 
d="M236 584l-123 -215h-69l151 268h84l150 -268h-70z" />
    <glyph glyph-name="underscore" unicode="_" horiz-adv-x="473" 
d="M-1 -72h475v-60h-475v60z" />
    <glyph glyph-name="grave" unicode="`" horiz-adv-x="473" 
d="M307 537l-38 -19q-41 61 -63 94t-21 33h73z" />
    <glyph glyph-name="a" unicode="a" horiz-adv-x="503" 
d="M428 312v-312h-64v44h-4q-55 -52 -143 -52q-82 0 -128.5 33t-46.5 115q0 70 55 105.5t133 35.5q40 0 72.5 -1.5t45.5 -2.5l12 -1v17q0 85 -22 106.5t-105 21.5q-37 0 -73.5 -6t-54.5 -11l-18 -6v62q69 15 149 15q101 0 146.5 -32t45.5 -131zM110 137q0 -91 103 -91
q35 0 64.5 5.5t56 27t26.5 57.5v91h-124q-50 0 -88 -20.5t-38 -69.5z" />
    <glyph glyph-name="b" unicode="b" 
d="M285 -8q-54 0 -104 7t-73 14l-24 7v617h69v-162l-2 -37h4q50 37 130 37q117 0 156 -47t39 -194q0 -145 -38 -193.5t-157 -48.5zM411 234q0 47 -1.5 72t-8 51t-20.5 37.5t-37 19t-59 7.5q-44 0 -79.5 -13.5t-52.5 -28.5v-311q45 -22 132 -22q30 0 51 4t35 15.5t22 24
t12 37t5 46.5t1 61z" />
    <glyph glyph-name="c" unicode="c" horiz-adv-x="514" 
d="M263 475q105 0 147.5 -32.5t51.5 -121.5h-68q-5 55 -32.5 77.5t-98.5 22.5q-39 0 -64 -7.5t-39.5 -19t-21 -38.5t-8 -50.5t-1.5 -71.5q0 -34 0.5 -52.5t3 -42.5t8 -35.5t15 -25t24 -19t35 -9.5t48.5 -4q73 0 100 24.5t32 85.5h68q-8 -96 -50 -130t-150 -34
q-125 0 -163.5 48t-38.5 194t38.5 193.5t163.5 47.5z" />
    <glyph glyph-name="d" unicode="d" 
d="M255 -8q-118 0 -156 48.5t-38 193.5q0 147 39 194t155 47q76 0 130 -38l3 1v199h68v-637h-62l-2 41h-4q-18 -18 -54 -33.5t-79 -15.5zM129 234q0 -46 1.5 -71.5t8.5 -51.5t20.5 -38t36.5 -19.5t59 -7.5q39 0 72 13t47 25l14 13v282q-18 15 -53.5 28.5t-79.5 13.5
t-69.5 -9t-38 -35t-15.5 -55.5t-3 -87.5z" />
    <glyph glyph-name="e" unicode="e" horiz-adv-x="512" 
d="M263 -8q-125 0 -163.5 48t-38.5 194t38.5 193.5t163.5 47.5t163.5 -47.5t38.5 -193.5v-13h-336q0 -42 2 -66t9 -48t21.5 -35.5t39 -18.5t62.5 -7q27 0 57 5t53 12t42 14.5t29 12.5l11 4v-62q-3 -1 -17.5 -6.5t-24.5 -8.5t-29 -8.5t-35.5 -8.5t-39.5 -5.5t-46 -2.5z
M129 275h268q-1 43 -5.5 67t-18.5 44t-40 27.5t-70 7.5t-70 -7.5t-40 -27.5t-18.5 -44t-5.5 -67z" />
    <glyph glyph-name="f" unicode="f" horiz-adv-x="310" 
d="M272 591q-58 0 -83.5 -25.5t-25.5 -88.5v-10h136v-54h-136v-413h-68v413h-68v54h68q0 178 177 178h56v-54h-56z" />
    <glyph glyph-name="g" unicode="g" 
d="M255 -8q-118 0 -156 48.5t-38 193.5q0 147 39 194t155 47q47 0 82.5 -12.5t51.5 -24.5l3 29h64v-459q0 -103 -47 -140.5t-150 -37.5h-75v58h68q74 0 105 20.5t31 93.5v39q-18 -18 -54.5 -33.5t-78.5 -15.5zM129 234q0 -46 1.5 -71.5t8.5 -51.5t20.5 -38t36.5 -19.5
t59 -7.5q39 0 72 13t47 25l14 13v282q-18 15 -53.5 28.5t-79.5 13.5t-69.5 -9t-38 -35t-15.5 -55.5t-3 -87.5z" />
    <glyph glyph-name="h" unicode="h" 
d="M153 0h-69v637h69v-216q23 19 63.5 36.5t85.5 17.5q78 0 120.5 -40t42.5 -108v-327h-68v306q0 60 -24.5 85.5t-81.5 25.5q-41 0 -75.5 -14.5t-48.5 -29.5l-14 -15v-358z" />
    <glyph glyph-name="i" unicode="i" horiz-adv-x="237" 
d="M153 467v-467h-69v467h69zM153 637v-71h-69v71h69z" />
    <glyph glyph-name="j" unicode="j" horiz-adv-x="218" 
d="M134 467v-498q0 -78 -34 -108.5t-109 -30.5h-82v58h89q38 0 52.5 17.5t14.5 57.5v504h69zM134 637v-71h-69v71h69z" />
    <glyph glyph-name="k" unicode="k" horiz-adv-x="453" 
d="M153 637v-352h4l189 182h80l-188 -179l208 -288h-81l-171 245l-41 -39v-206h-69v637h69z" />
    <glyph glyph-name="l" unicode="l" horiz-adv-x="309" 
d="M75 139v498h68v-504q0 -40 15 -57.5t53 -17.5h89v-58h-83q-74 0 -108 30.5t-34 108.5z" />
    <glyph glyph-name="m" unicode="m" horiz-adv-x="825" 
d="M84 467h69v-46q21 18 62.5 36t86.5 18q103 0 135 -67q74 67 160 67t119.5 -38t33.5 -123v-314h-68v318q0 57 -21 78t-71 21q-26 0 -50 -7t-39 -16.5t-26 -19.5t-16 -17l-5 -7v-350h-68v306q0 62 -20 86.5t-75 24.5q-41 0 -75.5 -14.5t-48.5 -29.5l-14 -15v-358h-69v467z
" />
    <glyph glyph-name="n" unicode="n" 
d="M84 467h69v-46q23 19 63.5 36.5t85.5 17.5q78 0 120.5 -40t42.5 -108v-327h-68v306q0 60 -24.5 85.5t-81.5 25.5q-41 0 -75.5 -14.5t-48.5 -29.5l-14 -15v-358h-69v467z" />
    <glyph glyph-name="o" unicode="o" horiz-adv-x="526" 
d="M465 234q0 -146 -38.5 -194t-163.5 -48t-163.5 48t-38.5 194t38.5 193.5t163.5 47.5t163.5 -47.5t38.5 -193.5zM397 234q0 48 -1.5 71.5t-8 50.5t-21 38.5t-39.5 19t-64 7.5t-64 -7.5t-39.5 -19t-21 -38.5t-8 -50.5t-1.5 -71.5q0 -34 0.5 -52.5t3 -42.5t8 -35.5t15 -25
t24 -19t35 -9.5t48.5 -4t48.5 4t35 9.5t24 19t15 25t8 35.5t3 42.5t0.5 52.5z" />
    <glyph glyph-name="p" unicode="p" 
d="M285 -8q-45 0 -82.5 12t-51.5 28v-202h-67v637h64l3 -29q17 11 59 24t88 13q70 0 107 -18t56 -70.5t19 -152.5q0 -145 -38 -193.5t-157 -48.5zM411 234q0 47 -1.5 72t-8 51t-20.5 37.5t-37 19t-59 7.5q-44 0 -79.5 -13.5t-52.5 -28.5v-281q5 -6 15 -14.5t44 -23t73 -14.5
q30 0 51 4t35 15.5t22 24t12 37t5 46.5t1 61z" />
    <glyph glyph-name="q" unicode="q" 
d="M255 -8q-118 0 -156 48.5t-38 193.5q0 147 39 194t155 47q47 0 82.5 -12.5t51.5 -24.5l3 29h64v-637h-67v170l3 41h-4q-18 -18 -54 -33.5t-79 -15.5zM129 234q0 -46 1.5 -71.5t8.5 -51.5t20.5 -38t36.5 -19.5t59 -7.5q39 0 72 13t47 25l14 13v282q-18 15 -53.5 28.5
t-79.5 13.5t-69.5 -9t-38 -35t-15.5 -55.5t-3 -87.5z" />
    <glyph glyph-name="r" unicode="r" horiz-adv-x="315" 
d="M84 467h65v-49q54 49 129 49h38v-61q-18 2 -49 2q-41 0 -69.5 -12.5t-36.5 -25.5l-8 -12v-358h-69v467z" />
    <glyph glyph-name="s" unicode="s" horiz-adv-x="458" 
d="M244 421q-121 0 -121 -70q0 -31 30 -48t73.5 -26t86.5 -20t73 -39.5t30 -75.5q0 -46 -14.5 -77t-43 -46.5t-59.5 -21t-75 -5.5q-112 0 -182 34l20 56q19 -10 66 -23t94 -13q71 0 98 19t27 64q0 35 -30 54t-72.5 27.5t-85.5 19.5t-73 41t-30 80q0 124 172 124
q99 0 165 -15v-62l-19 6q-19 5 -56 11t-74 6z" />
    <glyph glyph-name="t" unicode="t" horiz-adv-x="348" 
d="M95 139v274h-68v54h68v112h68v-112h157v-54h-157v-280q0 -40 15 -57.5t53 -17.5h89v-58h-83q-75 0 -108.5 30.5t-33.5 108.5z" />
    <glyph glyph-name="u" unicode="u" 
d="M456 0h-65v49q-21 -19 -64 -37.5t-89 -18.5q-77 0 -120 39.5t-43 107.5v327h68v-306q0 -60 25 -85t82 -25q41 0 75.5 14.5t48.5 28.5l14 15v358h68v-467z" />
    <glyph glyph-name="v" unicode="v" horiz-adv-x="448" 
d="M222 84h4l130 383h72l-172 -467h-64l-172 467h72z" />
    <glyph glyph-name="w" unicode="w" horiz-adv-x="650" 
d="M630 467l-128 -467h-96l-82 299l-82 -299h-98l-124 467h72l98 -407h7l95 348h66l94 -348h6l99 407h73z" />
    <glyph glyph-name="x" unicode="x" horiz-adv-x="446" 
d="M223 297l103 170h79l-145 -220l165 -247h-81l-121 187l-120 -187h-81l164 241l-144 226h79z" />
    <glyph glyph-name="y" unicode="y" horiz-adv-x="448" 
d="M222 84h4l129 383h73l-168 -467q-32 -91 -75 -130.5t-109 -39.5h-77v58h70q47 0 78 33.5t41 78.5l-168 467h73z" />
    <glyph glyph-name="z" unicode="z" horiz-adv-x="442" 
d="M52 467h340v-58l-270 -350h278v-59h-360v58l268 351h-256v58z" />
    <glyph glyph-name="braceleft" unicode="{" horiz-adv-x="376" 
d="M142 366v153q0 75 40 100.5t125 25.5v-65q-52 -1 -71.5 -15t-19.5 -62v-161q0 -62 -63 -105v-6q63 -43 63 -105v-162q0 -48 19.5 -62t71.5 -15v-65q-85 0 -125 25.5t-40 100.5v154q0 80 -74 104v56q74 24 74 104z" />
    <glyph glyph-name="bar" unicode="|" horiz-adv-x="473" 
d="M199 637h71v-807h-71v807z" />
    <glyph glyph-name="braceright" unicode="}" horiz-adv-x="366" 
d="M233 519v-153q0 -80 74 -104v-56q-74 -24 -74 -104v-154q0 -75 -40 -100.5t-125 -25.5v65q52 1 72 15t20 62v162q0 63 62 105v6q-62 42 -62 105v161q0 48 -20 62t-72 15v65q85 0 125 -25.5t40 -100.5z" />
    <glyph glyph-name="asciitilde" unicode="~" horiz-adv-x="526" 
d="M75 261l-43 33q23 49 60 81.5t85 32.5q39 0 99.5 -37t99.5 -37q56 0 98 76l43 -33q-23 -47 -62 -80.5t-85 -33.5q-39 0 -97 35t-93 39q-64 0 -105 -76z" />
    <glyph glyph-name="exclamdown" unicode="&#xa1;" horiz-adv-x="226" 
d="M70 -170v162l15 332h53q14 -330 14 -332v-162h-82zM146 467v-83h-70v83h70z" />
    <glyph glyph-name="cent" unicode="&#xa2;" horiz-adv-x="519" 
d="M286 565v-91q91 -3 129 -36t47 -117h-68q-5 50 -28 73t-80 26v-374q59 4 81.5 29t27.5 81h68q-8 -91 -45.5 -125.5t-131.5 -37.5v-91h-54v91q-104 5 -137.5 54.5t-33.5 186.5t33.5 186t137.5 54v91h54zM129 234q0 -37 0.5 -56t3.5 -44t9.5 -36.5t18 -24.5t29 -18.5
t42.5 -7.5v373q-25 -2 -42.5 -7.5t-29 -18.5t-18 -24.5t-9.5 -36t-3.5 -43.5t-0.5 -56z" />
    <glyph glyph-name="sterling" unicode="&#xa3;" horiz-adv-x="523" 
d="M299 584q-58 0 -82.5 -24.5t-24.5 -87.5v-179h178v-62h-178v-12q0 -38 -1.5 -61t-11 -52.5t-27.5 -43.5h296v-62h-389v57q22 6 36 23t19 46t6.5 50t1.5 55h-79v62h79v174q0 178 177 178q67 0 138 -13v-68q-70 20 -138 20z" />
    <glyph glyph-name="currency" unicode="&#xa4;" horiz-adv-x="651" 
d="M106 341q0 79 45 140l-89 94l40 42l89 -94q60 49 135 49q74 0 133 -48l89 92l40 -41l-89 -93q46 -62 46 -141t-44 -140l88 -92l-39 -42l-89 92q-58 -49 -135 -49q-78 0 -136 49l-87 -92l-39 42l86 93q-44 47 -44 139zM168 342q0 -68 45.5 -116t110.5 -48t110.5 48
t45.5 116t-45.5 116t-110.5 48t-110.5 -48t-45.5 -116z" />
    <glyph glyph-name="yen" unicode="&#xa5;" horiz-adv-x="580" 
d="M544 637l-130 -210h98v-62h-136l-45 -72h181v-62h-189v-231h-72v231h-183v62h174l-44 72h-130v62h93l-125 209h83l171 -281l170 282h84z" />
    <glyph glyph-name="brokenbar" unicode="&#xa6;" horiz-adv-x="473" 
d="M199 636h75v-334h-75v334zM199 151h75v-320h-75v320z" />
    <glyph glyph-name="section" unicode="&#xa7;" horiz-adv-x="580" 
d="M312 387q128 -41 166 -68.5t38 -92.5q0 -75 -67 -119q37 -26 46.5 -53.5t9.5 -77.5q0 -94 -46 -124t-150 -30q-53 0 -83.5 5.5t-55.5 22.5t-35.5 51.5t-10.5 91.5h63q1 -70 24.5 -89.5t97.5 -19.5q30 0 45.5 1t34 5.5t26.5 13.5t14 25.5t6 41.5q0 34 -6 48.5t-30.5 27.5
t-85.5 33q-128 41 -166 68.5t-38 92.5q0 75 67 119q-37 26 -46.5 53.5t-9.5 78.5q0 94 45.5 123.5t150.5 29.5q53 0 83 -5t55 -22.5t35.5 -51.5t11.5 -91h-63q-1 70 -25 89t-97 19q-38 0 -55.5 -1.5t-37 -9.5t-26.5 -26t-7 -49q0 -34 6 -48.5t30.5 -28.5t85.5 -33zM180 240
q0 -31 33.5 -51t155.5 -54q5 -2 15 -2q29 0 45 29.5t16 65.5q0 30 -33 49.5t-146 51.5q-12 2 -16 2q-30 0 -50 -29t-20 -62z" />
    <glyph glyph-name="dieresis" unicode="&#xa8;" horiz-adv-x="473" 
d="M198 637v-76h-59v76h59zM312 637v-76h-60v76h60z" />
    <glyph glyph-name="copyright" unicode="&#xa9;" horiz-adv-x="742" 
d="M353 645q127 0 218.5 -96.5t91.5 -230.5t-91.5 -230t-218.5 -96t-218 96t-91 230q0 135 90.5 231t218.5 96zM353 608q-112 0 -191.5 -85.5t-79.5 -204.5t79.5 -204.5t191.5 -85.5q113 0 192.5 86t79.5 204q0 119 -79.5 204.5t-192.5 85.5zM357 159q100 0 116 108h51
q-10 -71 -54.5 -112.5t-112.5 -41.5q-82 0 -130 59.5t-48 147.5q0 89 48.5 149.5t130.5 60.5q58 0 103.5 -34t57.5 -94h-53q-9 41 -38 62t-71 21q-61 0 -91 -47.5t-30 -117.5t30.5 -115.5t90.5 -45.5z" />
    <glyph glyph-name="ordfeminine" unicode="&#xaa;" horiz-adv-x="402" 
d="M74 289h252v-45h-252v45zM325 538v-201h-50l2 26q-36 -31 -83 -31q-59 0 -90.5 21.5t-31.5 76.5q0 46 36.5 69.5t87.5 23.5l77 -2v5q0 50 -13 63t-62 13q-23 0 -46.5 -4.5t-35.5 -9.5l-13 -4v51q48 10 96 10q66 0 96 -21t30 -86zM125 428q0 -53 65 -53q83 0 83 52v53h-74
q-29 0 -51.5 -12t-22.5 -40z" />
    <glyph glyph-name="guillemotleft" unicode="&#xab;" horiz-adv-x="423" 
d="M218 467l-122 -233l133 -234h-69l-133 234l123 233h68zM368 467l-122 -233l132 -234h-68l-134 234l123 233h69z" />
    <glyph glyph-name="logicalnot" unicode="&#xac;" horiz-adv-x="507" 
d="M405 0v209h-373v68h444v-277h-71z" />
    <glyph glyph-name="registered" unicode="&#xae;" horiz-adv-x="742" 
d="M231 520h151q55 0 93.5 -24.5t38.5 -80.5q0 -70 -71 -99q26 -17 37.5 -47t19.5 -73.5t19 -68.5h-53q-5 19 -11.5 53.5t-11.5 50t-14.5 34.5t-27 26.5t-43.5 7.5h-74v-172h-53v393zM284 481v-144h76q47 0 74 15.5t27 59.5q0 69 -93 69h-84zM353 645q127 0 218.5 -96.5
t91.5 -230.5t-91.5 -230t-218.5 -96t-218 96t-91 230q0 135 90.5 231t218.5 96zM353 608q-112 0 -191.5 -85.5t-79.5 -204.5t79.5 -204.5t191.5 -85.5q113 0 192.5 86t79.5 204q0 119 -79.5 204.5t-192.5 85.5z" />
    <glyph glyph-name="macron" unicode="&#xaf;" horiz-adv-x="473" 
d="M117 608h233v-47h-233v47z" />
    <glyph glyph-name="degree" unicode="&#xb0;" horiz-adv-x="473" 
d="M370 521q0 -58 -39.5 -99.5t-94.5 -41.5q-53 0 -93 41t-40 97q0 60 38 102.5t95 42.5q56 0 95 -42t39 -100zM335 521q0 43 -29 74.5t-70 31.5t-69.5 -32t-28.5 -75q0 -42 29 -73t69 -31t69.5 31t29.5 74z" />
    <glyph glyph-name="plusminus" unicode="&#xb1;" horiz-adv-x="473" 
d="M30 98h414v-42h-414v42zM30 385h186v203h40v-203h187v-41h-187v-203h-40v203h-186v41z" />
    <glyph glyph-name="twosuperior" unicode="&#xb2;" horiz-adv-x="389" 
d="M336 385v-49h-280v53q0 102 127 135q34 8 52 15t34 26.5t16 49.5q0 41 -16.5 52.5t-68.5 11.5q-31 0 -45 -2t-26.5 -12t-16.5 -30t-4 -57h-52q0 36 1.5 54.5t9 40.5t22.5 31.5t42.5 16.5t68.5 7q75 0 106.5 -23t31.5 -90q0 -35 -10.5 -59.5t-32 -39t-38.5 -21t-47 -14.5
q-101 -27 -101 -91v-5h227z" />
    <glyph glyph-name="threesuperior" unicode="&#xb3;" horiz-adv-x="403" 
d="M166 513v46h37q29 0 41 1t25 6.5t17 18t4 35.5q0 40 -17.5 49.5t-69.5 9.5q-30 0 -45.5 -2.5t-28 -16t-12.5 -40.5v-15h-54q0 75 29.5 99t110.5 24q80 0 110 -20t30 -90q0 -58 -35 -81q24 -8 31.5 -27.5t7.5 -56.5q0 -76 -28.5 -99t-117.5 -23q-44 0 -66.5 3t-42.5 16
t-27 39.5t-7 72.5h53v-10q0 -48 18 -59t74 -11q57 0 74.5 12.5t17.5 55.5q0 19 -3.5 30.5t-8.5 18t-19 9.5t-24.5 4t-36.5 1h-37z" />
    <glyph glyph-name="acute" unicode="&#xb4;" horiz-adv-x="473" 
d="M242 518l-38 19l49 108h73q1 0 -21 -33t-63 -94z" />
    <glyph glyph-name="mu" unicode="&#xb5;" horiz-adv-x="490" 
d="M75 70v397h68v-306q0 -60 25 -85t82 -25q41 0 75.5 14.5t48.5 28.5l14 15v358h68v-467h-65v49q-21 -19 -64 -37.5t-89 -18.5q-66 0 -107 29q0 -24 4.5 -48.5t11 -42.5t13 -32.5t10.5 -22.5l4 -7l-51 -39q-13 24 -21 41.5t-17.5 71.5t-9.5 127z" />
    <glyph glyph-name="mu" unicode="&#x3bc;" horiz-adv-x="490" 
d="M75 70v397h68v-306q0 -60 25 -85t82 -25q41 0 75.5 14.5t48.5 28.5l14 15v358h68v-467h-65v49q-21 -19 -64 -37.5t-89 -18.5q-66 0 -107 29q0 -24 4.5 -48.5t11 -42.5t13 -32.5t10.5 -22.5l4 -7l-51 -39q-13 24 -21 41.5t-17.5 71.5t-9.5 127z" />
    <glyph glyph-name="paragraph" unicode="&#xb6;" horiz-adv-x="508" 
d="M445 -170h-64v744h-64v-744h-63v371h-28q-101 0 -144 56t-43 163q0 112 42 164t145 52h219v-806z" />
    <glyph glyph-name="periodcentered" unicode="&#xb7;" horiz-adv-x="195" 
d="M129 301v-83h-70v83h70z" />
    <glyph glyph-name="cedilla" unicode="&#xb8;" horiz-adv-x="312" 
d="M151 -6v25h51q0 -40 -10.5 -85.5t-23.5 -70.5h-60l10 19q11 18 22 51t11 61z" />
    <glyph glyph-name="onesuperior" unicode="&#xb9;" horiz-adv-x="319" 
d="M59 336v49h86v289h-108v49h162v-338h68v-49h-208z" />
    <glyph glyph-name="ordmasculine" unicode="&#xba;" horiz-adv-x="389" 
d="M74 289h252v-45h-252v45zM331 488q0 -95 -25 -125.5t-107 -30.5q-81 0 -106 31t-25 125q0 95 25 126t106 31q82 0 107 -31t25 -126zM279 488q0 69 -12.5 91.5t-67.5 22.5q-54 0 -66 -22.5t-12 -91.5q0 -68 12 -90.5t66 -22.5t67 23t13 90z" />
    <glyph glyph-name="guillemotright" unicode="&#xbb;" horiz-adv-x="423" 
d="M309 234l-123 233h69l123 -233l-133 -234h-69zM159 234l-122 233h68l124 -233l-134 -234h-68z" />
    <glyph glyph-name="onequarter" unicode="&#xbc;" horiz-adv-x="967" 
d="M623 637l-313 -754h-39l311 754h41zM750 139v182l-143 -182h143zM120 250v49h86v289h-108v49h162v-338h68v-49h-208zM803 387v-248h60v-49h-60v-90h-53v90h-212v43l204 254h61z" />
    <glyph glyph-name="onehalf" unicode="&#xbd;" horiz-adv-x="1001" 
d="M623 637l-313 -754h-39l311 754h41zM120 250v49h86v289h-108v49h162v-338h68v-49h-208zM880 49v-49h-281v53q0 102 128 135q33 8 51 15t34 26.5t16 49.5q0 41 -16.5 52.5t-67.5 11.5q-31 0 -45 -2t-27 -12t-16.5 -30t-3.5 -57h-53q0 36 1.5 54.5t9 40.5t22.5 31.5
t42.5 16.5t69.5 7q75 0 106.5 -23t31.5 -90q0 -35 -10.5 -59.5t-32.5 -39t-39 -21t-47 -14.5q-100 -27 -100 -91v-5h227z" />
    <glyph glyph-name="threequarters" unicode="&#xbe;" horiz-adv-x="940" 
d="M623 637l-313 -754h-39l311 754h41zM169 427v46h37q29 0 41 1t25 6.5t17 18t4 35.5q0 40 -17.5 49.5t-69.5 9.5q-30 0 -45.5 -2.5t-28 -16t-12.5 -40.5v-15h-55q0 75 30 99t111 24q80 0 110 -20t30 -90q0 -58 -35 -81q24 -8 31.5 -27.5t7.5 -56.5q0 -76 -28.5 -99
t-117.5 -23q-44 0 -66.5 3t-42.5 16t-27 39.5t-7 72.5h53v-10q0 -48 18 -59t74 -11q57 0 74.5 12.5t17.5 55.5q0 19 -3.5 30.5t-8.5 18t-19 9.5t-24.5 4t-36.5 1h-37zM787 387v-248h59v-49h-59v-90h-53v90h-213v43l205 254h61zM734 139v182l-143 -182h143z" />
    <glyph glyph-name="questiondown" unicode="&#xbf;" horiz-adv-x="491" 
d="M327 324v-41q0 -47 -11 -79t-28 -47.5t-38 -25t-42 -17.5t-38 -19.5t-28 -35.5t-11 -61q0 -76 22 -94t105 -18q66 0 94 19t28 87v21h66q-2 -113 -38 -152t-148 -39q-57 0 -88 4.5t-58.5 21t-38 51t-10.5 91.5q0 53 10.5 88.5t27.5 52t37 26t40.5 16.5t37.5 17t27.5 33
t10.5 60v41h71zM327 467v-83h-71v83h71z" />
    <glyph glyph-name="Agrave" unicode="&#xc0;" horiz-adv-x="554" 
d="M305 637l229 -637h-77l-55 164h-278l-55 -164h-77l229 637h84zM145 227h236l-116 347h-4zM297 691l-38 -19q-12 18 -27 41t-23.5 36l-17 26t-11.5 19l-4 5h73z" />
    <glyph glyph-name="Aacute" unicode="&#xc1;" horiz-adv-x="548" 
d="M316 637l229 -637h-77l-55 164h-277l-55 -164h-77l229 637h83zM157 227h235l-115 347h-4zM279 672l-38 19l49 108h73q1 0 -21 -33t-63 -94z" />
    <glyph glyph-name="Acircumflex" unicode="&#xc2;" horiz-adv-x="554" 
d="M305 637l229 -637h-77l-55 164h-278l-55 -164h-77l229 637h84zM145 227h236l-116 347h-4zM378 691l-32 -19l-83 87l-82 -87l-32 19q65 89 78 108h73z" />
    <glyph glyph-name="Atilde" unicode="&#xc3;" horiz-adv-x="554" 
d="M305 637l229 -637h-77l-55 164h-278l-55 -164h-77l229 637h84zM145 227h236l-116 347h-4zM315 691q-21 0 -49.5 19.5t-48.5 19.5q-28 0 -48 -35l-28 28q33 64 74 64q21 0 49.5 -20t48.5 -20q13 0 26.5 11t21.5 25l27 -29q-29 -61 -73 -63z" />
    <glyph glyph-name="Adieresis" unicode="&#xc4;" horiz-adv-x="554" 
d="M305 637l229 -637h-77l-55 164h-278l-55 -164h-77l229 637h84zM145 227h236l-116 347h-4zM237 779v-76h-59v76h59zM350 779v-76h-59v76h59z" />
    <glyph glyph-name="Aring" unicode="&#xc5;" horiz-adv-x="554" 
d="M305 637l229 -637h-77l-55 164h-278l-55 -164h-77l229 637h84zM145 227h236l-116 347h-4zM264 666q-28 0 -47.5 21t-19.5 50t19.5 49.5t47.5 20.5q27 0 47 -21t20 -49q0 -29 -20 -50t-47 -21zM264 696q15 0 26.5 12.5t11.5 28.5t-11.5 28t-26.5 12q-16 0 -27.5 -12
t-11.5 -28q0 -17 11.5 -29t27.5 -12z" />
    <glyph glyph-name="AE" unicode="&#xc6;" horiz-adv-x="880" 
d="M851 637v-67h-333v-206h319v-64h-319v-233h333v-67h-406v142h-268l-90 -142h-84l407 637h441zM445 204v360h-8l-223 -360h231z" />
    <glyph glyph-name="Ccedilla" unicode="&#xc7;" horiz-adv-x="619" 
d="M491 220v6h72v-9q0 -71 -13 -115.5t-44 -68t-68 -31.5t-97 -9q-7 -74 -33 -130h-60l10 19q10 18 21.5 50.5t11.5 59.5q-62 2 -99.5 10t-68.5 31t-44.5 67.5t-13.5 116.5v203q0 50 6.5 86.5t21.5 61t33 39.5t48 23.5t59.5 11t73.5 3.5h15q63 -1 101 -7.5t71.5 -26
t49 -58.5t18.5 -103h-72q-3 47 -12 73.5t-33 39.5t-48 16t-75 3h-15q-31 0 -49 -1t-39 -4.5t-31.5 -10.5t-22 -18t-16.5 -29t-8 -43t-3 -59v-197q0 -34 3 -59t8 -43t16.5 -29t22 -18t31.5 -10.5t39 -4.5t49 -1h15q37 0 56.5 1.5t42 6.5t33 15.5t20.5 29t13.5 45.5t3.5 67z
" />
    <glyph glyph-name="Egrave" unicode="&#xc8;" horiz-adv-x="487" 
d="M106 574v-211h320v-63h-320v-237h335v-63h-407v637h407v-63h-335zM308 691l-38 -19q-41 61 -63 94t-21 33h73z" />
    <glyph glyph-name="Eacute" unicode="&#xc9;" horiz-adv-x="487" 
d="M106 574v-211h320v-63h-320v-237h335v-63h-407v637h407v-63h-335zM263 672l-38 19l49 108h73q1 0 -21 -33t-63 -94z" />
    <glyph glyph-name="Ecircumflex" unicode="&#xca;" horiz-adv-x="471" 
d="M106 574v-211h320v-63h-320v-237h335v-63h-407v637h407v-63h-335zM358 691l-32 -19l-83 87l-82 -87l-32 19q65 89 78 108h73z" />
    <glyph glyph-name="Edieresis" unicode="&#xcb;" horiz-adv-x="487" 
d="M106 574v-211h320v-63h-320v-237h335v-63h-407v637h407v-63h-335zM226 779v-76h-60v76h60zM339 779v-76h-60v76h60z" />
    <glyph glyph-name="Igrave" unicode="&#xcc;" horiz-adv-x="223" 
d="M147 0h-72v637h72v-637zM147 691l-38 -19q-12 18 -27 41t-23.5 36l-17 26t-11.5 19l-4 5h73z" />
    <glyph glyph-name="Iacute" unicode="&#xcd;" horiz-adv-x="252" 
d="M171 0h-72v637h72v-637zM141 672l-38 19q39 89 48 108h73l-4 -5q-3 -6 -11.5 -19l-17 -26t-23.5 -36t-27 -41z" />
    <glyph glyph-name="Icircumflex" unicode="&#xce;" horiz-adv-x="245" 
d="M159 0h-73v637h73v-637zM237 691l-32 -19l-83 87l-81 -87l-33 19q65 89 78 108h74z" />
    <glyph glyph-name="Idieresis" unicode="&#xcf;" horiz-adv-x="237" 
d="M154 0h-72v637h72v-637zM90 779v-76h-60v76h60zM203 779v-76h-60v76h60z" />
    <glyph glyph-name="Eth" unicode="&#xd0;" horiz-adv-x="667" 
d="M593 365v-93q0 -148 -47.5 -210t-184.5 -62h-267v313h-73v61h73v263h267q137 0 184.5 -62t47.5 -210zM166 570v-196h113v-61h-113v-246h194q24 0 43.5 1.5t35 7.5t27.5 10.5t20.5 16t14.5 19.5t10 26t6 29t3 36t1 40v46v40q0 122 -13 159q-19 56 -88 68q-26 4 -60 4h-194
z" />
    <glyph glyph-name="Ntilde" unicode="&#xd1;" horiz-adv-x="668" 
d="M574 637v-637h-116l-288 565h-4v-565h-72v637h117l286 -571h5v571h72zM401 691q-22 0 -50 19.5t-49 19.5q-13 0 -26.5 -11t-20.5 -24l-28 28q31 64 73 64q22 0 50 -20t49 -20q13 0 26.5 11.5t20.5 24.5l28 -29q-29 -61 -73 -63z" />
    <glyph glyph-name="Ograve" unicode="&#xd2;" horiz-adv-x="629" 
d="M65 420q0 50 6.5 86.5t21.5 61t33 39.5t48 23.5t59.5 11t73.5 3.5h15q53 -1 86.5 -5t66 -17t50 -37.5t28 -65t10.5 -100.5v-203q0 -60 -10.5 -100.5t-28 -65t-50 -37.5t-66 -17t-86.5 -5h-15q-44 1 -73.5 3.5t-59.5 11t-48 23.5t-33 39.5t-21.5 61t-6.5 86.5v203z
M491 220v197q0 40 -3.5 67t-13.5 45.5t-20.5 29t-33 15.5t-42 6.5t-56.5 1.5h-15q-31 0 -49 -1t-39 -4.5t-31.5 -10.5t-22 -18t-16.5 -29t-8 -43t-3 -59v-197q0 -34 3 -59t8 -43t16.5 -29t22 -18t31.5 -10.5t39 -4.5t49 -1h15q37 0 56.5 1.5t42 6.5t33 15.5t20.5 29
t13.5 45.5t3.5 67zM376 691l-38 -19q-12 18 -27 41t-23.5 36l-17 26t-12.5 19l-3 5h73z" />
    <glyph glyph-name="Oacute" unicode="&#xd3;" horiz-adv-x="596" 
d="M33 420q0 60 10.5 100.5t28 65t50 37.5t66 17t86.5 5h16q53 -1 86.5 -5t66 -17t50 -37.5t28 -65t10.5 -100.5v-203q0 -60 -10.5 -100.5t-28 -65t-50 -37.5t-66 -17t-86.5 -5h-16q-53 1 -86.5 5t-66 17t-50 37.5t-28 65t-10.5 100.5v203zM459 220v197q0 40 -3.5 67
t-13.5 45.5t-20.5 29t-33 15.5t-42 6.5t-56.5 1.5h-16q-37 0 -56.5 -1.5t-42 -6.5t-33 -15.5t-20.5 -29t-13.5 -45.5t-3.5 -67v-197q0 -40 3.5 -67t13.5 -45.5t20.5 -29t33 -15.5t42 -6.5t56.5 -1.5h16q37 0 56.5 1.5t42 6.5t33 15.5t20.5 29t13.5 45.5t3.5 67zM317 672
l-38 19l49 108h73q1 0 -21 -33t-63 -94z" />
    <glyph glyph-name="Ocircumflex" unicode="&#xd4;" horiz-adv-x="629" 
d="M65 420q0 50 6.5 86.5t21.5 61t33 39.5t48 23.5t59.5 11t73.5 3.5h15q53 -1 86.5 -5t66 -17t50 -37.5t28 -65t10.5 -100.5v-203q0 -60 -10.5 -100.5t-28 -65t-50 -37.5t-66 -17t-86.5 -5h-15q-44 1 -73.5 3.5t-59.5 11t-48 23.5t-33 39.5t-21.5 61t-6.5 86.5v203z
M491 220v197q0 40 -3.5 67t-13.5 45.5t-20.5 29t-33 15.5t-42 6.5t-56.5 1.5h-15q-31 0 -49 -1t-39 -4.5t-31.5 -10.5t-22 -18t-16.5 -29t-8 -43t-3 -59v-197q0 -34 3 -59t8 -43t16.5 -29t22 -18t31.5 -10.5t39 -4.5t49 -1h15q37 0 56.5 1.5t42 6.5t33 15.5t20.5 29
t13.5 45.5t3.5 67zM443 691l-33 -19l-82 87l-82 -87l-32 19l78 108h73z" />
    <glyph glyph-name="Otilde" unicode="&#xd5;" horiz-adv-x="564" 
d="M33 420q0 60 10.5 100.5t28 65t50 37.5t66 17t86.5 5h16q53 -1 86.5 -5t66 -17t50 -37.5t28 -65t10.5 -100.5v-203q0 -60 -10.5 -100.5t-28 -65t-50 -37.5t-66 -17t-86.5 -5h-16q-53 1 -86.5 5t-66 17t-50 37.5t-28 65t-10.5 100.5v203zM459 220v197q0 40 -3.5 67
t-13.5 45.5t-20.5 29t-33 15.5t-42 6.5t-56.5 1.5h-16q-37 0 -56.5 -1.5t-42 -6.5t-33 -15.5t-20.5 -29t-13.5 -45.5t-3.5 -67v-197q0 -40 3.5 -67t13.5 -45.5t20.5 -29t33 -15.5t42 -6.5t56.5 -1.5h16q37 0 56.5 1.5t42 6.5t33 15.5t20.5 29t13.5 45.5t3.5 67zM329 691
q-22 0 -50 19.5t-49 19.5q-28 0 -48 -35l-27 28q31 64 73 64q22 0 50 -20t49 -20q13 0 26.5 11.5t20.5 24.5l28 -29q-29 -61 -73 -63z" />
    <glyph glyph-name="Odieresis" unicode="&#xd6;" horiz-adv-x="629" 
d="M65 420q0 50 6.5 86.5t21.5 61t33 39.5t48 23.5t59.5 11t73.5 3.5h15q53 -1 86.5 -5t66 -17t50 -37.5t28 -65t10.5 -100.5v-203q0 -60 -10.5 -100.5t-28 -65t-50 -37.5t-66 -17t-86.5 -5h-15q-44 1 -73.5 3.5t-59.5 11t-48 23.5t-33 39.5t-21.5 61t-6.5 86.5v203z
M491 220v197q0 40 -3.5 67t-13.5 45.5t-20.5 29t-33 15.5t-42 6.5t-56.5 1.5h-15q-31 0 -49 -1t-39 -4.5t-31.5 -10.5t-22 -18t-16.5 -29t-8 -43t-3 -59v-197q0 -34 3 -59t8 -43t16.5 -29t22 -18t31.5 -10.5t39 -4.5t49 -1h15q37 0 56.5 1.5t42 6.5t33 15.5t20.5 29
t13.5 45.5t3.5 67zM288 779v-76h-60v76h60zM401 779v-76h-60v76h60z" />
    <glyph glyph-name="multiply" unicode="&#xd7;" horiz-adv-x="473" 
d="M85 550l151 -159l151 159l28 -30l-151 -159l151 -158l-27 -29l-152 158l-151 -159l-28 30l151 159l-150 158z" />
    <glyph glyph-name="Oslash" unicode="&#xd8;" horiz-adv-x="629" 
d="M608 630l-64 -82q19 -47 19 -128q0 -130 -2 -209q-2 -130 -52.5 -174.5t-186.5 -44.5h-15q-118 0 -168 31l-55 -71l-40 35l57 73q-33 50 -34 151q-2 79 -2 209q0 50 6.5 86.5t21.5 61t33 39.5t48 23.5t59.5 11t73.5 3.5h15q74 -1 119.5 -11t73.5 -39l54 70zM307 582
q-37 0 -56.5 -1.5t-42.5 -6.5t-33.5 -15.5t-20.5 -29t-13.5 -45.5t-3.5 -67q0 -119 1 -192q2 -69 13 -99l320 412q-17 28 -49 35.5t-100 8.5h-15zM492 417q0 33 -3 59l-306 -396q32 -24 124 -24h15q50 0 78 5.5t50 23t31 50.5t10 90q1 73 1 192z" />
    <glyph glyph-name="Ugrave" unicode="&#xd9;" horiz-adv-x="646" 
d="M489 226v411h72v-414q0 -131 -53 -181t-188 -50h-13q-135 0 -188.5 50.5t-53.5 180.5v414h73v-411q0 -56 8.5 -90t31.5 -51.5t51 -23t78 -5.5h13q50 0 78 5.5t51 23t31.5 51.5t8.5 90zM374 691l-38 -19q-12 18 -27 41t-23.5 36l-17 26t-12.5 19l-3 5h73z" />
    <glyph glyph-name="Uacute" unicode="&#xda;" horiz-adv-x="646" 
d="M489 226v411h72v-414q0 -131 -53 -181t-188 -50h-13q-135 0 -188.5 50.5t-53.5 180.5v414h73v-411q0 -56 8.5 -90t31.5 -51.5t51 -23t78 -5.5h13q50 0 78 5.5t51 23t31.5 51.5t8.5 90zM330 672l-38 19q39 89 48 108h73l-3 -5q-4 -6 -12.5 -19l-17 -26t-23.5 -36t-27 -41z
" />
    <glyph glyph-name="Ucircumflex" unicode="&#xdb;" horiz-adv-x="646" 
d="M489 226v411h72v-414q0 -131 -53 -181t-188 -50h-13q-135 0 -188.5 50.5t-53.5 180.5v414h73v-411q0 -56 8.5 -90t31.5 -51.5t51 -23t78 -5.5h13q50 0 78 5.5t51 23t31.5 51.5t8.5 90zM429 691l-32 -19l-83 87l-81 -87l-33 19q65 89 78 108h73z" />
    <glyph glyph-name="Udieresis" unicode="&#xdc;" horiz-adv-x="646" 
d="M489 226v411h72v-414q0 -131 -53 -181t-188 -50h-13q-135 0 -188.5 50.5t-53.5 180.5v414h73v-411q0 -56 8.5 -90t31.5 -51.5t51 -23t78 -5.5h13q50 0 78 5.5t51 23t31.5 51.5t8.5 90zM287 779v-76h-60v76h60zM400 779v-76h-60v76h60z" />
    <glyph glyph-name="Yacute" unicode="&#xdd;" horiz-adv-x="533" 
d="M521 637l-222 -371v-266h-72v266l-215 371h83l171 -300l170 300h85zM289 672l-38 19q40 89 48 108h73l-4 -5q-3 -6 -11.5 -19l-17 -26t-23.5 -36t-27 -41z" />
    <glyph glyph-name="Thorn" unicode="&#xde;" horiz-adv-x="612" 
d="M94 0v637h72v-75h216q102 0 144.5 -39t42.5 -144q0 -61 -13 -99t-42 -56t-61.5 -24t-84.5 -6h-202v-194h-72zM166 256h192q43 0 63 2t40 12t27 31.5t7 59.5q0 79 -19.5 107t-92.5 28h-217v-240z" />
    <glyph glyph-name="germandbls" unicode="&#xdf;" horiz-adv-x="547" 
d="M447 524q0 -36 -34 -88.5t-34 -78.5q0 -18 14.5 -35t35.5 -32t41.5 -32.5t35 -43.5t14.5 -57q0 -94 -49 -129.5t-137 -35.5q-75 0 -117 22l16 50q40 -18 105 -18q118 0 118 99q0 28 -15 50t-36 37t-42 30.5t-36 38t-15 51.5q0 38 35.5 91t35.5 80t-25.5 47.5t-71.5 20.5
q-57 -1 -90.5 -36.5t-33.5 -98.5v-456h-67v413h-68v54h68q2 78 56.5 128t134.5 50q79 0 120 -33t41 -88z" />
    <glyph glyph-name="agrave" unicode="&#xe0;" horiz-adv-x="497" 
d="M431 312v-312h-64v44h-4q-55 -52 -144 -52q-174 0 -174 148q0 70 55 105.5t133 35.5q40 0 72.5 -1.5t44.5 -2.5l13 -1v17q0 85 -22 106.5t-105 21.5q-37 0 -73.5 -6t-54.5 -11l-18 -6v62q69 15 149 15q101 0 146.5 -32t45.5 -131zM113 137q0 -91 103 -91q35 0 64.5 5.5
t56 27t26.5 57.5v91h-124q-50 0 -88 -20.5t-38 -69.5zM310 537l-38 -19q-41 61 -63 94t-21 33h73z" />
    <glyph glyph-name="aacute" unicode="&#xe1;" horiz-adv-x="497" 
d="M431 312v-312h-64v44h-4q-55 -52 -144 -52q-174 0 -174 148q0 70 55 105.5t133 35.5q40 0 72.5 -1.5t44.5 -2.5l13 -1v17q0 85 -22 106.5t-105 21.5q-37 0 -73.5 -6t-54.5 -11l-18 -6v62q69 15 149 15q101 0 146.5 -32t45.5 -131zM113 137q0 -91 103 -91q35 0 64.5 5.5
t56 27t26.5 57.5v91h-124q-50 0 -88 -20.5t-38 -69.5zM297 518l-38 19l49 108h73q1 0 -21 -33t-63 -94z" />
    <glyph glyph-name="acircumflex" unicode="&#xe2;" horiz-adv-x="497" 
d="M431 312v-312h-64v44h-4q-55 -52 -144 -52q-174 0 -174 148q0 70 55 105.5t133 35.5q40 0 72.5 -1.5t44.5 -2.5l13 -1v17q0 85 -22 106.5t-105 21.5q-37 0 -73.5 -6t-54.5 -11l-18 -6v62q69 15 149 15q101 0 146.5 -32t45.5 -131zM113 137q0 -91 103 -91q35 0 64.5 5.5
t56 27t26.5 57.5v91h-124q-50 0 -88 -20.5t-38 -69.5zM370 537l-32 -19l-83 87l-81 -87l-33 19q65 89 78 108h74z" />
    <glyph glyph-name="atilde" unicode="&#xe3;" horiz-adv-x="497" 
d="M431 312v-312h-64v44h-4q-55 -52 -144 -52q-174 0 -174 148q0 70 55 105.5t133 35.5q40 0 72.5 -1.5t44.5 -2.5l13 -1v17q0 85 -22 106.5t-105 21.5q-37 0 -73.5 -6t-54.5 -11l-18 -6v62q69 15 149 15q101 0 146.5 -32t45.5 -131zM113 137q0 -91 103 -91q35 0 64.5 5.5
t56 27t26.5 57.5v91h-124q-50 0 -88 -20.5t-38 -69.5zM316 541q-21 0 -49.5 19.5t-49.5 19.5q-27 0 -47 -35l-28 28q33 64 74 64q21 0 49.5 -20t48.5 -20q13 0 26.5 11t21.5 25l27 -29q-29 -61 -73 -63z" />
    <glyph glyph-name="adieresis" unicode="&#xe4;" horiz-adv-x="497" 
d="M431 312v-312h-64v44h-4q-55 -52 -144 -52q-174 0 -174 148q0 70 55 105.5t133 35.5q40 0 72.5 -1.5t44.5 -2.5l13 -1v17q0 85 -22 106.5t-105 21.5q-37 0 -73.5 -6t-54.5 -11l-18 -6v62q69 15 149 15q101 0 146.5 -32t45.5 -131zM113 137q0 -91 103 -91q35 0 64.5 5.5
t56 27t26.5 57.5v91h-124q-50 0 -88 -20.5t-38 -69.5zM234 637v-76h-60v76h60zM347 637v-76h-60v76h60z" />
    <glyph glyph-name="aring" unicode="&#xe5;" horiz-adv-x="497" 
d="M431 312v-312h-64v44h-4q-55 -52 -144 -52q-174 0 -174 148q0 70 55 105.5t133 35.5q40 0 72.5 -1.5t44.5 -2.5l13 -1v17q0 85 -22 106.5t-105 21.5q-37 0 -73.5 -6t-54.5 -11l-18 -6v62q69 15 149 15q101 0 146.5 -32t45.5 -131zM113 137q0 -91 103 -91q35 0 64.5 5.5
t56 27t26.5 57.5v91h-124q-50 0 -88 -20.5t-38 -69.5zM271 517q-28 0 -48 21t-20 50t20 49.5t48 20.5q27 0 46.5 -20.5t19.5 -49.5t-19.5 -50t-46.5 -21zM271 547q15 0 26.5 12.5t11.5 28.5t-11.5 28t-26.5 12q-16 0 -27.5 -12t-11.5 -28q0 -17 11.5 -29t27.5 -12z" />
    <glyph glyph-name="ae" unicode="&#xe6;" horiz-adv-x="814" 
d="M565 -8q-72 0 -112.5 14t-60.5 48h-4q-52 -62 -159 -62q-89 0 -136.5 32.5t-47.5 115.5q0 70 55 105.5t133 35.5q40 0 72.5 -1.5t44.5 -2.5l13 -1v17q0 85 -22 106.5t-105 21.5q-37 0 -73.5 -6t-54.5 -11l-18 -6v62q69 15 149 15q124 0 162 -48q39 48 164 48t164 -48
t39 -193v-13h-337q0 -42 2 -66t9 -48t21.5 -35.5t39 -18.5t62.5 -7q27 0 57 5t53 12t42 14.5t29 12.5l11 4v-62q-3 -1 -17.5 -6.5t-24.5 -8.5t-29 -8.5t-35.5 -8.5t-39.5 -5.5t-46 -2.5zM113 137q0 -49 27.5 -70t84.5 -21q138 0 138 90v91h-124q-50 0 -88 -20.5t-38 -69.5z
M431 275h268q-1 43 -5.5 67t-18.5 44t-40 27.5t-70 7.5t-70 -7.5t-40 -27.5t-18.5 -44t-5.5 -67z" />
    <glyph glyph-name="ccedilla" unicode="&#xe7;" horiz-adv-x="491" 
d="M263 475q105 0 147.5 -32.5t51.5 -121.5h-68q-5 55 -32.5 77.5t-98.5 22.5q-39 0 -64 -7.5t-39.5 -19t-21 -38.5t-8 -50.5t-1.5 -71.5q0 -34 0.5 -52.5t3 -42.5t8 -35.5t15 -25t24 -19t35 -9.5t48.5 -4q73 0 100 24.5t32 85.5h68q-8 -91 -45.5 -125.5t-131.5 -37.5
q-7 -74 -33 -130h-60l10 19q10 18 21.5 50.5t11.5 60.5q-107 4 -141 53.5t-34 187.5q0 146 38.5 193.5t163.5 47.5z" />
    <glyph glyph-name="egrave" unicode="&#xe8;" horiz-adv-x="502" 
d="M254 -8q-125 0 -164 48t-39 194t38.5 193.5t164.5 47.5q125 0 163.5 -47.5t38.5 -193.5v-13h-336q0 -53 3 -80.5t16 -52t40.5 -33.5t74.5 -9q27 0 57 5t52.5 12t41.5 14.5t29 12.5l11 4v-62l-21 -8q-20 -7 -32.5 -10.5t-36 -9.5t-49 -9t-52.5 -3zM120 275h268
q-1 42 -5.5 66.5t-18.5 44.5t-40.5 27.5t-69.5 7.5q-44 0 -70 -7.5t-40 -27.5t-18.5 -44t-5.5 -67zM308 537l-38 -19q-41 61 -63 94t-21 33h73z" />
    <glyph glyph-name="eacute" unicode="&#xe9;" horiz-adv-x="502" 
d="M254 -8q-125 0 -164 48t-39 194t38.5 193.5t164.5 47.5q125 0 163.5 -47.5t38.5 -193.5v-13h-336q0 -53 3 -80.5t16 -52t40.5 -33.5t74.5 -9q27 0 57 5t52.5 12t41.5 14.5t29 12.5l11 4v-62l-21 -8q-20 -7 -32.5 -10.5t-36 -9.5t-49 -9t-52.5 -3zM120 275h268
q-1 42 -5.5 66.5t-18.5 44.5t-40.5 27.5t-69.5 7.5q-44 0 -70 -7.5t-40 -27.5t-18.5 -44t-5.5 -67zM284 518l-38 19q40 89 48 108h74z" />
    <glyph glyph-name="ecircumflex" unicode="&#xea;" horiz-adv-x="502" 
d="M254 -8q-125 0 -164 48t-39 194t38.5 193.5t164.5 47.5q125 0 163.5 -47.5t38.5 -193.5v-13h-336q0 -53 3 -80.5t16 -52t40.5 -33.5t74.5 -9q27 0 57 5t52.5 12t41.5 14.5t29 12.5l11 4v-62l-21 -8q-20 -7 -32.5 -10.5t-36 -9.5t-49 -9t-52.5 -3zM120 275h268
q-1 42 -5.5 66.5t-18.5 44.5t-40.5 27.5t-69.5 7.5q-44 0 -70 -7.5t-40 -27.5t-18.5 -44t-5.5 -67zM382 537l-32 -19l-83 87l-82 -87l-32 19l78 108h73z" />
    <glyph glyph-name="edieresis" unicode="&#xeb;" horiz-adv-x="502" 
d="M254 -8q-125 0 -164 48t-39 194t38.5 193.5t164.5 47.5q125 0 163.5 -47.5t38.5 -193.5v-13h-336q0 -53 3 -80.5t16 -52t40.5 -33.5t74.5 -9q27 0 57 5t52.5 12t41.5 14.5t29 12.5l11 4v-62l-21 -8q-20 -7 -32.5 -10.5t-36 -9.5t-49 -9t-52.5 -3zM120 275h268
q-1 42 -5.5 66.5t-18.5 44.5t-40.5 27.5t-69.5 7.5q-44 0 -70 -7.5t-40 -27.5t-18.5 -44t-5.5 -67zM236 637v-76h-60v76h60zM349 637v-76h-60v76h60z" />
    <glyph glyph-name="igrave" unicode="&#xec;" horiz-adv-x="239" 
d="M159 467v-467h-69v467h69zM164 537l-38 -19q-12 18 -27 41t-23.5 36l-17 26t-12.5 19l-3 5h73z" />
    <glyph glyph-name="iacute" unicode="&#xed;" horiz-adv-x="243" 
d="M162 467v-467h-68v467h68zM117 518l-38 19q40 89 48 108h73l-4 -5q-3 -6 -11.5 -19l-17 -26t-23.5 -36t-27 -41z" />
    <glyph glyph-name="icircumflex" unicode="&#xee;" horiz-adv-x="236" 
d="M150 467v-467h-68v467h68zM233 537l-33 -19l-82 87l-82 -87l-32 19l78 108h73z" />
    <glyph glyph-name="idieresis" unicode="&#xef;" horiz-adv-x="228" 
d="M147 467v-467h-68v467h68zM87 636v-76h-60v76h60zM200 636v-76h-59v76h59z" />
    <glyph glyph-name="eth" unicode="&#xf0;" horiz-adv-x="510" 
d="M255 -8q-115 0 -154.5 50t-39.5 175q0 122 41.5 177t152.5 55q41 0 78.5 -16.5t54.5 -36.5l1 3q0 52 -31 126l-66 -37l-19 39l67 38q-17 33 -34 57l39 24q31 -45 38 -57l71 40l22 -37l-72 -41q52 -109 52 -251v-115q0 -86 -51.5 -139.5t-149.5 -53.5zM129 217
q0 -52 3 -78.5t15 -50.5t38 -33t70 -9q65 0 99 36.5t34 106.5v74q0 68 -38.5 100t-94.5 32q-35 0 -58.5 -8t-37 -20.5t-20.5 -37.5t-8.5 -48.5t-1.5 -63.5z" />
    <glyph glyph-name="ntilde" unicode="&#xf1;" 
d="M84 467h69v-46q23 19 63.5 36.5t85.5 17.5q78 0 120.5 -40t42.5 -108v-327h-68v306q0 60 -24.5 85.5t-81.5 25.5q-41 0 -75.5 -14.5t-48.5 -29.5l-14 -15v-358h-69v467zM316 541q-21 0 -49.5 19.5t-49.5 19.5q-27 0 -47 -35l-28 28q33 64 74 64q21 0 49.5 -20t48.5 -20
q13 0 26.5 11t21.5 25l27 -29q-29 -61 -73 -63z" />
    <glyph glyph-name="ograve" unicode="&#xf2;" horiz-adv-x="526" 
d="M465 234q0 -146 -38.5 -194t-163.5 -48t-163.5 48t-38.5 194t38.5 193.5t163.5 47.5t163.5 -47.5t38.5 -193.5zM397 234q0 48 -1.5 71.5t-8 50.5t-21 38.5t-39.5 19t-64 7.5t-64 -7.5t-39.5 -19t-21 -38.5t-8 -50.5t-1.5 -71.5q0 -34 0.5 -52.5t3 -42.5t8 -35.5t15 -25
t24 -19t35 -9.5t48.5 -4t48.5 4t35 9.5t24 19t15 25t8 35.5t3 42.5t0.5 52.5zM323 537l-38 -19q-41 61 -63 94t-21 33h73z" />
    <glyph glyph-name="oacute" unicode="&#xf3;" horiz-adv-x="526" 
d="M465 234q0 -146 -38.5 -194t-163.5 -48t-163.5 48t-38.5 194t38.5 193.5t163.5 47.5t163.5 -47.5t38.5 -193.5zM397 234q0 48 -1.5 71.5t-8 50.5t-21 38.5t-39.5 19t-64 7.5t-64 -7.5t-39.5 -19t-21 -38.5t-8 -50.5t-1.5 -71.5q0 -34 0.5 -52.5t3 -42.5t8 -35.5t15 -25
t24 -19t35 -9.5t48.5 -4t48.5 4t35 9.5t24 19t15 25t8 35.5t3 42.5t0.5 52.5zM290 518l-38 19q40 89 48 108h73l-3 -5q-4 -6 -12.5 -19l-17 -26t-23.5 -36t-27 -41z" />
    <glyph glyph-name="ocircumflex" unicode="&#xf4;" horiz-adv-x="526" 
d="M465 234q0 -146 -38.5 -194t-163.5 -48t-163.5 48t-38.5 194t38.5 193.5t163.5 47.5t163.5 -47.5t38.5 -193.5zM397 234q0 48 -1.5 71.5t-8 50.5t-21 38.5t-39.5 19t-64 7.5t-64 -7.5t-39.5 -19t-21 -38.5t-8 -50.5t-1.5 -71.5q0 -34 0.5 -52.5t3 -42.5t8 -35.5t15 -25
t24 -19t35 -9.5t48.5 -4t48.5 4t35 9.5t24 19t15 25t8 35.5t3 42.5t0.5 52.5zM384 537l-33 -19l-82 87l-82 -87l-32 19l78 108h73z" />
    <glyph glyph-name="otilde" unicode="&#xf5;" horiz-adv-x="526" 
d="M465 234q0 -146 -38.5 -194t-163.5 -48t-163.5 48t-38.5 194t38.5 193.5t163.5 47.5t163.5 -47.5t38.5 -193.5zM397 234q0 48 -1.5 71.5t-8 50.5t-21 38.5t-39.5 19t-64 7.5t-64 -7.5t-39.5 -19t-21 -38.5t-8 -50.5t-1.5 -71.5q0 -34 0.5 -52.5t3 -42.5t8 -35.5t15 -25
t24 -19t35 -9.5t48.5 -4t48.5 4t35 9.5t24 19t15 25t8 35.5t3 42.5t0.5 52.5zM324 541q-22 0 -50 19.5t-49 19.5q-13 0 -26.5 -11t-20.5 -24l-28 28q31 64 73 64q22 0 50 -20t49 -20q13 0 26.5 11.5t20.5 24.5l28 -29q-29 -61 -73 -63z" />
    <glyph glyph-name="odieresis" unicode="&#xf6;" horiz-adv-x="526" 
d="M465 234q0 -146 -38.5 -194t-163.5 -48t-163.5 48t-38.5 194t38.5 193.5t163.5 47.5t163.5 -47.5t38.5 -193.5zM397 234q0 48 -1.5 71.5t-8 50.5t-21 38.5t-39.5 19t-64 7.5t-64 -7.5t-39.5 -19t-21 -38.5t-8 -50.5t-1.5 -71.5q0 -34 0.5 -52.5t3 -42.5t8 -35.5t15 -25
t24 -19t35 -9.5t48.5 -4t48.5 4t35 9.5t24 19t15 25t8 35.5t3 42.5t0.5 52.5zM243 637v-76h-60v76h60zM356 637v-76h-60v76h60z" />
    <glyph glyph-name="divide" unicode="&#xf7;" horiz-adv-x="473" 
d="M30 385h413v-41h-413v41zM236 578q15 0 26.5 -11.5t11.5 -27.5t-11.5 -27.5t-26.5 -11.5q-14 0 -25.5 11.5t-11.5 27.5t11.5 27.5t25.5 11.5zM236 229q15 0 26.5 -11.5t11.5 -27.5t-11.5 -27.5t-26.5 -11.5q-14 0 -25.5 11.5t-11.5 27.5t11 27.5t26 11.5z" />
    <glyph glyph-name="oslash" unicode="&#xf8;" horiz-adv-x="520" 
d="M465 234q0 -146 -38.5 -194t-163.5 -48q-96 0 -140 27l-46 -61l-33 29l48 63q-31 46 -31 184q0 146 38.5 193.5t163.5 47.5q95 0 137 -26l42 54l32 -29l-42 -54q33 -47 33 -186zM397 234q0 93 -10 126l-225 -290q30 -24 101 -24q28 0 48.5 4t35 9.5t24 19t15 25t8 35.5
t3 42.5t0.5 52.5zM129 234q0 -94 10 -124l222 288q-29 23 -98 23q-39 0 -64 -7.5t-39.5 -19t-21 -38.5t-8 -50.5t-1.5 -71.5z" />
    <glyph glyph-name="ugrave" unicode="&#xf9;" 
d="M456 0h-65v49q-21 -19 -64 -37.5t-89 -18.5q-77 0 -120 39.5t-43 107.5v327h68v-306q0 -60 25 -85t82 -25q41 0 75.5 14.5t48.5 28.5l14 15v358h68v-467zM323 536l-38 -19q-41 61 -63 94t-21 33h73z" />
    <glyph glyph-name="uacute" unicode="&#xfa;" 
d="M456 0h-65v49q-21 -19 -64 -37.5t-89 -18.5q-77 0 -120 39.5t-43 107.5v327h68v-306q0 -60 25 -85t82 -25q41 0 75.5 14.5t48.5 28.5l14 15v358h68v-467zM308 517l-38 19q40 89 48 108h73l-3 -6q-4 -5 -12.5 -18l-17 -26t-23.5 -36t-27 -41z" />
    <glyph glyph-name="ucircumflex" unicode="&#xfb;" 
d="M456 0h-65v49q-21 -19 -64 -37.5t-89 -18.5q-77 0 -120 39.5t-43 107.5v327h68v-306q0 -60 25 -85t82 -25q41 0 75.5 14.5t48.5 28.5l14 15v358h68v-467zM371 537l-32 -19l-83 87l-81 -87l-33 19q65 89 78 108h73z" />
    <glyph glyph-name="udieresis" unicode="&#xfc;" 
d="M456 0h-65v49q-21 -19 -64 -37.5t-89 -18.5q-77 0 -120 39.5t-43 107.5v327h68v-306q0 -60 25 -85t82 -25q41 0 75.5 14.5t48.5 28.5l14 15v358h68v-467zM362 637v-76h-60v76h60zM249 637v-76h-60v76h60z" />
    <glyph glyph-name="yacute" unicode="&#xfd;" horiz-adv-x="448" 
d="M222 84h4l129 383h73l-168 -467q-32 -91 -75 -130.5t-109 -39.5h-77v58h70q47 0 78 33.5t41 78.5l-168 467h73zM239 517l-38 19l49 108h73q1 0 -21 -33t-63 -94z" />
    <glyph glyph-name="thorn" unicode="&#xfe;" horiz-adv-x="521" 
d="M285 -8q-45 0 -82.5 12t-51.5 28v-202h-67v807h67v-199q17 11 59 24t88 13q70 0 107 -18t56 -70.5t19 -152.5q0 -145 -38 -193.5t-157 -48.5zM411 234q0 47 -1.5 72t-8 51t-20.5 37.5t-37 19t-59 7.5q-44 0 -79.5 -13.5t-52.5 -28.5v-281q5 -6 15 -14.5t44 -23t73 -14.5
q30 0 51 4t35 15.5t22 24t12 37t5 46.5t1 61z" />
    <glyph glyph-name="ydieresis" unicode="&#xff;" horiz-adv-x="448" 
d="M198 636v-76h-60v76h60zM311 636v-76h-60v76h60zM222 84h4l129 383h73l-168 -467q-32 -91 -75 -130.5t-109 -39.5h-77v58h70q47 0 78 33.5t41 78.5l-168 467h73z" />
    <glyph glyph-name="Amacron" unicode="&#x100;" horiz-adv-x="581" 
d="M332 637l229 -637h-77l-55 164h-277l-55 -164h-77l229 637h83zM173 227h235l-115 347h-4zM174 778h233v-47h-233v47z" />
    <glyph glyph-name="amacron" unicode="&#x101;" horiz-adv-x="506" 
d="M431 312v-312h-64v44h-4q-55 -52 -144 -52q-174 0 -174 148q0 70 55 105.5t133 35.5q40 0 72.5 -1.5t44.5 -2.5l13 -1v17q0 85 -22 106.5t-105 21.5q-37 0 -73.5 -6t-54.5 -11l-18 -6v62q69 15 149 15q101 0 146.5 -32t45.5 -131zM113 137q0 -91 103 -91q35 0 64.5 5.5
t56 27t26.5 57.5v91h-124q-50 0 -88 -20.5t-38 -69.5zM136 608h233v-47h-233v47z" />
    <glyph glyph-name="Abreve" unicode="&#x102;" horiz-adv-x="581" 
d="M332 637l229 -637h-77l-55 164h-277l-55 -164h-77l229 637h83zM173 227h235l-115 347h-4zM153 799h43q6 -34 31.5 -56.5t59.5 -22.5q33 0 58 22.5t33 56.5h42q-8 -53 -45.5 -90t-87.5 -37q-51 0 -88 36.5t-46 90.5z" />
    <glyph glyph-name="abreve" unicode="&#x103;" horiz-adv-x="506" 
d="M431 312v-312h-64v44h-4q-55 -52 -144 -52q-174 0 -174 148q0 70 55 105.5t133 35.5q40 0 72.5 -1.5t44.5 -2.5l13 -1v17q0 85 -22 106.5t-105 21.5q-37 0 -73.5 -6t-54.5 -11l-18 -6v62q69 15 149 15q101 0 146.5 -32t45.5 -131zM113 137q0 -91 103 -91q35 0 64.5 5.5
t56 27t26.5 57.5v91h-124q-50 0 -88 -20.5t-38 -69.5zM120 645h42q7 -34 32.5 -56.5t59.5 -22.5q32 0 57.5 22.5t33.5 56.5h42q-8 -53 -45.5 -90t-87.5 -37q-52 0 -88.5 36.5t-45.5 90.5z" />
    <glyph glyph-name="Aogonek" unicode="&#x104;" horiz-adv-x="581" 
d="M485 0h-1l-55 164h-277l-55 -164h-77l229 637h83l229 -637h-14q-32 -4 -59.5 -29.5t-27.5 -50.5q0 -42 44 -42l23 2v-46q-15 -4 -34 -4q-34 0 -56.5 21t-22.5 57q0 27 20.5 53t50.5 39zM173 227h235l-115 347h-4z" />
    <glyph glyph-name="aogonek" unicode="&#x105;" horiz-adv-x="506" 
d="M367 0v44h-4q-55 -52 -144 -52q-174 0 -174 148q0 70 55 105.5t133 35.5q40 0 72.5 -1.5t44.5 -2.5l13 -1v17q0 85 -22 106.5t-105 21.5q-37 0 -73.5 -6t-54.5 -11l-18 -6v62q69 15 149 15q101 0 146.5 -32t45.5 -131v-312h-4q-31 -4 -58.5 -29.5t-27.5 -50.5
q0 -42 45 -42l22 2v-46q-15 -4 -34 -4q-34 0 -56.5 21t-22.5 57q0 27 20.5 53t51.5 39zM113 137q0 -91 103 -91q35 0 64.5 5.5t56 27t26.5 57.5v91h-124q-50 0 -88 -20.5t-38 -69.5z" />
    <glyph glyph-name="Cacute" unicode="&#x106;" horiz-adv-x="619" 
d="M491 220v6h72v-9q0 -60 -10.5 -100.5t-28 -65t-50 -37.5t-66 -17t-86.5 -5h-15q-44 1 -73.5 3.5t-59.5 11t-48 23.5t-33 39.5t-21.5 61t-6.5 86.5v203q0 50 6.5 86.5t21.5 61t33 39.5t48 23.5t59.5 11t73.5 3.5h15q63 -1 101 -7.5t71.5 -26t49 -58.5t18.5 -103h-72
q-3 47 -12 73.5t-33 39.5t-48 16t-75 3h-15q-31 0 -49 -1t-39 -4.5t-31.5 -10.5t-22 -18t-16.5 -29t-8 -43t-3 -59v-197q0 -34 3 -59t8 -43t16.5 -29t22 -18t31.5 -10.5t39 -4.5t49 -1h15q37 0 56.5 1.5t42 6.5t33 15.5t20.5 29t13.5 45.5t3.5 67zM337 672l-38 19l49 108h73
q1 0 -21 -33t-63 -94z" />
    <glyph glyph-name="cacute" unicode="&#x107;" horiz-adv-x="514" 
d="M263 475q105 0 147.5 -32.5t51.5 -121.5h-68q-5 55 -32.5 77.5t-98.5 22.5q-39 0 -64 -7.5t-39.5 -19t-21 -38.5t-8 -50.5t-1.5 -71.5q0 -34 0.5 -52.5t3 -42.5t8 -35.5t15 -25t24 -19t35 -9.5t48.5 -4q73 0 100 24.5t32 85.5h68q-8 -96 -50 -130t-150 -34
q-125 0 -163.5 48t-38.5 194t38.5 193.5t163.5 47.5zM275 518l-38 19l49 108h73q1 0 -21 -33t-63 -94z" />
    <glyph glyph-name="Ccircumflex" unicode="&#x108;" horiz-adv-x="619" 
d="M491 220v6h72v-9q0 -60 -10.5 -100.5t-28 -65t-50 -37.5t-66 -17t-86.5 -5h-15q-44 1 -73.5 3.5t-59.5 11t-48 23.5t-33 39.5t-21.5 61t-6.5 86.5v203q0 50 6.5 86.5t21.5 61t33 39.5t48 23.5t59.5 11t73.5 3.5h15q63 -1 101 -7.5t71.5 -26t49 -58.5t18.5 -103h-72
q-3 47 -12 73.5t-33 39.5t-48 16t-75 3h-15q-31 0 -49 -1t-39 -4.5t-31.5 -10.5t-22 -18t-16.5 -29t-8 -43t-3 -59v-197q0 -34 3 -59t8 -43t16.5 -29t22 -18t31.5 -10.5t39 -4.5t49 -1h15q37 0 56.5 1.5t42 6.5t33 15.5t20.5 29t13.5 45.5t3.5 67zM435 691l-32 -19l-83 87
l-82 -87l-32 19q65 89 78 108h73z" />
    <glyph glyph-name="ccircumflex" unicode="&#x109;" horiz-adv-x="514" 
d="M263 475q105 0 147.5 -32.5t51.5 -121.5h-68q-5 55 -32.5 77.5t-98.5 22.5q-39 0 -64 -7.5t-39.5 -19t-21 -38.5t-8 -50.5t-1.5 -71.5q0 -34 0.5 -52.5t3 -42.5t8 -35.5t15 -25t24 -19t35 -9.5t48.5 -4q73 0 100 24.5t32 85.5h68q-8 -96 -50 -130t-150 -34
q-125 0 -163.5 48t-38.5 194t38.5 193.5t163.5 47.5zM371 537l-32 -19l-83 87l-81 -87l-33 19q65 89 78 108h73z" />
    <glyph glyph-name="Cdotaccent" unicode="&#x10a;" horiz-adv-x="619" 
d="M491 220v6h72v-9q0 -60 -10.5 -100.5t-28 -65t-50 -37.5t-66 -17t-86.5 -5h-15q-44 1 -73.5 3.5t-59.5 11t-48 23.5t-33 39.5t-21.5 61t-6.5 86.5v203q0 50 6.5 86.5t21.5 61t33 39.5t48 23.5t59.5 11t73.5 3.5h15q63 -1 101 -7.5t71.5 -26t49 -58.5t18.5 -103h-72
q-3 47 -12 73.5t-33 39.5t-48 16t-75 3h-15q-31 0 -49 -1t-39 -4.5t-31.5 -10.5t-22 -18t-16.5 -29t-8 -43t-3 -59v-197q0 -34 3 -59t8 -43t16.5 -29t22 -18t31.5 -10.5t39 -4.5t49 -1h15q37 0 56.5 1.5t42 6.5t33 15.5t20.5 29t13.5 45.5t3.5 67zM343 791v-76h-60v76h60z
" />
    <glyph glyph-name="cdotaccent" unicode="&#x10b;" horiz-adv-x="514" 
d="M263 475q105 0 147.5 -32.5t51.5 -121.5h-68q-5 55 -32.5 77.5t-98.5 22.5q-39 0 -64 -7.5t-39.5 -19t-21 -38.5t-8 -50.5t-1.5 -71.5q0 -34 0.5 -52.5t3 -42.5t8 -35.5t15 -25t24 -19t35 -9.5t48.5 -4q73 0 100 24.5t32 85.5h68q-8 -96 -50 -130t-150 -34
q-125 0 -163.5 48t-38.5 194t38.5 193.5t163.5 47.5zM301 637v-76h-60v76h60z" />
    <glyph glyph-name="Ccaron" unicode="&#x10c;" horiz-adv-x="619" 
d="M491 220v6h72v-9q0 -60 -10.5 -100.5t-28 -65t-50 -37.5t-66 -17t-86.5 -5h-15q-44 1 -73.5 3.5t-59.5 11t-48 23.5t-33 39.5t-21.5 61t-6.5 86.5v203q0 50 6.5 86.5t21.5 61t33 39.5t48 23.5t59.5 11t73.5 3.5h15q63 -1 101 -7.5t71.5 -26t49 -58.5t18.5 -103h-72
q-3 47 -12 73.5t-33 39.5t-48 16t-75 3h-15q-31 0 -49 -1t-39 -4.5t-31.5 -10.5t-22 -18t-16.5 -29t-8 -43t-3 -59v-197q0 -34 3 -59t8 -43t16.5 -29t22 -18t31.5 -10.5t39 -4.5t49 -1h15q37 0 56.5 1.5t42 6.5t33 15.5t20.5 29t13.5 45.5t3.5 67zM204 780l32 19l83 -87
l82 87l32 -19l-78 -108h-73z" />
    <glyph glyph-name="ccaron" unicode="&#x10d;" horiz-adv-x="514" 
d="M263 475q105 0 147.5 -32.5t51.5 -121.5h-68q-5 55 -32.5 77.5t-98.5 22.5q-39 0 -64 -7.5t-39.5 -19t-21 -38.5t-8 -50.5t-1.5 -71.5q0 -34 0.5 -52.5t3 -42.5t8 -35.5t15 -25t24 -19t35 -9.5t48.5 -4q73 0 100 24.5t32 85.5h68q-8 -96 -50 -130t-150 -34
q-125 0 -163.5 48t-38.5 194t38.5 193.5t163.5 47.5zM150 626l32 19l83 -87l82 87l32 -19q-65 -89 -78 -108h-73z" />
    <glyph glyph-name="Dcaron" unicode="&#x10e;" horiz-adv-x="658" 
d="M593 365v-93q0 -148 -47.5 -210t-184.5 -62h-267v637h267q137 0 184.5 -62t47.5 -210zM166 574v-511h194q24 0 43.5 2t35 7.5t27.5 10.5t20.5 17t14.5 20t10 26.5t6 30t3 36.5t1 39.5v46.5v40q0 39 -0.5 57t-2 47.5t-6 42t-12 31t-19 26.5t-28.5 16.5t-40 11.5t-53 3
h-194zM215 780l32 19l83 -87l81 87l33 -19q-65 -89 -78 -108h-73z" />
    <glyph glyph-name="dcaron" unicode="&#x10f;" horiz-adv-x="551" 
d="M520 568h-19v69h68v-53q0 -39 -23 -91h-50q24 48 24 75zM255 -8q-118 0 -156 48.5t-38 193.5q0 147 39 194t155 47q76 0 130 -38l3 1v199h68v-637h-62l-2 41h-4q-18 -18 -54 -33.5t-79 -15.5zM129 234q0 -46 1.5 -71.5t8.5 -51.5t20.5 -38t36.5 -19.5t59 -7.5q39 0 72 13
t47 25l14 13v282q-18 15 -53.5 28.5t-79.5 13.5t-69.5 -9t-38 -35t-15.5 -55.5t-3 -87.5z" />
    <glyph glyph-name="Dcroat" unicode="&#x110;" horiz-adv-x="658" 
d="M593 365v-93q0 -148 -47.5 -210t-184.5 -62h-267v637h267q137 0 184.5 -62t47.5 -210zM166 574v-511h194q24 0 43.5 2t35 7.5t27.5 10.5t20.5 17t14.5 20t10 26.5t6 30t3 36.5t1 39.5v46.5v40q0 39 -0.5 57t-2 47.5t-6 42t-12 31t-19 26.5t-28.5 16.5t-40 11.5t-53 3
h-194zM212 778h233v-47h-233v47z" />
    <glyph glyph-name="dcroat" unicode="&#x111;" 
d="M281 581h107v56h68v-56h59v-47h-59v-534h-62l-2 41h-4q-18 -18 -54 -33.5t-79 -15.5q-118 0 -156 48.5t-38 193.5q0 147 39 194t155 47q76 0 130 -38l3 1v96h-107v47zM129 234q0 -46 1.5 -71.5t8.5 -51.5t20.5 -38t36.5 -19.5t59 -7.5q39 0 72 13t47 25l14 13v282
q-18 15 -53.5 28.5t-79.5 13.5t-69.5 -9t-38 -35t-15.5 -55.5t-3 -87.5z" />
    <glyph glyph-name="Emacron" unicode="&#x112;" horiz-adv-x="547" 
d="M166 574v-211h320v-63h-320v-237h335v-63h-407v637h407v-63h-335zM174 778h233v-47h-233v47z" />
    <glyph glyph-name="emacron" unicode="&#x113;" horiz-adv-x="512" 
d="M263 -8q-125 0 -163.5 48t-38.5 194t38.5 193.5t163.5 47.5t163.5 -47.5t38.5 -193.5v-13h-336q0 -42 2 -66t9 -48t21.5 -35.5t39 -18.5t62.5 -7q27 0 57 5t53 12t42 14.5t29 12.5l11 4v-62q-3 -1 -17.5 -6.5t-24.5 -8.5t-29 -8.5t-35.5 -8.5t-39.5 -5.5t-46 -2.5z
M129 275h268q-1 43 -5.5 67t-18.5 44t-40 27.5t-70 7.5t-70 -7.5t-40 -27.5t-18.5 -44t-5.5 -67zM163 608h234v-47h-234v47z" />
    <glyph glyph-name="Ebreve" unicode="&#x114;" horiz-adv-x="547" 
d="M166 574v-211h320v-63h-320v-237h335v-63h-407v637h407v-63h-335zM174 799h43q6 -34 31.5 -56.5t59.5 -22.5q32 0 57.5 22.5t33.5 56.5h42q-8 -53 -45.5 -90t-87.5 -37q-52 0 -88.5 36.5t-45.5 90.5z" />
    <glyph glyph-name="ebreve" unicode="&#x115;" horiz-adv-x="512" 
d="M263 -8q-125 0 -163.5 48t-38.5 194t38.5 193.5t163.5 47.5t163.5 -47.5t38.5 -193.5v-13h-336q0 -42 2 -66t9 -48t21.5 -35.5t39 -18.5t62.5 -7q27 0 57 5t53 12t42 14.5t29 12.5l11 4v-62q-3 -1 -17.5 -6.5t-24.5 -8.5t-29 -8.5t-35.5 -8.5t-39.5 -5.5t-46 -2.5z
M129 275h268q-1 43 -5.5 67t-18.5 44t-40 27.5t-70 7.5t-70 -7.5t-40 -27.5t-18.5 -44t-5.5 -67zM135 645h43q6 -34 31.5 -56.5t59.5 -22.5q33 0 58 22.5t33 56.5h42q-8 -53 -45.5 -90t-87.5 -37q-52 0 -88.5 36.5t-45.5 90.5z" />
    <glyph glyph-name="Eogonek" unicode="&#x118;" horiz-adv-x="547" 
d="M439 0h-345v637h407v-63h-335v-211h320v-63h-320v-237h335v-63q-32 -4 -60 -29.5t-28 -50.5q0 -42 45 -42l23 2v-46q-16 -4 -35 -4q-34 0 -56 21t-22 57q0 27 20.5 53t50.5 39z" />
    <glyph glyph-name="eogonek" unicode="&#x119;" horiz-adv-x="512" 
d="M263 -8q-125 0 -163.5 48t-38.5 194t38.5 193.5t163.5 47.5t163.5 -47.5t38.5 -193.5v-13h-336q0 -42 2 -66t9 -48t21.5 -35.5t39 -18.5t62.5 -7q27 0 57 5t53 12t42 14.5t29 12.5l11 4v-62q-58 -21 -91.5 -53t-33.5 -59q0 -42 44 -42l23 2v-46q-15 -4 -34 -4
q-34 0 -56.5 21t-22.5 57q0 48 52 90q-44 -6 -73 -6zM129 275h268q-1 43 -5.5 67t-18.5 44t-40 27.5t-70 7.5t-70 -7.5t-40 -27.5t-18.5 -44t-5.5 -67z" />
    <glyph glyph-name="Gcircumflex" unicode="&#x11c;" horiz-adv-x="619" 
d="M491 220v48h-134v63h206v-114q0 -60 -10.5 -100.5t-28 -65t-50 -37.5t-66 -17t-86.5 -5h-15q-44 1 -73.5 3.5t-59.5 11t-48 23.5t-33 39.5t-21.5 61t-6.5 86.5v203q0 50 6.5 86.5t21.5 61t33 39.5t48 23.5t59.5 11t73.5 3.5h15q63 -1 101 -7.5t71.5 -26t49 -58.5
t18.5 -103h-72q-3 47 -12 73.5t-33 39.5t-48 16t-75 3h-15q-31 0 -49 -1t-39 -4.5t-31.5 -10.5t-22 -18t-16.5 -29t-8 -43t-3 -59v-197q0 -34 3 -59t8 -43t16.5 -29t22 -18t31.5 -10.5t39 -4.5t49 -1h15q37 0 56.5 1.5t42 6.5t33 15.5t20.5 29t13.5 45.5t3.5 67zM433 691
l-32 -19l-83 87l-82 -87l-32 19q65 89 78 108h73z" />
    <glyph glyph-name="gcircumflex" unicode="&#x11d;" 
d="M255 -8q-118 0 -156 48.5t-38 193.5q0 147 39 194t155 47q47 0 82.5 -12.5t51.5 -24.5l3 29h64v-467q0 -104 -46.5 -141t-150.5 -37q-49 0 -75 5v61q26 -9 68 -9q74 0 105.5 21t31.5 94l3 47h-4q-18 -18 -54.5 -33.5t-78.5 -15.5zM129 234q0 -46 1.5 -71.5t8.5 -51.5
t20.5 -38t36.5 -19.5t59 -7.5q39 0 72 13t47 25l14 13v282q-18 15 -53.5 28.5t-79.5 13.5t-69.5 -9t-38 -35t-15.5 -55.5t-3 -87.5zM385 537l-33 -19l-82 87l-82 -87l-32 19l78 108h73z" />
    <glyph glyph-name="Gbreve" unicode="&#x11e;" horiz-adv-x="619" 
d="M491 220v48h-134v63h206v-114q0 -60 -10.5 -100.5t-28 -65t-50 -37.5t-66 -17t-86.5 -5h-15q-44 1 -73.5 3.5t-59.5 11t-48 23.5t-33 39.5t-21.5 61t-6.5 86.5v203q0 50 6.5 86.5t21.5 61t33 39.5t48 23.5t59.5 11t73.5 3.5h15q63 -1 101 -7.5t71.5 -26t49 -58.5
t18.5 -103h-72q-3 47 -12 73.5t-33 39.5t-48 16t-75 3h-15q-31 0 -49 -1t-39 -4.5t-31.5 -10.5t-22 -18t-16.5 -29t-8 -43t-3 -59v-197q0 -34 3 -59t8 -43t16.5 -29t22 -18t31.5 -10.5t39 -4.5t49 -1h15q37 0 56.5 1.5t42 6.5t33 15.5t20.5 29t13.5 45.5t3.5 67zM185 799h43
q6 -34 31.5 -56.5t59.5 -22.5q33 0 58 22.5t33 56.5h42q-7 -53 -44.5 -90t-88.5 -37t-87.5 36.5t-46.5 90.5z" />
    <glyph glyph-name="gbreve" unicode="&#x11f;" 
d="M255 -8q-118 0 -156 48.5t-38 193.5q0 147 39 194t155 47q47 0 82.5 -12.5t51.5 -24.5l3 29h64v-467q0 -104 -46.5 -141t-150.5 -37q-49 0 -75 5v61q26 -9 68 -9q74 0 105.5 21t31.5 94l3 47h-4q-18 -18 -54.5 -33.5t-78.5 -15.5zM129 234q0 -46 1.5 -71.5t8.5 -51.5
t20.5 -38t36.5 -19.5t59 -7.5q39 0 72 13t47 25l14 13v282q-18 15 -53.5 28.5t-79.5 13.5t-69.5 -9t-38 -35t-15.5 -55.5t-3 -87.5zM137 645h42q7 -34 32.5 -56.5t59.5 -22.5q32 0 57.5 22.5t33.5 56.5h42q-8 -53 -45.5 -90t-87.5 -37q-52 0 -88.5 36.5t-45.5 90.5z" />
    <glyph glyph-name="Gdotaccent" unicode="&#x120;" horiz-adv-x="619" 
d="M491 220v48h-134v63h206v-114q0 -60 -10.5 -100.5t-28 -65t-50 -37.5t-66 -17t-86.5 -5h-15q-44 1 -73.5 3.5t-59.5 11t-48 23.5t-33 39.5t-21.5 61t-6.5 86.5v203q0 50 6.5 86.5t21.5 61t33 39.5t48 23.5t59.5 11t73.5 3.5h15q63 -1 101 -7.5t71.5 -26t49 -58.5
t18.5 -103h-72q-3 47 -12 73.5t-33 39.5t-48 16t-75 3h-15q-31 0 -49 -1t-39 -4.5t-31.5 -10.5t-22 -18t-16.5 -29t-8 -43t-3 -59v-197q0 -34 3 -59t8 -43t16.5 -29t22 -18t31.5 -10.5t39 -4.5t49 -1h15q37 0 56.5 1.5t42 6.5t33 15.5t20.5 29t13.5 45.5t3.5 67zM343 791
v-76h-60v76h60z" />
    <glyph glyph-name="gdotaccent" unicode="&#x121;" 
d="M255 -8q-118 0 -156 48.5t-38 193.5q0 147 39 194t155 47q47 0 82.5 -12.5t51.5 -24.5l3 29h64v-467q0 -104 -46.5 -141t-150.5 -37q-49 0 -75 5v61q26 -9 68 -9q74 0 105.5 21t31.5 94l3 47h-4q-18 -18 -54.5 -33.5t-78.5 -15.5zM129 234q0 -46 1.5 -71.5t8.5 -51.5
t20.5 -38t36.5 -19.5t59 -7.5q39 0 72 13t47 25l14 13v282q-18 15 -53.5 28.5t-79.5 13.5t-69.5 -9t-38 -35t-15.5 -55.5t-3 -87.5zM300 637v-76h-60v76h60z" />
    <glyph glyph-name="Hcircumflex" unicode="&#x124;" horiz-adv-x="667" 
d="M166 0h-72v637h72v-274h335v274h72v-637h-72v300h-335v-300zM452 691l-32 -19l-83 87l-82 -87l-32 19q65 89 78 108h73z" />
    <glyph glyph-name="hcircumflex" unicode="&#x125;" 
d="M153 0h-69v637h69v-216q23 19 63.5 36.5t85.5 17.5q78 0 120.5 -40t42.5 -108v-327h-68v306q0 60 -24.5 85.5t-81.5 25.5q-41 0 -75.5 -14.5t-48.5 -29.5l-14 -15v-358zM416 537l-32 -19l-83 87l-82 -87l-32 19q65 89 78 108h73z" />
    <glyph glyph-name="Hbar" unicode="&#x126;" horiz-adv-x="667" 
d="M166 0h-72v476h-50v47h50v114h72v-114h335v114h72v-114h55v-47h-55v-476h-72v300h-335v-300zM166 363h335v113h-335v-113z" />
    <glyph glyph-name="hbar" unicode="&#x127;" 
d="M32 581h52v56h69v-56h113v-47h-113v-113q23 19 63.5 36.5t85.5 17.5q78 0 120.5 -40t42.5 -108v-327h-68v306q0 60 -24.5 85.5t-81.5 25.5q-41 0 -75.5 -14.5t-48.5 -29.5l-14 -15v-358h-69v534h-52v47z" />
    <glyph glyph-name="Itilde" unicode="&#x128;" horiz-adv-x="260" 
d="M166 0h-72v637h72v-637zM180 691q-21 0 -49.5 19.5t-48.5 19.5q-28 0 -48 -35l-27 28q31 64 73 64q21 0 49.5 -20t49.5 -20q27 0 47 36l28 -29q-31 -61 -74 -63z" />
    <glyph glyph-name="itilde" unicode="&#x129;" horiz-adv-x="237" 
d="M153 467v-467h-69v467h69zM169 541q-22 0 -50 19.5t-49 19.5q-13 0 -26.5 -11t-20.5 -24l-28 28q31 64 73 64q22 0 50 -20t49 -20q13 0 26.5 11t21.5 25l27 -29q-29 -61 -73 -63z" />
    <glyph glyph-name="imacron" unicode="&#x12b;" horiz-adv-x="237" 
d="M153 467v-467h-69v467h69zM2 608h234v-47h-234v47z" />
    <glyph glyph-name="Ibreve" unicode="&#x12c;" horiz-adv-x="263" 
d="M166 0h-72v637h72v-637zM-2 799h43q6 -34 31.5 -56.5t59.5 -22.5q33 0 58 22.5t33 56.5h42q-8 -53 -45.5 -90t-87.5 -37q-51 0 -88 36.5t-46 90.5z" />
    <glyph glyph-name="Iogonek" unicode="&#x12e;" horiz-adv-x="260" 
d="M94 0v637h72v-637h-10q-32 -4 -60 -29.5t-28 -50.5q0 -42 45 -42l23 2v-46q-16 -4 -34 -4q-34 0 -56.5 21t-22.5 57q0 27 20.5 53t50.5 39z" />
    <glyph glyph-name="iogonek" unicode="&#x12f;" horiz-adv-x="237" 
d="M84 0v467h69v-467h-7q-32 -4 -59.5 -29.5t-27.5 -50.5q0 -42 44 -42l23 2v-46q-15 -4 -34 -4q-34 0 -56.5 21t-22.5 57q0 27 20.5 53t50.5 39zM153 637v-71h-69v71h69z" />
    <glyph glyph-name="dotlessi" unicode="&#x131;" horiz-adv-x="237" 
d="M153 467v-467h-69v467h69z" />
    <glyph glyph-name="Jcircumflex" unicode="&#x134;" horiz-adv-x="509" 
d="M43 179v21h72v-24q0 -77 22.5 -99t85.5 -22h12q63 0 85.5 22t22.5 99v461h72v-458q0 -104 -40.5 -145.5t-139.5 -41.5h-12q-99 0 -139.5 41.5t-40.5 145.5zM364 691l-33 -19l-82 87l-82 -87l-32 19l78 108h73z" />
    <glyph glyph-name="jcircumflex" unicode="&#x135;" horiz-adv-x="218" 
d="M134 467v-498q0 -78 -34 -108.5t-109 -30.5h-82v58h89q38 0 52.5 17.5t14.5 57.5v504h69zM214 537l-33 -19l-82 87l-82 -87l-32 19l78 108h73z" />
    <glyph glyph-name="Lacute" unicode="&#x139;" horiz-adv-x="497" 
d="M488 0h-394v637h72v-574h322v-63zM287 672l-38 19q40 89 48 108h73l-4 -5q-3 -6 -11.5 -19l-17 -26t-23.5 -36t-27 -41z" />
    <glyph glyph-name="lacute" unicode="&#x13a;" horiz-adv-x="309" 
d="M75 139v498h68v-504q0 -40 15 -57.5t53 -17.5h89v-58h-83q-74 0 -108 30.5t-34 108.5zM215 518l-38 19q40 89 48 108h73l-4 -5q-3 -6 -11.5 -19l-17 -26t-23.5 -36t-27 -41z" />
    <glyph glyph-name="Lcaron" unicode="&#x13d;" horiz-adv-x="497" 
d="M272 563h-19v74h70v-53q0 -39 -23 -91h-51q23 46 23 70zM488 0h-394v637h72v-574h322v-63z" />
    <glyph glyph-name="lcaron" unicode="&#x13e;" horiz-adv-x="309" 
d="M218 568h-19v69h69v-53q0 -35 -23 -91h-50q23 46 23 75zM75 139v498h68v-504q0 -40 15 -57.5t53 -17.5h89v-58h-83q-74 0 -108 30.5t-34 108.5z" />
    <glyph glyph-name="Ldotaccent" unicode="&#x13f;" horiz-adv-x="497" 
d="M488 0h-394v637h72v-574h322v-63zM313 637v-76h-59v76h59z" />
    <glyph glyph-name="Lslash" unicode="&#x141;" horiz-adv-x="516" 
d="M507 0h-394v300l-67 -55v63l67 54v275h72v-215l165 136v-61l-165 -137v-293h322v-67z" />
    <glyph glyph-name="lslash" unicode="&#x142;" horiz-adv-x="353" 
d="M120 139v151l-55 -45v63l55 44v285h68v-229l84 69v-61l-84 -70v-213q0 -40 14.5 -57.5t52.5 -17.5h90v-58h-83q-75 0 -108.5 30.5t-33.5 108.5z" />
    <glyph glyph-name="Nacute" unicode="&#x143;" horiz-adv-x="668" 
d="M574 637v-637h-116l-288 565h-4v-565h-72v637h117l286 -571h5v571h72zM335 672l-38 19l49 108h73q1 0 -21 -33t-63 -94z" />
    <glyph glyph-name="nacute" unicode="&#x144;" 
d="M84 467h69v-46q23 19 63.5 36.5t85.5 17.5q78 0 120.5 -40t42.5 -108v-327h-68v306q0 60 -24.5 85.5t-81.5 25.5q-41 0 -75.5 -14.5t-48.5 -29.5l-14 -15v-358h-69v467zM247 518l-38 19q40 89 48 108h74z" />
    <glyph glyph-name="Ncaron" unicode="&#x147;" horiz-adv-x="668" 
d="M574 637v-637h-116l-288 565h-4v-565h-72v637h117l286 -571h5v571h72zM215 780l32 19l83 -87l81 87l33 -19q-65 -89 -78 -108h-73z" />
    <glyph glyph-name="ncaron" unicode="&#x148;" 
d="M84 467h69v-46q23 19 63.5 36.5t85.5 17.5q78 0 120.5 -40t42.5 -108v-327h-68v306q0 60 -24.5 85.5t-81.5 25.5q-41 0 -75.5 -14.5t-48.5 -29.5l-14 -15v-358h-69v467zM156 626l32 19l83 -87l81 87l33 -19q-65 -89 -78 -108h-73z" />
    <glyph glyph-name="Eng" unicode="&#x14a;" horiz-adv-x="668" 
d="M574 637v-628q0 -102 -41.5 -144.5t-140.5 -42.5h-33v66q81 0 111 20.5t32 91.5h-44l-288 565h-4v-565h-72v637h117l286 -571h5v571h72z" />
    <glyph glyph-name="eng" unicode="&#x14b;" 
d="M84 467h69v-46q23 19 63.5 36.5t85.5 17.5q78 0 120.5 -40t42.5 -108v-358q0 -78 -33.5 -108.5t-108.5 -30.5h-53v58h60q38 0 52.5 17.5t14.5 57.5v343q0 60 -24.5 85.5t-81.5 25.5q-41 0 -75.5 -14.5t-48.5 -29.5l-14 -15v-358h-69v467z" />
    <glyph glyph-name="Omacron" unicode="&#x14c;" horiz-adv-x="629" 
d="M65 420q0 50 6.5 86.5t21.5 61t33 39.5t48 23.5t59.5 11t73.5 3.5h15q53 -1 86.5 -5t66 -17t50 -37.5t28 -65t10.5 -100.5v-203q0 -60 -10.5 -100.5t-28 -65t-50 -37.5t-66 -17t-86.5 -5h-15q-44 1 -73.5 3.5t-59.5 11t-48 23.5t-33 39.5t-21.5 61t-6.5 86.5v203z
M491 220v197q0 40 -3.5 67t-13.5 45.5t-20.5 29t-33 15.5t-42 6.5t-56.5 1.5h-15q-31 0 -49 -1t-39 -4.5t-31.5 -10.5t-22 -18t-16.5 -29t-8 -43t-3 -59v-197q0 -34 3 -59t8 -43t16.5 -29t22 -18t31.5 -10.5t39 -4.5t49 -1h15q37 0 56.5 1.5t42 6.5t33 15.5t20.5 29
t13.5 45.5t3.5 67zM201 778h234v-47h-234v47z" />
    <glyph glyph-name="omacron" unicode="&#x14d;" horiz-adv-x="526" 
d="M465 234q0 -146 -38.5 -194t-163.5 -48t-163.5 48t-38.5 194t38.5 193.5t163.5 47.5t163.5 -47.5t38.5 -193.5zM397 234q0 48 -1.5 71.5t-8 50.5t-21 38.5t-39.5 19t-64 7.5t-64 -7.5t-39.5 -19t-21 -38.5t-8 -50.5t-1.5 -71.5q0 -34 0.5 -52.5t3 -42.5t8 -35.5t15 -25
t24 -19t35 -9.5t48.5 -4t48.5 4t35 9.5t24 19t15 25t8 35.5t3 42.5t0.5 52.5zM146 608h234v-47h-234v47z" />
    <glyph glyph-name="Obreve" unicode="&#x14e;" horiz-adv-x="629" 
d="M65 420q0 50 6.5 86.5t21.5 61t33 39.5t48 23.5t59.5 11t73.5 3.5h15q53 -1 86.5 -5t66 -17t50 -37.5t28 -65t10.5 -100.5v-203q0 -60 -10.5 -100.5t-28 -65t-50 -37.5t-66 -17t-86.5 -5h-15q-44 1 -73.5 3.5t-59.5 11t-48 23.5t-33 39.5t-21.5 61t-6.5 86.5v203z
M491 220v197q0 40 -3.5 67t-13.5 45.5t-20.5 29t-33 15.5t-42 6.5t-56.5 1.5h-15q-31 0 -49 -1t-39 -4.5t-31.5 -10.5t-22 -18t-16.5 -29t-8 -43t-3 -59v-197q0 -34 3 -59t8 -43t16.5 -29t22 -18t31.5 -10.5t39 -4.5t49 -1h15q37 0 56.5 1.5t42 6.5t33 15.5t20.5 29
t13.5 45.5t3.5 67zM187 799h43q6 -34 31.5 -56.5t59.5 -22.5q33 0 58 22.5t33 56.5h42q-7 -53 -45 -90t-88 -37q-51 0 -88 36.5t-46 90.5z" />
    <glyph glyph-name="obreve" unicode="&#x14f;" horiz-adv-x="526" 
d="M465 234q0 -146 -38.5 -194t-163.5 -48t-163.5 48t-38.5 194t38.5 193.5t163.5 47.5t163.5 -47.5t38.5 -193.5zM397 234q0 48 -1.5 71.5t-8 50.5t-21 38.5t-39.5 19t-64 7.5t-64 -7.5t-39.5 -19t-21 -38.5t-8 -50.5t-1.5 -71.5q0 -34 0.5 -52.5t3 -42.5t8 -35.5t15 -25
t24 -19t35 -9.5t48.5 -4t48.5 4t35 9.5t24 19t15 25t8 35.5t3 42.5t0.5 52.5zM129 645h43q6 -34 31.5 -56.5t59.5 -22.5q33 0 58 22.5t33 56.5h42q-7 -53 -45 -90t-88 -37q-51 0 -88 36.5t-46 90.5z" />
    <glyph glyph-name="Ohungarumlaut" unicode="&#x150;" horiz-adv-x="629" 
d="M65 420q0 50 6.5 86.5t21.5 61t33 39.5t48 23.5t59.5 11t73.5 3.5h15q53 -1 86.5 -5t66 -17t50 -37.5t28 -65t10.5 -100.5v-203q0 -60 -10.5 -100.5t-28 -65t-50 -37.5t-66 -17t-86.5 -5h-15q-44 1 -73.5 3.5t-59.5 11t-48 23.5t-33 39.5t-21.5 61t-6.5 86.5v203z
M491 220v197q0 40 -3.5 67t-13.5 45.5t-20.5 29t-33 15.5t-42 6.5t-56.5 1.5h-15q-31 0 -49 -1t-39 -4.5t-31.5 -10.5t-22 -18t-16.5 -29t-8 -43t-3 -59v-197q0 -34 3 -59t8 -43t16.5 -29t22 -18t31.5 -10.5t39 -4.5t49 -1h15q37 0 56.5 1.5t42 6.5t33 15.5t20.5 29
t13.5 45.5t3.5 67zM395 672l-38 19l49 108h73q1 0 -21 -33t-63 -94zM280 672l-38 19l49 108h73q1 0 -21 -33t-63 -94z" />
    <glyph glyph-name="ohungarumlaut" unicode="&#x151;" horiz-adv-x="526" 
d="M465 234q0 -146 -38.5 -194t-163.5 -48t-163.5 48t-38.5 194t38.5 193.5t163.5 47.5t163.5 -47.5t38.5 -193.5zM397 234q0 48 -1.5 71.5t-8 50.5t-21 38.5t-39.5 19t-64 7.5t-64 -7.5t-39.5 -19t-21 -38.5t-8 -50.5t-1.5 -71.5q0 -34 0.5 -52.5t3 -42.5t8 -35.5t15 -25
t24 -19t35 -9.5t48.5 -4t48.5 4t35 9.5t24 19t15 25t8 35.5t3 42.5t0.5 52.5zM333 518l-38 19l49 108h73q1 0 -21 -33t-63 -94zM218 518l-38 19l49 108h73q1 0 -21 -33t-63 -94z" />
    <glyph glyph-name="OE" unicode="&#x152;" horiz-adv-x="945" 
d="M65 420q0 50 6.5 86.5t21.5 61t33 39.5t48 23.5t59.5 11t73.5 3.5h15q122 -2 170 -31v23h407v-67h-335v-206h320v-64h-320v-233h335v-67h-407v23q-48 -29 -170 -31h-15q-44 1 -73.5 3.5t-59.5 11t-48 23.5t-33 39.5t-21.5 61t-6.5 86.5v203zM492 220v208q0 44 -7 72.5
t-17.5 45t-34.5 24.5t-46 10t-65 2h-15q-37 0 -56.5 -1.5t-42.5 -6.5t-33.5 -15.5t-20.5 -29t-13.5 -45.5t-3.5 -67v-197q0 -40 3.5 -67t13.5 -45.5t20.5 -29t33.5 -15.5t42.5 -6.5t56.5 -1.5h15q37 0 56.5 1.5t42 6.5t33.5 15.5t21 29t13.5 45.5t3.5 67z" />
    <glyph glyph-name="oe" unicode="&#x153;" horiz-adv-x="848" 
d="M599 -8q-129 0 -168 54q-39 -54 -168 -54q-125 0 -163.5 48t-38.5 194t38.5 193.5t163.5 47.5q129 0 168 -54q39 54 168 54q125 0 164 -48t39 -193v-13h-337q0 -43 2 -66.5t9 -48t21.5 -35.5t39 -18t62.5 -7q27 0 57 5t53 12t42 14.5t29 12.5l11 4v-62q-3 -1 -17.5 -6.5
t-24.5 -8.5t-29 -8.5t-35.5 -8.5t-39.5 -5.5t-46 -2.5zM397 234q0 48 -1.5 71.5t-8 50.5t-21 38.5t-39.5 19t-64 7.5t-64 -7.5t-39.5 -19t-21 -38.5t-8 -50.5t-1.5 -71.5q0 -34 0.5 -52.5t3 -42.5t8 -35.5t15 -25t24 -19t35 -9.5t48.5 -4q47 0 74 9t40 35t16.5 55.5
t3.5 88.5zM465 275h268q-1 43 -5.5 67t-18.5 44t-40 27.5t-70 7.5q-43 0 -69.5 -7.5t-40.5 -27.5t-18.5 -44.5t-5.5 -66.5z" />
    <glyph glyph-name="Racute" unicode="&#x154;" horiz-adv-x="658" 
d="M94 0v637h286q101 0 141.5 -38t40.5 -143q0 -134 -79 -155v-4q86 -13 86 -127v-170h-73v153q0 64 -28 89t-92 25h-210v-267h-72zM166 330h187q135 0 135 120q0 72 -20 98t-94 26h-208v-244zM309 672l-38 19q40 89 48 108h73l-4 -5q-3 -6 -11.5 -19l-17 -26t-23.5 -36
t-27 -41z" />
    <glyph glyph-name="racute" unicode="&#x155;" horiz-adv-x="306" 
d="M84 467h65v-49q54 49 129 49h38v-61q-18 2 -49 2q-41 0 -69.5 -12.5t-36.5 -25.5l-8 -12v-358h-69v467zM175 518l-38 19q40 89 48 108h73l-4 -5q-3 -6 -11.5 -19l-17 -26t-23.5 -36t-27 -41z" />
    <glyph glyph-name="Rcaron" unicode="&#x158;" horiz-adv-x="658" 
d="M94 0v637h286q101 0 141.5 -38t40.5 -143q0 -134 -79 -155v-4q86 -13 86 -127v-170h-73v153q0 64 -28 89t-92 25h-210v-267h-72zM166 330h187q135 0 135 120q0 72 -20 98t-94 26h-208v-244zM211 780l32 19l83 -87l81 87l33 -19q-65 -89 -78 -108h-73z" />
    <glyph glyph-name="rcaron" unicode="&#x159;" horiz-adv-x="306" 
d="M84 467h65v-49q54 49 129 49h38v-61q-18 2 -49 2q-41 0 -69.5 -12.5t-36.5 -25.5l-8 -12v-358h-69v467zM64 626l32 19l83 -87l81 87l33 -19q-65 -89 -78 -108h-74z" />
    <glyph glyph-name="Sacute" unicode="&#x15a;" horiz-adv-x="609" 
d="M303 645q40 0 63.5 -1.5t53.5 -6.5t47 -16.5t33.5 -30.5t23.5 -49.5t7 -72.5h-72q-5 70 -33 92t-121 22q-35 0 -55 -1t-43 -6.5t-34.5 -16t-19 -30t-7.5 -48.5q0 -44 22 -69.5t57 -35t77 -13.5t84.5 -10.5t77.5 -20.5t57 -50t22 -93q0 -64 -15 -104t-50.5 -60t-76 -26
t-108.5 -6q-39 0 -67 2.5t-60.5 13.5t-53 30t-34 53.5t-13.5 83.5v29h73q0 -90 29.5 -119t118.5 -29h22q88 0 125.5 24t37.5 103q0 43 -22 67.5t-57 32.5t-77 11t-84.5 9.5t-77.5 21.5t-57 53t-22 98q0 101 55 135t174 34zM322 688l-38 19q40 89 48 108h74z" />
    <glyph glyph-name="sacute" unicode="&#x15b;" horiz-adv-x="458" 
d="M244 421q-121 0 -121 -70q0 -31 30 -48t73.5 -26t86.5 -20t73 -39.5t30 -75.5q0 -46 -14.5 -77t-43 -46.5t-59.5 -21t-75 -5.5q-112 0 -182 34l20 56q19 -10 66 -23t94 -13q71 0 98 19t27 64q0 35 -30 54t-72.5 27.5t-85.5 19.5t-73 41t-30 80q0 124 172 124
q99 0 165 -15v-62l-19 6q-19 5 -56 11t-74 6zM255 518l-38 19q39 89 48 108h73l-4 -5q-3 -6 -11.5 -19l-17 -26t-23.5 -36t-27 -41z" />
    <glyph glyph-name="Scircumflex" unicode="&#x15c;" horiz-adv-x="609" 
d="M303 645q40 0 63.5 -1.5t53.5 -6.5t47 -16.5t33.5 -30.5t23.5 -49.5t7 -72.5h-72q-5 70 -33 92t-121 22q-35 0 -55 -1t-43 -6.5t-34.5 -16t-19 -30t-7.5 -48.5q0 -44 22 -69.5t57 -35t77 -13.5t84.5 -10.5t77.5 -20.5t57 -50t22 -93q0 -64 -15 -104t-50.5 -60t-76 -26
t-108.5 -6q-39 0 -67 2.5t-60.5 13.5t-53 30t-34 53.5t-13.5 83.5v29h73q0 -90 29.5 -119t118.5 -29h22q88 0 125.5 24t37.5 103q0 43 -22 67.5t-57 32.5t-77 11t-84.5 9.5t-77.5 21.5t-57 53t-22 98q0 101 55 135t174 34zM430 691l-32 -19l-83 87l-81 -87l-33 19
q65 89 78 108h73z" />
    <glyph glyph-name="scircumflex" unicode="&#x15d;" horiz-adv-x="458" 
d="M244 421q-121 0 -121 -70q0 -31 30 -48t73.5 -26t86.5 -20t73 -39.5t30 -75.5q0 -46 -14.5 -77t-43 -46.5t-59.5 -21t-75 -5.5q-112 0 -182 34l20 56q19 -10 66 -23t94 -13q71 0 98 19t27 64q0 35 -30 54t-72.5 27.5t-85.5 19.5t-73 41t-30 80q0 124 172 124
q99 0 165 -15v-62l-19 6q-19 5 -56 11t-74 6zM355 537l-32 -19l-83 87l-81 -87l-33 19q65 89 78 108h73z" />
    <glyph glyph-name="Scaron" unicode="&#x160;" horiz-adv-x="609" 
d="M303 645q40 0 63.5 -1.5t53.5 -6.5t47 -16.5t33.5 -30.5t23.5 -49.5t7 -72.5h-72q-5 70 -33 92t-121 22q-35 0 -55 -1t-43 -6.5t-34.5 -16t-19 -30t-7.5 -48.5q0 -44 22 -69.5t57 -35t77 -13.5t84.5 -10.5t77.5 -20.5t57 -50t22 -93q0 -64 -15 -104t-50.5 -60t-76 -26
t-108.5 -6q-39 0 -67 2.5t-60.5 13.5t-53 30t-34 53.5t-13.5 83.5v29h73q0 -90 29.5 -119t118.5 -29h22q88 0 125.5 24t37.5 103q0 43 -22 67.5t-57 32.5t-77 11t-84.5 9.5t-77.5 21.5t-57 53t-22 98q0 101 55 135t174 34zM185 780l32 19l83 -87l82 87l32 -19l-78 -108h-73z
" />
    <glyph glyph-name="scaron" unicode="&#x161;" horiz-adv-x="448" 
d="M235 421q-66 0 -93.5 -18t-27.5 -52q0 -31 30 -48t73 -26t86.5 -20t73.5 -39.5t30 -75.5q0 -46 -14.5 -77t-43 -46.5t-60 -21t-74.5 -5.5q-110 0 -183 34l20 56q19 -10 66.5 -23t94.5 -13q71 0 97.5 19t26.5 64q0 35 -30 54t-72.5 27.5t-85.5 19.5t-73 41t-30 80
q0 124 172 124q97 0 166 -15v-62l-19 6q-19 5 -56.5 11t-73.5 6zM114 627l32 19l83 -87l82 87l32 -19q-65 -89 -78 -108h-73z" />
    <glyph glyph-name="Tcedilla" unicode="&#x162;" horiz-adv-x="502" 
d="M288 574v-574h-12q-3 -74 -33 -137h-60l11 19q10 18 21 51t11 61v6h-10v574h-208v63h483v-63h-203z" />
    <glyph glyph-name="tcedilla" unicode="&#x163;" horiz-adv-x="348" 
d="M170 -6v14q-75 22 -75 131v274h-68v54h68v112h68v-112h157v-54h-157v-280q0 -40 15 -57.5t53 -17.5h89v-58h-100q-4 -78 -33 -137h-60l11 19q10 18 21 51t11 61z" />
    <glyph glyph-name="Tcaron" unicode="&#x164;" horiz-adv-x="500" 
d="M288 574v-574h-72v574h-208v63h483v-63h-203zM139 780l32 19l83 -87l81 87l33 -19q-65 -89 -78 -108h-73z" />
    <glyph glyph-name="tcaron" unicode="&#x165;" horiz-adv-x="348" 
d="M238 568h-19v69h69v-53q0 -35 -23 -91h-50q23 46 23 75zM95 139v274h-68v54h68v112h68v-112h157v-54h-157v-280q0 -40 15 -57.5t53 -17.5h89v-58h-83q-75 0 -108.5 30.5t-33.5 108.5z" />
    <glyph glyph-name="Tbar" unicode="&#x166;" horiz-adv-x="500" 
d="M288 574v-574h-72v574h-208v63h483v-63h-203zM133 778h234v-47h-234v47z" />
    <glyph glyph-name="tbar" unicode="&#x167;" horiz-adv-x="348" 
d="M37 347h58v66h-68v54h68v112h68v-112h157v-54h-157v-66h108v-47h-108v-167q0 -40 15 -57.5t53 -17.5h89v-58h-83q-75 0 -108.5 30.5t-33.5 108.5v161h-58v47z" />
    <glyph glyph-name="Ubreve" unicode="&#x16c;" horiz-adv-x="646" 
d="M489 226v411h72v-414q0 -131 -53 -181t-188 -50h-13q-135 0 -188.5 50.5t-53.5 180.5v414h73v-411q0 -56 8.5 -90t31.5 -51.5t51 -23t78 -5.5h13q50 0 78 5.5t51 23t31.5 51.5t8.5 90zM189 799h43q6 -34 31.5 -56.5t59.5 -22.5q33 0 58 22.5t33 56.5h42q-8 -53 -45.5 -90
t-87.5 -37q-51 0 -88 36.5t-46 90.5z" />
    <glyph glyph-name="ubreve" unicode="&#x16d;" 
d="M456 0h-65v49q-21 -19 -64 -37.5t-89 -18.5q-77 0 -120 39.5t-43 107.5v327h68v-306q0 -60 25 -85t82 -25q41 0 75.5 14.5t48.5 28.5l14 15v358h68v-467zM137 645h42q7 -34 32.5 -56.5t59.5 -22.5q32 0 57.5 22.5t33.5 56.5h42q-8 -53 -45.5 -90t-87.5 -37
q-52 0 -88.5 36.5t-45.5 90.5z" />
    <glyph glyph-name="Uring" unicode="&#x16e;" horiz-adv-x="646" 
d="M489 226v411h72v-414q0 -131 -53 -181t-188 -50h-13q-135 0 -188.5 50.5t-53.5 180.5v414h73v-411q0 -56 8.5 -90t31.5 -51.5t51 -23t78 -5.5h13q50 0 78 5.5t51 23t31.5 51.5t8.5 90zM323 666q-28 0 -48 21t-20 50t20 49.5t48 20.5q27 0 46.5 -20.5t19.5 -49.5
t-19.5 -50t-46.5 -21zM323 696q15 0 26.5 12.5t11.5 28.5t-11.5 28t-26.5 12q-16 0 -27.5 -12t-11.5 -28q0 -17 11.5 -29t27.5 -12z" />
    <glyph glyph-name="uring" unicode="&#x16f;" 
d="M456 0h-65v49q-21 -19 -64 -37.5t-89 -18.5q-77 0 -120 39.5t-43 107.5v327h68v-306q0 -60 25 -85t82 -25q41 0 75.5 14.5t48.5 28.5l14 15v358h68v-467zM271 517q-28 0 -48 21t-20 50t20 49.5t48 20.5q27 0 46.5 -20.5t19.5 -49.5t-19.5 -50t-46.5 -21zM271 547
q15 0 26.5 12.5t11.5 28.5t-11.5 28t-26.5 12q-16 0 -27.5 -12t-11.5 -28q0 -17 11.5 -29t27.5 -12z" />
    <glyph glyph-name="Uhungarumlaut" unicode="&#x170;" horiz-adv-x="646" 
d="M489 226v411h72v-414q0 -131 -53 -181t-188 -50h-13q-135 0 -188.5 50.5t-53.5 180.5v414h73v-411q0 -56 8.5 -90t31.5 -51.5t51 -23t78 -5.5h13q50 0 78 5.5t51 23t31.5 51.5t8.5 90zM377 672l-38 19l49 108h73q1 0 -21 -33t-63 -94zM262 672l-38 19l49 108h73
q1 0 -21 -33t-63 -94z" />
    <glyph glyph-name="uhungarumlaut" unicode="&#x171;" 
d="M456 0h-65v49q-21 -19 -64 -37.5t-89 -18.5q-77 0 -120 39.5t-43 107.5v327h68v-306q0 -60 25 -85t82 -25q41 0 75.5 14.5t48.5 28.5l14 15v358h68v-467zM189 518l-38 19q40 89 48 108h74zM304 518l-38 19q40 89 48 108h74z" />
    <glyph glyph-name="Uogonek" unicode="&#x172;" horiz-adv-x="646" 
d="M489 226v411h72v-414q0 -150 -76 -198q-75 -48 -75 -105q0 -42 45 -42l23 2v-46q-16 -4 -34 -4q-34 0 -56.5 21t-22.5 57q0 45 42 90q-39 -6 -87 -6h-13q-135 0 -188.5 50.5t-53.5 180.5v414h73v-411q0 -56 8.5 -90t31.5 -51.5t51 -23t78 -5.5h13q50 0 78 5.5t51 23
t31.5 51.5t8.5 90z" />
    <glyph glyph-name="uogonek" unicode="&#x173;" 
d="M391 0v49q-21 -19 -64 -37.5t-89 -18.5q-77 0 -120 39.5t-43 107.5v327h68v-306q0 -60 25 -85t82 -25q41 0 75.5 14.5t48.5 28.5l14 15v358h68v-467h-4q-32 -4 -59 -29.5t-27 -50.5q0 -42 44 -42l23 2v-46q-15 -4 -34 -4q-34 0 -56.5 21t-22.5 57q0 27 20.5 53t50.5 39z
" />
    <glyph glyph-name="Wcircumflex" unicode="&#x174;" horiz-adv-x="821" 
d="M206 92h4l156 545h88l157 -545h4l88 545h77l-118 -637h-87l-164 560h-4l-161 -560h-87q-104 557 -118 637h77q76 -466 88 -545zM523 691l-32 -19l-83 87l-81 -87l-33 19q65 89 78 108h73z" />
    <glyph glyph-name="wcircumflex" unicode="&#x175;" horiz-adv-x="650" 
d="M630 467l-128 -467h-96l-82 299l-82 -299h-98l-124 467h72l98 -407h7l95 348h66l94 -348h6l99 407h73zM439 537l-32 -19l-83 87l-82 -87l-32 19l78 108h73z" />
    <glyph glyph-name="Ycircumflex" unicode="&#x176;" horiz-adv-x="533" 
d="M521 637l-222 -371v-266h-72v266l-215 371h83l171 -300l170 300h85zM382 691l-32 -19l-83 87l-82 -87l-32 19l78 108h73z" />
    <glyph glyph-name="ycircumflex" unicode="&#x177;" horiz-adv-x="448" 
d="M339 537l-32 -19l-83 87l-82 -87l-32 19q65 89 78 108h73zM222 84h4l129 383h73l-168 -467q-32 -91 -75 -130.5t-109 -39.5h-77v58h70q47 0 78 33.5t41 78.5l-168 467h73z" />
    <glyph glyph-name="Ydieresis" unicode="&#x178;" horiz-adv-x="533" 
d="M521 637l-222 -371v-266h-72v266l-215 371h83l171 -300l170 300h85zM239 779v-76h-60v76h60zM352 779v-76h-59v76h59z" />
    <glyph glyph-name="Zacute" unicode="&#x179;" horiz-adv-x="539" 
d="M497 637v-57l-375 -513v-4h382v-63h-475v57l376 513v4h-365v63h457zM287 672l-38 19q40 89 48 108h73l-4 -5q-3 -6 -11.5 -19l-17 -26t-23.5 -36t-27 -41z" />
    <glyph glyph-name="zacute" unicode="&#x17a;" horiz-adv-x="442" 
d="M52 467h340v-58l-270 -350h278v-59h-360v58l268 351h-256v58zM216 518l-38 19q39 89 48 108h73l-3 -5q-4 -6 -12.5 -19l-17 -26t-23.5 -36t-27 -41z" />
    <glyph glyph-name="Zdotaccent" unicode="&#x17b;" horiz-adv-x="539" 
d="M497 637v-57l-375 -513v-4h382v-63h-475v57l376 513v4h-365v63h457zM299 791v-76h-60v76h60z" />
    <glyph glyph-name="zdotaccent" unicode="&#x17c;" horiz-adv-x="442" 
d="M52 467h340v-58l-270 -350h278v-59h-360v58l268 351h-256v58zM251 637v-76h-60v76h60z" />
    <glyph glyph-name="Zcaron" unicode="&#x17d;" horiz-adv-x="537" 
d="M496 637v-57l-375 -513v-4h382v-63h-475v57l376 513v4h-365v63h457zM166 780l32 19l83 -87l82 87l32 -19l-78 -108h-73z" />
    <glyph glyph-name="zcaron" unicode="&#x17e;" horiz-adv-x="442" 
d="M52 467h340v-58l-270 -350h278v-59h-360v58l268 351h-256v58zM116 626l32 19l83 -87l81 87l33 -19q-65 -89 -78 -108h-73z" />
    <glyph glyph-name="florin" unicode="&#x192;" horiz-adv-x="456" 
d="M165 -10v423h-83v54h83q0 178 177 178h27v-54h-27q-58 0 -83 -25.5t-25 -88.5v-10h135v-54h-135v-413q0 -178 -177 -178v54q58 0 83 25.5t25 88.5z" />
    <glyph glyph-name="uni021A" unicode="&#x21a;" horiz-adv-x="500" 
d="M235 -161h-19v74h70v-53q0 -35 -23 -91h-51q23 46 23 70zM288 574v-574h-72v574h-208v63h483v-63h-203z" />
    <glyph glyph-name="uni021B" unicode="&#x21b;" horiz-adv-x="348" 
d="M186 -161h-19v74h70v-53q0 -37 -22 -91h-52q23 42 23 70zM95 139v274h-68v54h68v112h68v-112h157v-54h-157v-280q0 -40 15 -57.5t53 -17.5h89v-58h-83q-75 0 -108.5 30.5t-33.5 108.5z" />
    <glyph glyph-name="circumflex" unicode="&#x2c6;" horiz-adv-x="473" 
d="M347 537l-33 -19l-82 87l-82 -87l-32 19l78 108h73z" />
    <glyph glyph-name="caron" unicode="&#x2c7;" horiz-adv-x="473" 
d="M118 626l32 19l83 -87l81 87l33 -19q-65 -89 -78 -108h-73z" />
    <glyph glyph-name="breve" unicode="&#x2d8;" horiz-adv-x="473" 
d="M96 645h43q6 -34 31.5 -56.5t59.5 -22.5q33 0 58 22.5t33 56.5h42q-8 -53 -45.5 -90t-87.5 -37q-51 0 -88 36.5t-46 90.5z" />
    <glyph glyph-name="dotaccent" unicode="&#x2d9;" horiz-adv-x="319" 
d="M198 637v-76h-59v76h59z" />
    <glyph glyph-name="ring" unicode="&#x2da;" horiz-adv-x="473" 
d="M232 504q-28 0 -48 21t-20 50t20 49.5t48 20.5q27 0 46.5 -20.5t19.5 -49.5t-19.5 -50t-46.5 -21zM232 534q15 0 26.5 12.5t11.5 28.5t-11.5 28t-26.5 12q-16 0 -27.5 -12t-11.5 -28q0 -17 11.5 -29t27.5 -12z" />
    <glyph glyph-name="ogonek" unicode="&#x2db;" horiz-adv-x="348" 
d="M172 0h62q-32 -4 -60 -29.5t-28 -50.5q0 -42 45 -42l23 2v-46q-16 -4 -35 -4q-34 0 -56 21t-22 57q0 27 20.5 53t50.5 39z" />
    <glyph glyph-name="tilde" unicode="&#x2dc;" horiz-adv-x="473" 
d="M274 541q-22 0 -50 19.5t-49 19.5q-28 0 -48 -35l-27 28q31 64 73 64q22 0 50 -20t49 -20q13 0 26.5 11.5t20.5 24.5l28 -29q-31 -61 -73 -63z" />
    <glyph glyph-name="hungarumlaut" unicode="&#x2dd;" horiz-adv-x="387" 
d="M231 518l-38 19q40 89 48 108h73l-4 -5q-3 -6 -11.5 -19l-17 -26t-23.5 -36t-27 -41zM116 518l-38 19q40 89 48 108h73l-3 -5q-4 -6 -12.5 -19l-17 -26t-23.5 -36t-27 -41z" />
    <glyph glyph-name="Delta" unicode="&#x394;" horiz-adv-x="590" 
d="M332 637l229 -637h-541l229 637h83zM119 64h344l-170 510h-4z" />
    <glyph glyph-name="Delta" unicode="&#x2206;" horiz-adv-x="590" 
d="M332 637l229 -637h-541l229 637h83zM119 64h344l-170 510h-4z" />
    <glyph glyph-name="Omega" unicode="&#x3a9;" horiz-adv-x="614" 
d="M10 -8v62h112v4q-24 19 -40.5 62.5t-16.5 96.5v203q0 50 6.5 86.5t21.5 61t33 39.5t48 23.5t59.5 11t73.5 3.5h15q53 -1 86.5 -5t66 -17t50 -37.5t28 -65t10.5 -100.5v-203q0 -54 -16.5 -97.5t-41.5 -62.5v-5h98v-60h-226v62q60 6 87 41t27 125v197q0 40 -3.5 67
t-13.5 45.5t-20.5 29t-33 15.5t-42 6.5t-56.5 1.5h-15q-31 0 -49 -1t-39 -4.5t-31.5 -10.5t-22 -18t-16.5 -29t-8 -43t-3 -59v-197q0 -83 23.5 -119t73.5 -45v-64h-225z" />
    <glyph glyph-name="Omega" unicode="&#x2126;" horiz-adv-x="614" 
d="M10 -8v62h112v4q-24 19 -40.5 62.5t-16.5 96.5v203q0 50 6.5 86.5t21.5 61t33 39.5t48 23.5t59.5 11t73.5 3.5h15q53 -1 86.5 -5t66 -17t50 -37.5t28 -65t10.5 -100.5v-203q0 -54 -16.5 -97.5t-41.5 -62.5v-5h98v-60h-226v62q60 6 87 41t27 125v197q0 40 -3.5 67
t-13.5 45.5t-20.5 29t-33 15.5t-42 6.5t-56.5 1.5h-15q-31 0 -49 -1t-39 -4.5t-31.5 -10.5t-22 -18t-16.5 -29t-8 -43t-3 -59v-197q0 -83 23.5 -119t73.5 -45v-64h-225z" />
    <glyph glyph-name="pi" unicode="&#x3c0;" horiz-adv-x="533" 
d="M179 0h-69v404h-60v63h433v-63h-66v-404h-68v404h-170v-404z" />
    <glyph glyph-name="uni1E9E" unicode="&#x1e9e;" horiz-adv-x="603" 
d="M40 76h51v336q0 74 14.5 119.5t48 68.5t73 30t105.5 7h171q-2 -66 -38 -138.5t-86 -114.5l2 -3q166 -22 166 -195q0 -90 -52.5 -142t-140.5 -52q-51 0 -85 9v64q36 -9 74 -9q137 0 137 134q0 61 -39.5 99.5t-101.5 38.5q-13 0 -35 -4l-19 54q59 29 95.5 93t36.5 103h-85
q-37 0 -56.5 -1.5t-42 -6.5t-33 -15.5t-20.5 -29t-13.5 -45.5t-3.5 -67v-409h-123v76z" />
    <glyph glyph-name="endash" unicode="&#x2013;" horiz-adv-x="675" 
d="M75 300h544v-60h-544v60z" />
    <glyph glyph-name="emdash" unicode="&#x2014;" horiz-adv-x="755" 
d="M75 300h624v-60h-624v60z" />
    <glyph glyph-name="quoteleft" unicode="&#x2018;" horiz-adv-x="168" 
d="M85 506h19v-83h-70v58q0 40 10.5 85.5t23.5 70.5h60l-10 -19q-11 -18 -22 -51t-11 -61z" />
    <glyph glyph-name="quoteright" unicode="&#x2019;" horiz-adv-x="168" 
d="M78 554h-19v83h70v-58q0 -40 -10.5 -85.5t-23.5 -70.5h-60l11 19q10 18 21 51t11 61z" />
    <glyph glyph-name="quotesinglbase" unicode="&#x201a;" horiz-adv-x="190" 
d="M78 0h-19v83h70v-58q0 -40 -10.5 -85.5t-23.5 -70.5h-60l11 19q10 18 21 51t11 61z" />
    <glyph glyph-name="quotedblleft" unicode="&#x201c;" horiz-adv-x="301" 
d="M213 506h19v-83h-71v58q0 41 11 86t24 70h59l-10 -19q-10 -18 -21 -51t-11 -61zM85 506h19v-83h-70v58q0 40 10.5 85.5t23.5 70.5h60l-10 -19q-11 -18 -22 -51t-11 -61z" />
    <glyph glyph-name="quotedblright" unicode="&#x201d;" horiz-adv-x="301" 
d="M78 554h-19v83h70v-58q0 -40 -10.5 -85.5t-23.5 -70.5h-60l11 19q10 18 21 51t11 61zM205 554h-19v83h70v-58q0 -40 -10.5 -85.5t-23.5 -70.5h-60l10 19q11 18 22 51t11 61z" />
    <glyph glyph-name="quotedblbase" unicode="&#x201e;" horiz-adv-x="301" 
d="M78 0h-19v83h70v-58q0 -40 -10.5 -85.5t-23.5 -70.5h-60l11 19q10 18 21 51t11 61zM205 0h-19v83h70v-58q0 -40 -10.5 -85.5t-23.5 -70.5h-60l10 19q11 18 22 51t11 61z" />
    <glyph glyph-name="dagger" unicode="&#x2020;" horiz-adv-x="580" 
d="M74 409v66h48l134 -8v170h70v-170l133 8h48v-66h-48l-133 7v-586h-70v586q-128 -7 -134 -7h-48z" />
    <glyph glyph-name="daggerdbl" unicode="&#x2021;" horiz-adv-x="580" 
d="M326 205v-375h-70v375q-118 -7 -134 -7h-48v66h48l134 -8v160q-125 -7 -134 -7h-48v66h48l134 -8v170h70v-170l133 8h48v-66h-48l-133 7v-160l133 8h48v-66h-48z" />
    <glyph glyph-name="bullet" unicode="&#x2022;" horiz-adv-x="353" 
d="M84 261q0 40 27 68t65 28t65.5 -28t27.5 -68t-27.5 -68t-65.5 -28t-65 28t-27 68z" />
    <glyph glyph-name="ellipsis" unicode="&#x2026;" horiz-adv-x="494" 
d="M129 83v-83h-70v83h70zM274 83v-83h-70v83h70zM419 83v-83h-70v83h70z" />
    <glyph glyph-name="perthousand" unicode="&#x2030;" horiz-adv-x="1346" 
d="M623 637l-266 -637h-39l264 637h41zM591 244q0 148 151 148t151 -148v-105q0 -72 -44.5 -108t-106.5 -36t-106.5 35t-44.5 109v105zM840 147v95q0 60 -27 80.5t-71 20.5t-71 -20.5t-27 -80.5v-95q0 -102 98 -102t98 102zM60 493q0 148 151 148t151 -148v-105
q0 -72 -44.5 -108t-106.5 -36t-106.5 35t-44.5 109v105zM309 396v95q0 60 -27 80.5t-71 20.5t-71 -20.5t-27 -80.5v-95q0 -102 98 -102t98 102zM968 244q0 148 151 148t151 -148v-105q0 -72 -44.5 -108t-106.5 -36t-106.5 35t-44.5 109v105zM1217 147v95q0 60 -27 80.5
t-71 20.5t-71 -21t-27 -80v-95q0 -102 98 -102t98 102z" />
    <glyph glyph-name="guilsinglleft" unicode="&#x2039;" horiz-adv-x="266" 
d="M218 467l-122 -233l133 -234h-69l-133 234l123 233h68z" />
    <glyph glyph-name="guilsinglright" unicode="&#x203a;" horiz-adv-x="266" 
d="M159 234l-122 233h68l124 -233l-134 -234h-68z" />
    <glyph glyph-name="fraction" unicode="&#x2044;" horiz-adv-x="476" 
d="M423 637l-314 -754h-39l312 754h41z" />
    <glyph glyph-name="zerosuperior" unicode="&#x2070;" horiz-adv-x="426" 
d="M64 580q0 148 151 148t151 -148v-105q0 -72 -44.5 -108t-106.5 -36q-63 0 -107 35t-44 109v105zM312 483v95q0 60 -26.5 80.5t-70.5 20.5t-71 -20.5t-27 -80.5v-95q0 -102 98 -102q97 0 97 102z" />
    <glyph glyph-name="foursuperior" unicode="&#x2074;" horiz-adv-x="399" 
d="M293 723v-248h59v-49h-59v-90h-53v90h-213v43l205 254h61zM240 475v182l-143 -182h143z" />
    <glyph glyph-name="fivesuperior" unicode="&#x2075;" horiz-adv-x="383" 
d="M314 723v-49h-186q-1 -10 -4.5 -39.5t-6.5 -46.5q37 8 85 8q66 0 100 -27t34 -94q0 -87 -26 -115.5t-114 -28.5q-80 0 -112.5 23t-32.5 107h52q0 -49 14 -64t57 -15h17q54 0 72.5 13t18.5 60q0 49 -15 69.5t-70 20.5q-61 0 -93 -13l-46 7l26 184h230z" />
    <glyph glyph-name="sixsuperior" unicode="&#x2076;" horiz-adv-x="406" 
d="M341 632v-16h-52q0 41 -16.5 52t-63.5 11q-51 0 -72 -12t-21 -55v-50q26 18 102 18q75 0 103.5 -22.5t28.5 -92.5q0 -78 -32.5 -105t-110.5 -27q-82 0 -113.5 28.5t-31.5 114.5v142q0 66 37.5 87.5t109.5 21.5q25 0 39.5 -1t34.5 -6t31 -14.5t19 -28t8 -45.5zM116 469
q0 -58 16 -72.5t85 -14.5q47 0 63 11.5t16 56.5q0 52 -12 66.5t-67 14.5q-32 0 -50.5 -2.5t-34.5 -17t-16 -42.5z" />
    <glyph glyph-name="sevensuperior" unicode="&#x2077;" horiz-adv-x="387" 
d="M334 723v-44l-193 -343h-62l195 338h-223v49h283z" />
    <glyph glyph-name="eightsuperior" unicode="&#x2078;" horiz-adv-x="398" 
d="M342 451q0 -69 -31.5 -94.5t-111.5 -25.5q-82 0 -112.5 25t-30.5 95q0 69 39 87q-35 19 -35 82q0 69 30 88.5t109 19.5q80 0 109.5 -19.5t29.5 -88.5q0 -61 -35 -84q24 -8 31.5 -27t7.5 -58zM108 450q0 -44 17 -56t74 -12t74.5 12.5t17.5 55.5q0 23 -4 35.5t-18 18
t-26.5 6.5t-43.5 1q-56 0 -73.5 -9t-17.5 -52zM285 620q0 39 -17.5 49t-68.5 10q-50 0 -67.5 -10t-17.5 -49q0 -41 17.5 -51t67.5 -10q51 0 68.5 10t17.5 51z" />
    <glyph glyph-name="ninesuperior" unicode="&#x2079;" horiz-adv-x="406" 
d="M65 429v16h52q0 -41 16.5 -52t63.5 -11q51 0 72 12t21 55v50q-26 -19 -103 -19q-74 0 -102.5 23t-28.5 94q0 78 32 104.5t110 26.5q83 0 114.5 -28.5t31.5 -114.5v-142q0 -66 -38 -87.5t-109 -21.5q-26 0 -40.5 1t-34.5 6t-30.5 14.5t-18.5 28t-8 45.5zM290 592
q0 58 -16.5 73t-85.5 15q-47 0 -63 -12t-16 -57q0 -52 12.5 -66.5t67.5 -14.5q32 0 50.5 2.5t34.5 17t16 42.5z" />
    <glyph glyph-name="zeroinferior" unicode="&#x2080;" horiz-adv-x="426" 
d="M62 158q0 148 151 148t151 -148v-105q0 -72 -44.5 -108t-106.5 -36t-106.5 35t-44.5 109v105zM311 61v95q0 60 -27 80.5t-71 20.5t-71 -20.5t-27 -80.5v-95q0 -102 98 -102t98 102z" />
    <glyph glyph-name="oneinferior" unicode="&#x2081;" horiz-adv-x="319" 
d="M59 -87v49h86v289h-108v49h162v-338h68v-49h-208z" />
    <glyph glyph-name="twoinferior" unicode="&#x2082;" horiz-adv-x="389" 
d="M336 -38v-49h-280v53q0 102 127 135q34 8 52 15t34 26.5t16 49.5q0 41 -16.5 52.5t-68.5 11.5q-31 0 -45 -2t-26.5 -12t-16.5 -30t-4 -57h-52q0 36 1.5 54.5t9 40.5t22.5 31.5t42.5 16.5t68.5 7q75 0 106.5 -23t31.5 -90q0 -35 -10.5 -59.5t-32 -39t-38.5 -21t-47 -14.5
q-101 -27 -101 -91v-5h227z" />
    <glyph glyph-name="threeinferior" unicode="&#x2083;" horiz-adv-x="403" 
d="M166 90v46h37q29 0 41 1t25 6.5t17 18t4 35.5q0 40 -17.5 49.5t-69.5 9.5q-30 0 -45.5 -2.5t-28 -16t-12.5 -40.5v-15h-54q0 75 29.5 99t110.5 24q80 0 110 -20t30 -90q0 -58 -35 -81q24 -8 31.5 -27.5t7.5 -56.5q0 -76 -28.5 -99t-117.5 -23q-44 0 -66.5 3t-42.5 16
t-27 39.5t-7 72.5h53v-10q0 -48 18 -59t74 -11q57 0 74.5 12.5t17.5 55.5q0 19 -3.5 30.5t-8.5 18t-19 9.5t-24.5 4t-36.5 1h-37z" />
    <glyph glyph-name="fourinferior" unicode="&#x2084;" horiz-adv-x="399" 
d="M240 52v182l-143 -182h143zM293 300v-248h59v-49h-59v-90h-53v90h-213v43l205 254h61z" />
    <glyph glyph-name="fiveinferior" unicode="&#x2085;" horiz-adv-x="383" 
d="M314 300v-49h-186q-1 -10 -4.5 -39.5t-6.5 -46.5q37 8 85 8q66 0 100 -27t34 -94q0 -87 -26 -115.5t-114 -28.5q-80 0 -112.5 23t-32.5 107h52q0 -49 14 -64t57 -15h17q54 0 72.5 13t18.5 60q0 49 -15 69.5t-70 20.5q-61 0 -93 -13l-46 7l26 184h230z" />
    <glyph glyph-name="sixinferior" unicode="&#x2086;" horiz-adv-x="406" 
d="M341 210v-16h-52q0 41 -16.5 52t-63.5 11q-51 0 -72 -12t-21 -55v-50q26 18 102 18q75 0 103.5 -22.5t28.5 -92.5q0 -78 -32.5 -105t-110.5 -27q-82 0 -113.5 28.5t-31.5 114.5v142q0 66 37.5 87.5t109.5 21.5q25 0 39.5 -1t34.5 -6t31 -14.5t19 -28t8 -45.5zM116 47
q0 -58 16 -72.5t85 -14.5q47 0 63 11.5t16 56.5q0 52 -12 66.5t-67 14.5q-32 0 -50.5 -2.5t-34.5 -17t-16 -42.5z" />
    <glyph glyph-name="seveninferior" unicode="&#x2087;" horiz-adv-x="371" 
d="M335 300v-44l-194 -343h-61l194 338h-222v49h283z" />
    <glyph glyph-name="eightinferior" unicode="&#x2088;" horiz-adv-x="398" 
d="M342 28q0 -69 -31.5 -94.5t-111.5 -25.5q-82 0 -112.5 25t-30.5 95q0 69 39 87q-35 19 -35 82q0 69 30 88.5t109 19.5q80 0 109.5 -19.5t29.5 -88.5q0 -61 -35 -84q24 -8 31.5 -27t7.5 -58zM108 27q0 -44 17 -56t74 -12t74.5 12.5t17.5 55.5q0 23 -4 35.5t-18 18
t-26.5 6.5t-43.5 1q-56 0 -73.5 -9t-17.5 -52zM285 197q0 39 -17.5 49t-68.5 10q-50 0 -67.5 -10t-17.5 -49q0 -41 17.5 -51t67.5 -10q51 0 68.5 10t17.5 51z" />
    <glyph glyph-name="nineinferior" unicode="&#x2089;" horiz-adv-x="406" 
d="M65 6v16h52q0 -41 16.5 -52t63.5 -11q51 0 72 12t21 55v50q-26 -19 -103 -19q-74 0 -102.5 23t-28.5 94q0 78 32 104.5t110 26.5q83 0 114.5 -28.5t31.5 -114.5v-142q0 -66 -38 -87.5t-109 -21.5q-26 0 -40.5 1t-34.5 6t-30.5 14.5t-18.5 28t-8 45.5zM290 169
q0 58 -16.5 73t-85.5 15q-47 0 -63 -12t-16 -57q0 -52 12.5 -66.5t67.5 -14.5q32 0 50.5 2.5t34.5 17t16 42.5z" />
    <glyph glyph-name="Euro" unicode="&#x20ac;" horiz-adv-x="593" 
d="M49 427h92q0 71 14.5 115t48.5 66t73 29t105 8h15q49 -1 111 -11v-64q-49 10 -111 12h-15q-36 0 -55.5 -1.5t-42 -6.5t-33 -14.5t-21 -27t-14 -43t-4.5 -62.5h266l-10 -62h-256v-72h246l-10 -62h-235v-20q1 -33 4.5 -56.5t8.5 -40t17 -27.5t22 -17t31.5 -9t37.5 -4t48 -1
h15q61 0 117 14v-66q-78 -12 -117 -12h-15q-136 0 -187 45t-54 174v20h-92v62h92v72h-92v62z" />
    <glyph glyph-name="trademark" unicode="&#x2122;" horiz-adv-x="855" 
d="M478 637l120 -269h4l124 269h73v-400h-50v343l-133 -280h-32l-131 280v-343h-50v400h75zM212 591v-354h-52v354h-138v46h326v-46h-136z" />
    <glyph glyph-name="partialdiff" unicode="&#x2202;" horiz-adv-x="515" 
d="M221 -8q-99 0 -137 35.5t-38 120.5q0 156 49.5 228.5t173.5 72.5q41 0 75.5 -16.5t50.5 -36.5l2 3q0 176 -85 176q-23 0 -49 -10v46q38 13 68 13q128 0 128 -236q0 -35 -0.5 -54t-2.5 -56t-6 -60t-12 -56.5t-19.5 -54.5t-30 -45t-41.5 -38t-55 -23t-71 -9zM263 395
q-41 0 -69.5 -14.5t-44 -35.5t-24 -57t-10.5 -66.5t-2 -76.5q0 -53 24 -76t90 -23q47 0 79 19.5t48 55.5t22 74t6 88q0 57 -34 84.5t-85 27.5z" />
    <glyph glyph-name="product" unicode="&#x220f;" horiz-adv-x="605" 
d="M172 0h-72v637h411v-637h-72v574h-267v-574z" />
    <glyph glyph-name="summation" unicode="&#x2211;" horiz-adv-x="550" 
d="M466 63v-63h-411v52l314 279l-314 254v52h411v-63h-306l295 -241l-295 -270h306z" />
    <glyph glyph-name="minus" unicode="&#x2212;" horiz-adv-x="473" 
d="M30 385h413v-41h-413v41z" />
    <glyph glyph-name="radical" unicode="&#x221a;" horiz-adv-x="512" 
d="M212 87l192 550h32l-229 -637h-39l-108 300h77q2 -2 17.5 -49t33.5 -102t20 -62h4z" />
    <glyph glyph-name="infinity" unicode="&#x221e;" horiz-adv-x="789" 
d="M538 475q107 0 146.5 -52.5t39.5 -189.5q0 -139 -39 -190t-147 -51q-64 0 -95.5 18t-39.5 73h-5q-14 -48 -45 -66t-87 -18q-45 0 -75 9t-48.5 24.5t-28.5 46t-13 65t-3 89.5t3 89.5t13 65t28.5 46.5t48.5 25t75 9q56 0 87 -18t45 -66h5q8 55 39.5 73t95.5 18zM539 65
q77 0 99.5 31t22.5 137q0 107 -22.5 138t-99.5 31q-33 0 -53 -6.5t-31.5 -15.5t-16.5 -34.5t-6 -45.5t-1 -67q0 -34 0.5 -49.5t2 -38.5t6 -32t11.5 -21t19 -16t29 -7.5t40 -3.5zM266 392q-71 0 -89.5 -32t-18.5 -127q0 -49 2.5 -74.5t13.5 -47t32.5 -29t59.5 -7.5
q31 0 50.5 6t31.5 15.5t17 31.5t6.5 43t1.5 62q0 34 -1 52.5t-4 39.5t-10 31.5t-18.5 20t-29.5 12.5t-44 3z" />
    <glyph glyph-name="integral" unicode="&#x222b;" horiz-adv-x="464" 
d="M407 645v-63q-85 0 -120.5 -18t-35.5 -84q0 -51 22.5 -233.5t22.5 -228.5q0 -62 -14 -101t-46.5 -59.5t-71 -27.5t-100.5 -8v64q86 0 123 24t37 103q0 57 -22.5 238t-22.5 225q0 101 55 135t173 34z" />
    <glyph glyph-name="approxequal" unicode="&#x2248;" horiz-adv-x="519" 
d="M185 422q-54 0 -85 -34v51q37 28 82 28q33 0 82.5 -23t81.5 -23q43 0 80 39v-52q-39 -32 -83 -32q-33 0 -81 22t-77 24zM185 307q-52 0 -85 -39v52q36 31 82 31q33 0 82.5 -23t81.5 -23q45 0 80 35v-51q-38 -29 -83 -29q-34 0 -82 22.5t-76 24.5z" />
    <glyph glyph-name="notequal" unicode="&#x2260;" horiz-adv-x="516" 
d="M53 456h255l113 176l27 -20l-100 -156h119v-41h-145l-65 -100h210v-41h-235l-142 -220l-27 17l129 203h-139v41h165l64 100h-229v41z" />
    <glyph glyph-name="lessequal" unicode="&#x2264;" horiz-adv-x="423" 
d="M61 98h317v-42h-317v42zM378 541v-48l-256 -124l256 -123v-49l-316 157v29z" />
    <glyph glyph-name="greaterequal" unicode="&#x2265;" horiz-adv-x="432" 
d="M61 493v48l316 -158v-29l-316 -157v49l255 123zM61 98h317v-42h-317v42z" />
    <glyph glyph-name="lozenge" unicode="&#x25ca;" horiz-adv-x="557" 
d="M331 637l164 -319l-164 -318h-93l-163 318l164 319h92zM285 50l135 268l-135 269l-135 -269z" />
    <glyph glyph-name="f_f" unicode="&#xfb00;" horiz-adv-x="568" 
d="M272 591q-58 0 -83.5 -25.5t-25.5 -88.5v-10h189q0 178 177 178h57v-54h-57q-58 0 -83 -25.5t-25 -88.5v-10h136v-54h-136v-413h-69v413h-189v-583h-68v583h-68v54h68q0 178 177 178h48v-54h-48z" />
    <glyph glyph-name="fi" unicode="&#xfb01;" horiz-adv-x="505" 
d="M421 467v-467h-69v413h-189v-583h-68v583h-68v54h68q0 178 177 178q80 0 149 -15v-62l-18 6q-18 5 -54.5 11t-73.5 6q-60 0 -86 -25.5t-26 -88.5v-10h258z" />
    <glyph glyph-name="fl" unicode="&#xfb02;" horiz-adv-x="586" 
d="M421 133q0 -40 14.5 -57.5t52.5 -17.5h90v-58h-83q-75 0 -109 30.5t-34 108.5v445q-40 7 -80 7q-58 0 -83.5 -25.5t-25.5 -88.5v-10h127v-54h-127v-583h-68v583h-68v54h68q0 178 177 178q80 0 149 -15v-497z" />
    <glyph glyph-name="f_f_i" unicode="&#xfb03;" horiz-adv-x="763" 
d="M678 467v-467h-68v413h-189v-583h-69v583h-189v-583h-68v583h-68v54h68q0 178 177 178h48v-54h-48q-58 0 -83.5 -25.5t-25.5 -88.5v-10h189q0 178 177 178q83 0 149 -15v-62l-18 6q-18 5 -55.5 11t-75.5 6q-58 0 -83 -25.5t-25 -88.5v-10h257z" />
    <glyph glyph-name="f_f_l" unicode="&#xfb04;" horiz-adv-x="843" 
d="M529 591q-58 0 -83 -25.5t-25 -88.5v-10h126v-54h-126v-583h-69v583h-189v-583h-68v583h-68v54h68q0 178 177 178h48v-54h-48q-58 0 -83.5 -25.5t-25.5 -88.5v-10h189q0 178 177 178q83 0 149 -15v-497q0 -40 15 -57.5t53 -17.5h89v-58h-83q-75 0 -108.5 30.5
t-33.5 108.5v445q-42 7 -81 7z" />
    <glyph glyph-name="DC1" horiz-adv-x="517" 
 />
    <glyph glyph-name="DC2" horiz-adv-x="0" 
 />
    <glyph glyph-name="DC3" horiz-adv-x="0" 
 />
    <glyph glyph-name="G_comma" horiz-adv-x="633" 
d="M315 -161h-19v74h71v-53q0 -35 -23 -91h-51q22 44 22 70zM491 220v48h-134v63h206v-114q0 -60 -10.5 -100.5t-28 -65t-50 -37.5t-66 -17t-86.5 -5h-15q-44 1 -73.5 3.5t-59.5 11t-48 23.5t-33 39.5t-21.5 61t-6.5 86.5v203q0 50 6.5 86.5t21.5 61t33 39.5t48 23.5
t59.5 11t73.5 3.5h15q63 -1 101 -7.5t71.5 -26t49 -58.5t18.5 -103h-72q-3 47 -12 73.5t-33 39.5t-48 16t-75 3h-15q-31 0 -49 -1t-39 -4.5t-31.5 -10.5t-22 -18t-16.5 -29t-8 -43t-3 -59v-197q0 -34 3 -59t8 -43t16.5 -29t22 -18t31.5 -10.5t39 -4.5t49 -1h15
q37 0 56.5 1.5t42 6.5t33 15.5t20.5 29t13.5 45.5t3.5 67z" />
    <glyph glyph-name="Imacron" horiz-adv-x="260" 
d="M166 0h-72v637h72v-637zM13 778h234v-47h-234v47z" />
    <glyph glyph-name="Kcomma" horiz-adv-x="573" 
d="M166 0h-72v637h72v-271h37l231 271h83l-252 -298l302 -339h-87l-279 310h-35v-310zM283 -161h-19v74h70v-53q0 -37 -22 -91h-52q23 42 23 70z" />
    <glyph glyph-name="Lcomma" horiz-adv-x="497" 
d="M283 -161h-19v74h70v-53q0 -37 -22 -91h-52q23 42 23 70zM488 0h-394v637h72v-574h322v-63z" />
    <glyph glyph-name="Napostrophe" horiz-adv-x="668" 
d="M574 637v-637h-116l-288 565h-4v-565h-72v637h117l286 -571h5v571h72zM40 475h-39l-11 162h61z" />
    <glyph glyph-name="Ncomma" horiz-adv-x="669" 
d="M315 -161h-19v74h71v-53q0 -35 -23 -91h-51q22 44 22 70zM574 637v-637h-116l-288 565h-4v-565h-72v637h117l286 -571h5v571h72z" />
    <glyph glyph-name="Rcomma" horiz-adv-x="649" 
d="M296 -161h19q0 -26 -22 -70h51q23 56 23 91v53h-71v-74zM94 0v637h286q101 0 141.5 -38t40.5 -143q0 -134 -79 -155v-4q86 -13 86 -127v-170h-73v153q0 64 -28 89t-92 25h-210v-267h-72zM166 330h187q135 0 135 120q0 72 -20 98t-94 26h-208v-244z" />
    <glyph glyph-name="a.salt" 
d="M255 -8q-118 0 -156 48.5t-38 193.5q0 147 39 194t155 47q108 0 201 -43v-432h-62l-2 41h-4q-18 -18 -54 -33.5t-79 -15.5zM129 234q0 -46 1.5 -71.5t8.5 -51.5t20.5 -38t36.5 -19.5t59 -7.5q39 0 72 13t47 25l14 13v301q-65 23 -133 23q-44 0 -69.5 -9t-38 -35
t-15.5 -55.5t-3 -87.5z" />
    <glyph glyph-name="f_b" horiz-adv-x="808" 
d="M272 591q-58 0 -83.5 -25.5t-25.5 -88.5v-10h127v-54h-127v-583h-68v583h-68v54h68q0 178 177 178q80 0 149 -15v-155l-2 -37h4q50 37 130 37q117 0 156 -47t39 -194q0 -145 -38.5 -193.5t-156.5 -48.5q-54 0 -104 7t-73 14l-24 7v564q-40 7 -80 7zM679 234q0 47 -1.5 72
t-8 51t-20.5 37.5t-37 19t-59 7.5q-44 0 -79.5 -13.5t-52.5 -28.5v-311q45 -22 132 -22q30 0 51 4t35 15.5t22 24t12 37t5 46.5t1 61z" />
    <glyph glyph-name="f_j" horiz-adv-x="530" 
d="M272 591q-58 0 -83.5 -25.5t-25.5 -88.5v-10h258v-498q0 -78 -34 -108.5t-109 -30.5h-44v58h51q38 0 52.5 17.5t14.5 57.5v450h-189v-413h-68v413h-68v54h68q0 178 177 178q80 0 149 -15v-62l-18 6q-18 5 -55.5 11t-75.5 6z" />
    <glyph glyph-name="f_k" horiz-adv-x="765" 
d="M272 591q-58 0 -83.5 -25.5t-25.5 -88.5v-10h127v-54h-127v-583h-68v583h-68v54h68q0 178 177 178q80 0 149 -15v-345h4l189 182h80l-188 -179l208 -288h-81l-171 245l-41 -39v-206h-69v584q-40 7 -80 7z" />
    <glyph glyph-name="f_y" horiz-adv-x="715" 
d="M489 84h4l129 383h73l-168 -467q-32 -91 -75 -130.5t-109 -39.5h-77v58h70q47 0 78 33.5t41 78.5l-149 413h-143v-413h-68v413h-68v54h68q0 178 177 178h56v-54h-56q-58 0 -83.5 -25.5t-25.5 -88.5v-10h197z" />
    <glyph glyph-name="g_comma" 
d="M261 571h-19v74h70v-53q0 -37 -22 -91h-52q23 42 23 70zM255 -8q-118 0 -156 48.5t-38 193.5q0 147 39 194t155 47q47 0 82.5 -12.5t51.5 -24.5l3 29h64v-467q0 -104 -46.5 -141t-150.5 -37q-49 0 -75 5v61q26 -9 68 -9q74 0 105.5 21t31.5 94l3 47h-4
q-18 -18 -54.5 -33.5t-78.5 -15.5zM129 234q0 -46 1.5 -71.5t8.5 -51.5t20.5 -38t36.5 -19.5t59 -7.5q39 0 72 13t47 25l14 13v282q-18 15 -53.5 28.5t-79.5 13.5t-69.5 -9t-38 -35t-15.5 -55.5t-3 -87.5z" />
    <glyph glyph-name="ibreve" horiz-adv-x="236" 
d="M152 467v-467h-68v467h68zM-15 645h42q7 -34 32.5 -56.5t59.5 -22.5q32 0 57.5 22.5t33.5 56.5h42q-8 -53 -45.5 -90t-87.5 -37q-52 0 -88.5 36.5t-45.5 90.5z" />
    <glyph glyph-name="k_comma" horiz-adv-x="476" 
d="M236 -161h-19v74h70v-53q0 -35 -23 -91h-51q23 46 23 70zM153 637v-352h4l189 182h80l-188 -179l208 -288h-81l-171 245l-41 -39v-206h-69v637h69z" />
    <glyph glyph-name="l_comma" horiz-adv-x="309" 
d="M193 -161h-19v74h70v-53q0 -39 -23 -91h-51q23 46 23 70zM75 139v498h68v-504q0 -40 15 -57.5t53 -17.5h89v-58h-83q-74 0 -108 30.5t-34 108.5z" />
    <glyph glyph-name="l_dotaccent" horiz-adv-x="309" 
d="M75 139v498h68v-504q0 -40 15 -57.5t53 -17.5h89v-58h-83q-74 0 -108 30.5t-34 108.5zM275 637v-76h-59v76h59z" />
    <glyph glyph-name="n_apostrophe" 
d="M84 467h69v-46q23 19 63.5 36.5t85.5 17.5q78 0 120.5 -40t42.5 -108v-327h-68v306q0 60 -24.5 85.5t-81.5 25.5q-41 0 -75.5 -14.5t-48.5 -29.5l-14 -15v-358h-69v467zM59 475h-39l-11 162h61z" />
    <glyph glyph-name="n_comma" 
d="M256 -161h-19v74h71v-53q0 -35 -23 -91h-51q22 44 22 70zM84 467h69v-46q23 19 63.5 36.5t85.5 17.5q78 0 120.5 -40t42.5 -108v-327h-68v306q0 60 -24.5 85.5t-81.5 25.5q-41 0 -75.5 -14.5t-48.5 -29.5l-14 -15v-358h-69v467z" />
    <glyph glyph-name="rcomma" horiz-adv-x="306" 
d="M84 467h65v-49q54 49 129 49h38v-61q-18 2 -49 2q-41 0 -69.5 -12.5t-36.5 -25.5l-8 -12v-358h-69v467zM192 -161h-19v74h70v-53q0 -39 -23 -91h-51q23 46 23 70z" />
    <glyph glyph-name="A.swsh" horiz-adv-x="581" 
d="M332 637l229 -637h-77l-55 164h-277l-55 -164h-77l59 164q-116 0 -177 51t-61 146q0 11 2 45h65q-3 -20 -3 -41q0 -81 44.5 -109.5t134.5 -28.5h18l147 410h83zM173 227h235l-115 347h-4z" />
    <glyph glyph-name="B.swsh" horiz-adv-x="647" 
d="M94 0v574h-41q-90 0 -134 -28.5t-44 -109.5q0 -28 2 -41h-64q-2 34 -2 45q0 95 61 146t176 51h343q87 0 129 -35.5t42 -115.5q0 -59 -15 -92t-62 -53v-4q54 -18 75 -52t21 -96q0 -95 -36.5 -142t-127.5 -47h-323zM166 63h195q85 0 115.5 23.5t30.5 101.5q0 52 -28 82
t-85 30h-228v-237zM166 363h203q70 0 95 25t25 92q0 48 -24.5 71t-80.5 23h-218v-211z" />
    <glyph glyph-name="C.swsh" horiz-adv-x="619" 
d="M-157 524v63h44q128 0 190 -59q10 37 29 60.5t50.5 35.5t64.5 16t86 5h15q63 -1 101 -7.5t71.5 -26t49 -58.5t18.5 -103h-72q-3 47 -12 73.5t-33 39.5t-48 16t-75 3h-15q-31 0 -49 -1t-39 -4.5t-31.5 -10.5t-22 -18t-16.5 -29t-8 -43t-3 -59v-197q0 -34 3 -59t8 -43
t16.5 -29t22 -18t31.5 -10.5t39 -4.5t49 -1h15q37 0 56.5 1.5t42 6.5t33 15.5t20.5 29t13.5 45.5t3.5 67v6h72v-9q0 -60 -10.5 -100.5t-28 -65t-50 -37.5t-66 -17t-86.5 -5h-15q-44 1 -73.5 3.5t-59.5 11t-48 23.5t-33 39.5t-21.5 61t-6.5 86.5v173q0 78 -44.5 106
t-133.5 28h-44z" />
    <glyph glyph-name="D.swsh" horiz-adv-x="658" 
d="M361 637q137 0 184.5 -62t47.5 -210v-93q0 -148 -47.5 -210t-184.5 -62h-267v574h-41q-90 0 -134 -28.5t-44 -109.5q0 -28 2 -41h-64q-2 34 -2 45q0 95 61 146t176 51h313zM166 574v-511h194q24 0 43.5 2t35 7.5t27.5 10.5t20.5 17t14.5 20t10 26.5t6 30t3 36.5t1 39.5
v46.5v40q0 39 -0.5 57t-2 47.5t-6 42t-12 31t-19 26.5t-28.5 16.5t-40 11.5t-53 3h-194z" />
    <glyph glyph-name="E.swsh" horiz-adv-x="547" 
d="M501 637v-63h-335v-211h320v-63h-320v-237h335v-63h-407v574h-41q-90 0 -134 -28.5t-44 -109.5q0 -28 2 -41h-64q-2 34 -2 45q0 95 61 146t176 51h453z" />
    <glyph glyph-name="F.swsh" horiz-adv-x="509" 
d="M166 574v-211h308v-63h-308v-300h-72v574h-41q-90 0 -134 -28.5t-44 -109.5q0 -28 2 -41h-64q-2 34 -2 45q0 95 61 146t176 51h434v-63h-316z" />
    <glyph glyph-name="G.swsh" horiz-adv-x="619" 
d="M491 220v46h-134v65h206v-299q0 -117 -45.5 -163.5t-141.5 -46.5q-13 0 -43 2v68q19 -3 39 -3q72 0 96.5 30.5t26.5 105.5q-48 -31 -173 -33h-15q-44 1 -73.5 3.5t-59.5 11t-48 23.5t-33 39.5t-21.5 61t-6.5 86.5v203q0 50 6.5 86.5t21.5 61t33 39.5t48 23.5t59.5 11
t73.5 3.5h15q63 -1 101 -7.5t71.5 -26t49 -58.5t18.5 -103h-72q-3 47 -12 73.5t-33 39.5t-48 16t-75 3h-15q-31 0 -49 -1t-39 -4.5t-31.5 -10.5t-22 -18t-16.5 -29t-8 -43t-3 -59v-197q0 -34 3 -59t8 -43t16.5 -29t22 -18t31.5 -10.5t39 -4.5t49 -1h15q37 0 56.5 1.5t42 6.5
t33 15.5t20.5 29t13.5 45.5t3.5 67z" />
    <glyph glyph-name="H.swsh" horiz-adv-x="667" 
d="M166 637v-273h335v273h72v-637h-72v300h-335v-300h-72v574h-41q-90 0 -134 -28.5t-44 -109.5q0 -28 2 -41h-64q-2 34 -2 45q0 95 61 146t176 51h118z" />
    <glyph glyph-name="I.swsh" horiz-adv-x="260" 
d="M166 637v-637h-72v574h-41q-90 0 -134 -28.5t-44 -109.5q0 -28 2 -41h-64q-2 34 -2 45q0 95 61 146t176 51h118z" />
    <glyph glyph-name="J.swsh" horiz-adv-x="509" 
d="M61 440q0 96 60.5 146.5t176.5 50.5h92v-628q0 -104 -40.5 -145.5t-139.5 -41.5h-60v63h60q63 0 85.5 22t22.5 99v568h-15q-90 0 -134.5 -28.5t-44.5 -109.5q0 -22 3 -41h-64q-2 34 -2 45z" />
    <glyph glyph-name="K.swsh" horiz-adv-x="573" 
d="M166 637v-271h37l231 271h83l-252 -298l302 -339h-87l-279 310h-35v-310h-72v574h-41q-90 0 -134 -28.5t-44 -109.5q0 -28 2 -41h-64q-2 34 -2 45q0 95 61 146t176 51h118z" />
    <glyph glyph-name="L.swsh" horiz-adv-x="497" 
d="M166 637v-570h322v-67h-394v574h-41q-90 0 -134 -28.5t-44 -109.5q0 -28 2 -41h-64q-2 34 -2 45q0 95 61 146t176 51h118z" />
    <glyph glyph-name="M.swsh" horiz-adv-x="735" 
d="M397 170h-59l-168 399h-4l-28 -569h-73l26 574h-38q-90 0 -134 -28.5t-44 -109.5q0 -28 2 -41h-64q-2 34 -2 45q0 95 61 146t176 51h164l154 -367h3l154 367h118l29 -637h-73l-28 569h-4z" />
    <glyph glyph-name="N.swsh" horiz-adv-x="668" 
d="M211 637l286 -571h5v571h72v-637h-116l-288 565h-4v-565h-72v574h-41q-90 0 -134 -28.5t-44 -109.5q0 -28 2 -41h-64q-2 34 -2 45q0 95 61 146t176 51h163z" />
    <glyph glyph-name="O.swsh" horiz-adv-x="629" 
d="M307 -8q-44 1 -73.5 3.5t-59.5 11t-48 23.5t-33 39.5t-21.5 61t-6.5 86.5v171q-82 14 -125 63t-43 129q0 11 2 45h65q-3 -19 -3 -41q0 -62 26 -92.5t78 -40.5q3 51 15 86t30 56t50 32.5t64.5 15t82.5 4.5h15q53 -1 86.5 -5t66 -17t50 -37.5t28 -65t10.5 -100.5v-203
q0 -60 -10.5 -100.5t-28 -65t-50 -37.5t-66 -17t-86.5 -5h-15zM212 383h-74v-163q0 -34 3 -59t8 -43t16.5 -29t22 -18t31.5 -10.5t39 -4.5t49 -1h15q37 0 56.5 1.5t42 6.5t33 15.5t20.5 29t13.5 45.5t3.5 67v197q0 56 -7.5 88.5t-28 49.5t-45 21.5t-70.5 5.5q18 -33 18 -70
q0 -64 -38 -96.5t-108 -32.5zM209 574q-36 -9 -52 -37.5t-18 -90.5h73q35 0 55.5 18t20.5 48q0 26 -17.5 45t-45.5 19q-4 0 -16 -2z" />
    <glyph glyph-name="P.swsh" horiz-adv-x="609" 
d="M382 637q100 0 143.5 -43.5t43.5 -149.5q0 -61 -13.5 -100.5t-41.5 -59.5t-61.5 -27.5t-84.5 -7.5h-202v-249h-72v574h-41q-90 0 -134 -28.5t-44 -109.5q0 -28 2 -41h-64q-2 34 -2 45q0 95 61 146t176 51h334zM166 312h192q78 0 107.5 21t29.5 93q0 81 -20 114.5
t-92 33.5h-217v-262z" />
    <glyph glyph-name="Q.swsh" horiz-adv-x="629" 
d="M308 -14v6q-67 1 -106.5 8t-73.5 29.5t-48.5 68t-14.5 119.5v203q0 50 6.5 86.5t21.5 61t33 39.5t48 23.5t59.5 11t73.5 3.5h15q53 -1 86.5 -5t66 -17t50 -37.5t28 -65t10.5 -100.5v-203q0 -126 -43.5 -171.5t-143.5 -51.5v-8q0 -106 88 -106h30v-58h-34
q-81 0 -116.5 40.5t-35.5 123.5zM376 112v-57q66 5 90.5 37t24.5 128v197q0 40 -3.5 67t-13.5 45.5t-20.5 29t-33 15.5t-42 6.5t-56.5 1.5h-15q-31 0 -49 -1t-39 -4.5t-31.5 -10.5t-22 -18t-16.5 -29t-8 -43t-3 -59v-218q35 54 107 54q131 0 131 -141zM236 58q19 -3 72 -3
v63q0 70 -63 70q-24 0 -43 -18.5t-19 -47.5q0 -8 1.5 -17.5t15 -25.5t36.5 -21z" />
    <glyph glyph-name="R.swsh" horiz-adv-x="658" 
d="M380 637q101 0 141.5 -38t40.5 -143q0 -134 -79 -155v-4q86 -13 86 -127v-170h-73v153q0 64 -28 89t-92 25h-210v-267h-72v574h-41q-90 0 -134 -28.5t-44 -109.5q0 -28 2 -41h-64q-2 34 -2 45q0 95 61 146t176 51h332zM166 330h187q135 0 135 120q0 72 -20 98t-94 26
h-208v-244z" />
    <glyph glyph-name="S.swsh" horiz-adv-x="614" 
d="M138 227v-23q0 -90 29.5 -119t118.5 -29h22q88 0 125.5 24t37.5 103q0 43 -22 67.5t-57 32.5t-77 11t-84.5 9.5t-77.5 21.5t-57 53t-22 98q0 101 55 135t174 34q40 0 63.5 -1.5t53.5 -6.5t47 -16.5t33.5 -30.5t23.5 -49.5t7 -72.5h-72q-5 70 -33 92t-121 22q-35 0 -55 -1
t-43 -6.5t-34.5 -16t-19 -30t-7.5 -48.5q0 -44 22 -69.5t57 -35t77 -13.5t84.5 -10.5t77.5 -20.5t57 -50t22 -93q0 -64 -15 -104t-50.5 -60t-76 -26t-108.5 -6q-38 0 -65.5 2.5t-59.5 12.5t-52.5 28t-35 50.5t-15.5 78.5q-114 0 -174.5 51t-60.5 146q0 11 2 45h64
q-2 -13 -2 -41q0 -81 44 -109.5t134 -28.5h66z" />
    <glyph glyph-name="T.swsh" horiz-adv-x="476" 
d="M288 574v-574h-72v574h-41q-90 0 -134.5 -28.5t-44.5 -109.5q0 -22 3 -41h-65q-2 34 -2 45q0 95 61 146t177 51h158q66 0 92 16t41 66h65q-16 -75 -58 -110t-136 -35h-44z" />
    <glyph glyph-name="U.swsh" horiz-adv-x="646" 
d="M489 226v411h72v-414q0 -131 -53 -181t-188 -50h-13q-135 0 -188.5 50.5t-53.5 180.5v351h-12q-90 0 -134 -28.5t-44 -109.5q0 -28 2 -41h-64q-2 34 -2 45q0 95 61 146t176 51h90v-411q0 -56 8.5 -90t31.5 -51.5t51 -23t78 -5.5h13q50 0 78 5.5t51 23t31.5 51.5t8.5 90z
" />
    <glyph glyph-name="V.swsh" horiz-adv-x="547" 
d="M80 637q1 -1 192 -550h3l192 550h77l-229 -637h-83l-206 574h-18q-90 0 -134.5 -28.5t-44.5 -109.5q0 -22 3 -41h-65q-2 34 -2 45q0 95 61 146t177 51h77z" />
    <glyph glyph-name="W.swsh" horiz-adv-x="821" 
d="M118 637q76 -466 88 -545h4l156 545h88l157 -545h4l88 545h77l-118 -637h-87l-164 560h-4l-161 -560h-87l-107 574h-6q-90 0 -134.5 -28.5t-44.5 -109.5q0 -22 3 -41h-65q-2 34 -2 45q0 95 61 146t177 51h77z" />
    <glyph glyph-name="X.swsh" horiz-adv-x="607" 
d="M560 637l-193 -305l211 -332h-84l-187 293l-191 -293h-88l221 332l-160 242h-36q-90 0 -134 -28.5t-44 -109.5q0 -28 2 -41h-64q-2 34 -2 45q0 95 61 146t176 51h87l172 -268l170 268h83z" />
    <glyph glyph-name="Y.swsh" horiz-adv-x="533" 
d="M521 637l-222 -368v-269h-72v269l-177 305h-32q-90 0 -134.5 -28.5t-44.5 -109.5q0 -22 3 -41h-64q-2 34 -2 45q0 96 60.5 146.5t176.5 50.5h82l171 -296l170 296h85z" />
    <glyph glyph-name="Z.swsh" horiz-adv-x="539" 
d="M497 637v-57l-375 -513v-4h382v-63h-475v57l376 513v4h-258q-90 0 -134 -28.5t-44 -109.5q0 -15 2 -41h-64q-2 34 -2 45q0 95 61 146t176 51h355z" />
    <glyph glyph-name="zero.tnum" horiz-adv-x="643" 
d="M75 405q0 240 247 240q246 0 246 -240v-179q0 -61 -21.5 -107.5t-57.5 -73.5t-78 -40t-89 -13t-89 12.5t-78.5 38.5t-58 73t-21.5 110v179zM498 240v162q0 56 -14.5 93.5t-42 55.5t-55 24.5t-64.5 6.5t-64.5 -6.5t-55 -24.5t-42 -55.5t-14.5 -93.5v-162q0 -184 176 -184
t176 184z" />
    <glyph glyph-name="one.tnum" horiz-adv-x="643" 
d="M105 0v63h184v511h-184v63h256v-574h183v-63h-439z" />
    <glyph glyph-name="two.tnum" horiz-adv-x="643" 
d="M561 63v-63h-467v88q0 61 21.5 102t55.5 61t75.5 32.5t82.5 23.5t75 26.5t55.5 48t21.5 81.5q0 75 -29.5 96.5t-122.5 21.5q-29 0 -44.5 -0.5t-35 -3t-29.5 -6.5t-22 -12.5t-17 -20.5t-10 -30t-6.5 -41.5t-1.5 -54.5h-69q0 35 0.5 55t4 46t9.5 40.5t17.5 32t28.5 26.5
t41.5 17.5t57.5 12t76 3.5q123 0 173 -36.5t50 -145.5q0 -63 -21.5 -105.5t-55.5 -62.5t-75.5 -32.5t-82.5 -23t-75 -26t-55.5 -48.5t-21.5 -84v-18h396z" />
    <glyph glyph-name="three.tnum" horiz-adv-x="643" 
d="M268 300v58h53q31 0 44.5 0.5t35 2.5t30 6t20.5 12t16 20.5t7.5 30t3.5 41.5q0 32 -6.5 52.5t-16 32.5t-31.5 17.5t-42.5 7t-59.5 1.5q-33 0 -51.5 -1t-42 -7t-35.5 -17t-20.5 -32.5t-8.5 -52.5v-15h-72q0 116 48.5 152t180.5 36q67 0 105 -5.5t69 -23.5t43 -53.5
t12 -94.5t-17 -89t-63 -45v-5q52 -8 69.5 -41t17.5 -99q0 -65 -10 -102t-39 -59t-71.5 -29t-117.5 -7q-48 0 -76 1.5t-58.5 8t-46.5 19.5t-30 35.5t-19 55.5t-5 81h72v-6q0 -32 3 -53.5t13 -36t20 -22.5t33 -11.5t41.5 -4.5t55.5 -1q103 0 134 22.5t31 103.5q0 34 -6.5 56
t-15 34t-32 17.5t-43 7t-62.5 1.5h-7h-53z" />
    <glyph glyph-name="four.tnum" horiz-adv-x="643" 
d="M496 636v-419h103v-63h-103v-154h-68v154h-361v56l343 426h86zM428 217v348l-273 -348h273z" />
    <glyph glyph-name="five.tnum" horiz-adv-x="643" 
d="M522 637v-65h-314l-25 -167q62 16 157 16q107 0 163 -43t56 -151q0 -74 -8 -116t-33 -70.5t-69 -38.5t-120 -10q-52 0 -83.5 3t-64 13.5t-49.5 32t-28 58.5t-11 92h70q0 -83 25.5 -108t104.5 -25h28q50 0 77 3.5t49.5 17t30.5 40t8 72.5t-4 71t-19 49t-47 34t-85 10
q-102 0 -158 -22l-68 10l42 294h375z" />
    <glyph glyph-name="six.tnum" horiz-adv-x="643" 
d="M553 493v-18h-70q0 70 -29.5 88.5t-114.5 18.5q-47 0 -73 -3t-50.5 -15t-34.5 -37.5t-10 -67.5v-107q37 43 184 43q61 0 98.5 -7t65.5 -27t39 -56.5t11 -96.5q0 -66 -13 -108t-43.5 -65t-71.5 -31.5t-106 -8.5q-69 0 -111.5 9t-73 34.5t-43 71t-12.5 118.5v241
q0 56 18 92.5t55 53.5t75.5 23t95.5 6q41 0 64.5 -1.5t56 -9.5t50 -23t30.5 -45t13 -72zM171 216q0 -57 4 -83.5t23.5 -46t53 -24t100.5 -4.5q45 0 68 3t43.5 15.5t27.5 38t7 69.5q0 41 -2 61t-9 40.5t-23.5 28.5t-42.5 12.5t-70 4.5q-34 0 -55 -1.5t-47.5 -7.5t-41.5 -18
t-25.5 -34t-10.5 -54z" />
    <glyph glyph-name="seven.tnum" horiz-adv-x="643" 
d="M569 637v-63l-332 -574h-84l339 574h-405v63h482z" />
    <glyph glyph-name="eight.tnum" horiz-adv-x="643" 
d="M556 185q0 -112 -51.5 -152.5t-182.5 -40.5q-134 0 -184 40t-50 153q0 67 17.5 100.5t69.5 41.5v5q-46 15 -63 47.5t-17 91.5q0 58 12 93t42.5 53t68 23t104.5 5t104.5 -5t68 -23t42.5 -53t12 -93q0 -59 -17 -91.5t-63 -47.5v-5q52 -8 69.5 -41.5t17.5 -100.5zM158 184
q0 -81 30.5 -103.5t133.5 -22.5t133.5 22.5t30.5 103.5q0 24 -3.5 41.5t-7.5 30t-16.5 20.5t-21 12t-31 6t-37 2.5t-47.5 0.5t-47.5 -0.5t-37 -2.5t-31 -6t-21 -12t-16.5 -20.5t-7.5 -30t-3.5 -41.5zM477 471q0 32 -6.5 52.5t-16 32.5t-31 17.5t-42.5 7t-59 1.5t-59 -1.5
t-42.5 -7t-31 -17.5t-16 -32.5t-6.5 -52.5q0 -76 31.5 -94.5t123.5 -18.5t123.5 18.5t31.5 94.5z" />
    <glyph glyph-name="nine.tnum" horiz-adv-x="643" 
d="M86 146v18h71q0 -70 29.5 -88.5t113.5 -18.5q47 0 73 3t50.5 15t34.5 37.5t10 67.5v107q-37 -43 -184 -43q-61 0 -98.5 7t-65.5 27t-39 56.5t-11 96.5q0 66 13 108t43.5 65t71.5 31.5t106 8.5q69 0 111.5 -9t73 -34.5t43 -71t12.5 -118.5v-241q0 -56 -18 -92.5t-55 -53.5
t-75.5 -23t-95.5 -6q-41 0 -64.5 1.5t-56 9.5t-50 23t-30.5 45t-13 72zM468 423q0 57 -4 83.5t-23.5 46t-53 24t-100.5 4.5q-45 0 -68 -3t-43.5 -15.5t-27.5 -38t-7 -69.5q0 -41 2 -61t9 -40.5t23.5 -28.5t42.5 -12.5t70 -4.5q34 0 55 1.5t47.5 7.5t41.5 18t25.5 34t10.5 54
z" />
    <glyph glyph-name="zero.onum" horiz-adv-x="583" 
d="M518 234q0 -141 -48.5 -191.5t-177.5 -50.5t-178 50.5t-49 191.5t48.5 191t178.5 50q129 0 177.5 -50t48.5 -191zM449 234q0 103 -31 141t-126 38q-96 0 -127 -38t-31 -141t31 -141.5t127 -38.5q95 0 126 38.5t31 141.5z" />
    <glyph glyph-name="one.onum" horiz-adv-x="519" 
d="M83 0v63h147v341h-184v63h256v-404h147v-63h-366z" />
    <glyph glyph-name="two.onum" horiz-adv-x="617" 
d="M590 63v-63h-525v70q0 57 22 92.5t56.5 49t76.5 18.5t84.5 5.5t77 4.5t56.5 22t22 53q0 51 -32.5 74t-119.5 23q-92 0 -126.5 -22.5t-34.5 -99.5h-67q0 45 7 74.5t29.5 57t70 40.5t121.5 13q120 0 171.5 -35t51.5 -125q0 -61 -29 -94t-73 -39.5t-95 -9.5t-95 -5
t-73 -24.5t-29 -69.5v-10h453z" />
    <glyph glyph-name="three.onum" horiz-adv-x="613" 
d="M239 130v58h54q31 0 44.5 0.5t34.5 2.5t30 6t20.5 12t15.5 20.5t7.5 30t3.5 41.5q0 32 -6 52.5t-15.5 32.5t-32 17.5t-42.5 7t-60 1.5q-33 0 -51.5 -1t-41.5 -7t-35 -17t-20.5 -32.5t-8.5 -52.5v-15h-72q0 116 48 152t181 36q67 0 105 -5.5t68.5 -23.5t42.5 -53.5
t12 -94.5t-16.5 -89t-62.5 -45v-5q52 -8 69 -40.5t17 -99.5q0 -124 -46.5 -160.5t-190.5 -36.5q-48 0 -76.5 1.5t-59 8t-46 19.5t-29.5 35.5t-19 55.5t-5 81h71v-6q0 -32 3 -53.5t13.5 -36t20.5 -22.5t32.5 -11.5t41 -4.5t55.5 -1q104 0 135 22.5t31 103.5q0 34 -6.5 56
t-15.5 34t-32 17.5t-43 7t-62 1.5h-7h-54z" />
    <glyph glyph-name="four.onum" horiz-adv-x="590" 
d="M449 467v-404h104v-63h-104v-170h-67v170h-361v56l343 411h85zM382 63v333l-274 -333h274z" />
    <glyph glyph-name="five.onum" horiz-adv-x="588" 
d="M495 467v-65h-315l-24 -167q62 16 156 16q108 0 164 -43t56 -151q0 -74 -8 -116t-33.5 -70.5t-69.5 -38.5t-120 -10q-52 0 -83.5 3t-64 13.5t-49.5 32t-28 58.5t-11 92h71q0 -83 25.5 -108t103.5 -25h28q50 0 77 3.5t50 17t31 40t8 72.5q0 45 -4 70.5t-19 49.5t-47.5 34
t-85.5 10q-102 0 -158 -22l-67 10l42 294h375z" />
    <glyph glyph-name="six.onum" horiz-adv-x="615" 
d="M542 493v-18h-70q0 70 -29.5 88.5t-113.5 18.5q-47 0 -73.5 -3t-51 -15t-34.5 -37.5t-10 -67.5v-107q38 43 185 43q61 0 98.5 -7t65.5 -27t39 -56.5t11 -96.5q0 -127 -53 -170t-181 -43q-69 0 -111.5 9t-73.5 34.5t-43.5 71t-12.5 118.5v241q0 56 18.5 92.5t55 53.5
t75.5 23t96 6q40 0 64 -1.5t56 -9.5t49.5 -23t30.5 -45t13 -72zM160 216q0 -57 4 -83.5t24 -46t53.5 -24t100.5 -4.5q45 0 67.5 3t43 15.5t27.5 38t7 69.5q0 35 -1 52.5t-5.5 37.5t-13 28t-25.5 16.5t-41 10.5t-60 2q-34 0 -55 -1.5t-47.5 -7.5t-42 -18t-26 -34t-10.5 -54z
" />
    <glyph glyph-name="seven.onum" horiz-adv-x="497" 
d="M488 467v-63l-325 -574h-84l332 574h-385v63h462z" />
    <glyph glyph-name="eight.onum" horiz-adv-x="636" 
d="M552 185q0 -112 -51.5 -152.5t-182.5 -40.5q-134 0 -184 40t-50 153q0 67 17.5 100.5t69.5 41.5v5q-46 15 -63 47.5t-17 91.5q0 58 12 93t43 53t68.5 23t103.5 5q67 0 104.5 -5t68 -23t42.5 -53t12 -93q0 -59 -17 -91.5t-63 -47.5v-5q53 -8 70 -41.5t17 -100.5zM154 184
q0 -81 30.5 -103.5t133.5 -22.5t134 23t31 103q0 24 -3.5 41.5t-7.5 30t-16.5 20.5t-21.5 12t-31.5 6t-37 2.5t-47.5 0.5t-47.5 -0.5t-37 -2.5t-31 -6t-21 -12t-16.5 -20.5t-7.5 -30t-3.5 -41.5zM473 471q0 32 -6.5 52.5t-16 32.5t-31 17.5t-42.5 7t-59 1.5t-59 -1.5
t-42.5 -7t-31 -17.5t-16 -32.5t-6.5 -52.5q0 -76 31.5 -94.5t123.5 -18.5t123.5 18.5t31.5 94.5z" />
    <glyph glyph-name="nine.onum" horiz-adv-x="615" 
d="M72 -23v18h70q0 -70 29.5 -88.5t114.5 -18.5q47 0 73 3t50.5 15t34.5 37.5t10 67.5v107q-37 -43 -184 -43q-61 0 -98.5 7t-65.5 27t-39 56.5t-11 96.5q0 66 13 108t43.5 65t71.5 31.5t106 8.5q69 0 111.5 -9t73 -34.5t43 -71t12.5 -118.5v-241q0 -56 -18 -92.5t-55 -53.5
t-75.5 -23t-95.5 -6q-41 0 -64.5 1.5t-56 9.5t-50 23t-30.5 45t-13 72zM454 254q0 57 -4 83.5t-23.5 46t-53 24t-100.5 4.5q-45 0 -68 -3t-43.5 -15.5t-27.5 -38t-7 -69.5q0 -41 2 -61t9 -40.5t23.5 -28.5t42.5 -12.5t70 -4.5q34 0 55 1.5t47.5 7.5t41.5 18t25.5 34t10.5 54
z" />
    <glyph glyph-name="parenleft.case" horiz-adv-x="297" 
d="M70 196v213q0 124 47.5 207t120.5 98l17 -44q-58 -30 -86 -93.5t-28 -182.5v-183q0 -119 28 -182.5t86 -93.5l-17 -44q-73 15 -120.5 98t-47.5 207z" />
    <glyph glyph-name="parenright.case" horiz-adv-x="265" 
d="M217 409v-213q0 -124 -48 -207t-121 -98l-16 44q57 30 85 93.5t28 182.5v183q0 119 -28 182.5t-85 93.5l16 44q73 -15 121 -98t48 -207z" />
    <glyph glyph-name="guilsinglleft.case" horiz-adv-x="266" 
d="M218 547l-122 -233l133 -234h-69l-133 234l123 233h68z" />
    <glyph glyph-name="guilsinglright.case" horiz-adv-x="266" 
d="M160 314l-123 233h68l124 -233l-133 -234h-69z" />
    <glyph glyph-name="guillemotleft.case" horiz-adv-x="423" 
d="M218 548l-122 -233l133 -234h-69l-133 234l123 233h68zM368 548l-122 -233l132 -234h-68l-134 234l123 233h69z" />
    <glyph glyph-name="guillemotright.case" horiz-adv-x="423" 
d="M309 315l-123 233h69l123 -233l-133 -234h-69zM159 315l-122 233h68l124 -233l-134 -234h-68z" />
    <glyph glyph-name="hyphen.case" horiz-adv-x="237" 
d="M18 360h197v-60h-197v60z" />
    <glyph glyph-name="periodcentered.case" horiz-adv-x="195" 
d="M129 383v-83h-70v83h70z" />
    <glyph glyph-name="bullet.case" horiz-adv-x="353" 
d="M84 313q0 40 27 68t65 28t65.5 -28t27.5 -68t-27.5 -68t-65.5 -28t-65 28t-27 68z" />
    <glyph glyph-name="ornm.001" horiz-adv-x="638" 
d="M315 441h82l164 -174l-164 -175h-82l134 141h-365v67h365z" />
    <glyph glyph-name="ornm002" horiz-adv-x="631" 
d="M248 441h82l-134 -141h365v-67h-365l134 -141h-82l-164 175z" />
    <glyph glyph-name="ornm.003" horiz-adv-x="504" 
d="M89 285v86l166 173l166 -173v-86l-134 141v-385h-64v385z" />
    <glyph glyph-name="ornm.004" horiz-adv-x="490" 
d="M89 214v86l134 -141v385h64v-385l134 141v-86l-166 -173z" />
    <glyph glyph-name="ornm.006" horiz-adv-x="537" 
d="M160 202l-58 61v246h234l57 -61h-189l259 -272l-45 -47l-258 272v-199z" />
    <glyph glyph-name="ornm.007" horiz-adv-x="555" 
d="M463 263l-58 -61v199l-259 -272l-44 47l258 272h-189l57 61h235v-246z" />
    <glyph glyph-name="ornm.008" horiz-adv-x="555" 
d="M405 436l58 -61v-246h-235l-57 61h189l-258 272l44 47l259 -272v199z" />
    <glyph glyph-name="ornm.005" horiz-adv-x="551" 
d="M102 375l58 61v-199l258 272l45 -47l-259 -272h189l-57 -61h-234v246z" />
    <glyph glyph-name="zero.denominator" horiz-adv-x="425" 
d="M62 244q0 148 151 148t151 -148v-105q0 -72 -44.5 -108t-106.5 -36t-106.5 35t-44.5 109v105zM311 147v95q0 60 -27 80.5t-71 20.5t-71 -20.5t-27 -80.5v-95q0 -102 98 -102t98 102z" />
    <glyph glyph-name="one.denominator" horiz-adv-x="319" 
d="M59 0v49h86v289h-108v49h162v-338h68v-49h-208z" />
    <glyph glyph-name="two.denominator" horiz-adv-x="389" 
d="M336 49v-49h-280v53q0 102 127 135q34 8 52 15t34 26.5t16 49.5q0 41 -16.5 52.5t-68.5 11.5q-31 0 -45 -2t-26.5 -12t-16.5 -30t-4 -57h-52q0 36 1.5 54.5t9 40.5t22.5 31.5t42.5 16.5t68.5 7q75 0 106.5 -23t31.5 -90q0 -35 -10.5 -59.5t-32 -39t-38.5 -21t-47 -14.5
q-101 -27 -101 -91v-5h227z" />
    <glyph glyph-name="three.denominator" horiz-adv-x="403" 
d="M166 177v46h37q29 0 41 1t25 6.5t17 18t4 35.5q0 40 -17.5 49.5t-69.5 9.5q-30 0 -45.5 -2.5t-28 -16t-12.5 -40.5v-15h-54q0 75 29.5 99t110.5 24q80 0 110 -20t30 -90q0 -58 -35 -81q24 -8 31.5 -27.5t7.5 -56.5q0 -76 -28.5 -99t-117.5 -23q-44 0 -66.5 3t-42.5 16
t-27 39.5t-7 72.5h53v-10q0 -48 18 -59t74 -11q57 0 74.5 12.5t17.5 55.5q0 19 -3.5 30.5t-8.5 18t-19 9.5t-24.5 4t-36.5 1h-37z" />
    <glyph glyph-name="four.denominator" horiz-adv-x="399" 
d="M240 139v182l-143 -182h143zM293 387v-248h59v-49h-59v-90h-53v90h-213v43l205 254h61z" />
    <glyph glyph-name="five.denominator" horiz-adv-x="383" 
d="M314 387v-49h-186q-1 -10 -4.5 -39.5t-6.5 -46.5q37 8 85 8q66 0 100 -27t34 -94q0 -87 -26 -115.5t-114 -28.5q-80 0 -112.5 23t-32.5 107h52q0 -49 14 -64t57 -15h17q54 0 72.5 13t18.5 60q0 49 -15 69.5t-70 20.5q-61 0 -93 -13l-46 7l26 184h230z" />
    <glyph glyph-name="six.denominator" horiz-adv-x="406" 
d="M341 296v-16h-52q0 41 -16.5 52t-63.5 11q-51 0 -72 -12t-21 -55v-50q26 18 102 18q75 0 103.5 -22.5t28.5 -92.5q0 -78 -32.5 -105t-110.5 -27q-82 0 -113.5 28.5t-31.5 114.5v142q0 66 37.5 87.5t109.5 21.5q25 0 39.5 -1t34.5 -6t31 -14.5t19 -28t8 -45.5zM116 133
q0 -58 16 -72.5t85 -14.5q47 0 63 11.5t16 56.5q0 52 -12 66.5t-67 14.5q-32 0 -50.5 -2.5t-34.5 -17t-16 -42.5z" />
    <glyph glyph-name="seven.denominator" horiz-adv-x="338" 
d="M311 387v-44l-194 -343h-62l195 338h-223v49h284z" />
    <glyph glyph-name="eight.denominator" horiz-adv-x="398" 
d="M342 115q0 -69 -31.5 -94.5t-111.5 -25.5q-82 0 -112.5 25t-30.5 95q0 69 39 87q-35 19 -35 82q0 69 30 88.5t109 19.5q80 0 109.5 -19.5t29.5 -88.5q0 -61 -35 -84q24 -8 31.5 -27t7.5 -58zM108 114q0 -44 17 -56t74 -12t74.5 12.5t17.5 55.5q0 23 -4 35.5t-18 18
t-26.5 6.5t-43.5 1q-56 0 -73.5 -9t-17.5 -52zM285 284q0 39 -17.5 49t-68.5 10q-50 0 -67.5 -10t-17.5 -49q0 -41 17.5 -51t67.5 -10q51 0 68.5 10t17.5 51z" />
    <glyph glyph-name="nine.denominator" horiz-adv-x="406" 
d="M65 92v16h52q0 -41 16.5 -52t63.5 -11q51 0 72 12t21 55v50q-26 -19 -103 -19q-74 0 -102.5 23t-28.5 94q0 78 32 104.5t110 26.5q83 0 114.5 -28.5t31.5 -114.5v-142q0 -66 -38 -87.5t-109 -21.5q-26 0 -40.5 1t-34.5 6t-30.5 14.5t-18.5 28t-8 45.5zM290 255
q0 58 -16.5 73t-85.5 15q-47 0 -63 -12t-16 -57q0 -52 12.5 -66.5t67.5 -14.5q32 0 50.5 2.5t34.5 17t16 42.5z" />
    <glyph glyph-name="DLE" horiz-adv-x="497" 
 />
    <glyph glyph-name="zero.numerator" horiz-adv-x="429" 
d="M64 494q0 148 151 148t151 -148v-105q0 -72 -44.5 -108t-106.5 -36q-63 0 -107 35t-44 109v105zM312 397v95q0 60 -26.5 80.5t-70.5 20.5t-71 -20.5t-27 -80.5v-95q0 -102 98 -102q97 0 97 102z" />
    <glyph glyph-name="one.numerator" horiz-adv-x="319" 
d="M59 250v49h86v289h-108v49h162v-338h68v-49h-208z" />
    <glyph glyph-name="two.numerator" horiz-adv-x="389" 
d="M336 299v-49h-280v53q0 102 127 135q34 8 52 15t34 26.5t16 49.5q0 41 -16.5 52.5t-68.5 11.5q-31 0 -45 -2t-26.5 -12t-16.5 -30t-4 -57h-52q0 36 1.5 54.5t9 40.5t22.5 31.5t42.5 16.5t68.5 7q75 0 106.5 -23t31.5 -90q0 -35 -10.5 -59.5t-32 -39t-38.5 -21t-47 -14.5
q-101 -27 -101 -91v-5h227z" />
    <glyph glyph-name="three.numerator" horiz-adv-x="403" 
d="M166 427v46h37q29 0 41 1t25 6.5t17 18t4 35.5q0 40 -17.5 49.5t-69.5 9.5q-30 0 -45.5 -2.5t-28 -16t-12.5 -40.5v-15h-54q0 75 29.5 99t110.5 24q80 0 110 -20t30 -90q0 -58 -35 -81q24 -8 31.5 -27.5t7.5 -56.5q0 -76 -28.5 -99t-117.5 -23q-44 0 -66.5 3t-42.5 16
t-27 39.5t-7 72.5h53v-10q0 -48 18 -59t74 -11q57 0 74.5 12.5t17.5 55.5q0 19 -3.5 30.5t-8.5 18t-19 9.5t-24.5 4t-36.5 1h-37z" />
    <glyph glyph-name="four.numerator" horiz-adv-x="399" 
d="M240 389v182l-143 -182h143zM293 637v-248h59v-49h-59v-90h-53v90h-213v43l205 254h61z" />
    <glyph glyph-name="five.numerator" horiz-adv-x="383" 
d="M314 637v-49h-186q-1 -10 -4.5 -39.5t-6.5 -46.5q37 8 85 8q66 0 100 -27t34 -94q0 -87 -26 -115.5t-114 -28.5q-80 0 -112.5 23t-32.5 107h52q0 -49 14 -64t57 -15h17q54 0 72.5 13t18.5 60q0 49 -15 69.5t-70 20.5q-61 0 -93 -13l-46 7l26 184h230z" />
    <glyph glyph-name="six.numerator" horiz-adv-x="406" 
d="M341 547v-16h-52q0 41 -16.5 52t-63.5 11q-51 0 -72 -12t-21 -55v-50q26 18 102 18q75 0 103.5 -22.5t28.5 -92.5q0 -78 -32.5 -105t-110.5 -27q-82 0 -113.5 28.5t-31.5 114.5v142q0 66 37.5 87.5t109.5 21.5q25 0 39.5 -1t34.5 -6t31 -14.5t19 -28t8 -45.5zM116 384
q0 -58 16 -72.5t85 -14.5q47 0 63 11.5t16 56.5q0 52 -12 66.5t-67 14.5q-19 0 -31 -0.5t-26.5 -4t-23 -10t-14.5 -18.5t-6 -29z" />
    <glyph glyph-name="seven.numerator" horiz-adv-x="339" 
d="M309 637v-44l-194 -343h-62l195 338h-222v49h283z" />
    <glyph glyph-name="eight.numerator" horiz-adv-x="398" 
d="M342 365q0 -69 -31.5 -94.5t-111.5 -25.5q-82 0 -112.5 25t-30.5 95q0 69 39 87q-35 19 -35 82q0 69 30 88.5t109 19.5q80 0 109.5 -19.5t29.5 -88.5q0 -61 -35 -84q24 -8 31.5 -27t7.5 -58zM108 364q0 -44 17 -56t74 -12t74.5 12.5t17.5 55.5q0 23 -4 35.5t-18 18
t-26.5 6.5t-43.5 1q-56 0 -73.5 -9t-17.5 -52zM285 534q0 39 -17.5 49t-68.5 10q-50 0 -67.5 -10t-17.5 -49q0 -41 17.5 -51t67.5 -10q51 0 68.5 10t17.5 51z" />
    <glyph glyph-name="nine.numerator" horiz-adv-x="406" 
d="M65 343v16h52q0 -41 16.5 -52t63.5 -11q51 0 72 12t21 55v50q-26 -19 -103 -19q-74 0 -102.5 23t-28.5 94q0 78 32 104.5t110 26.5q83 0 114.5 -28.5t31.5 -114.5v-142q0 -66 -38 -87.5t-109 -21.5q-26 0 -40.5 1t-34.5 6t-30.5 14.5t-18.5 28t-8 45.5zM290 506
q0 58 -16.5 73t-85.5 15q-47 0 -63 -12t-16 -57q0 -52 12.5 -66.5t67.5 -14.5q32 0 50.5 2.5t34.5 17t16 42.5z" />
    <glyph glyph-name="k.salt" horiz-adv-x="492" 
d="M252 231h-99v-231h-69v637h69v-352h27l166 182h80l-168 -182h5q78 0 120.5 -40t42.5 -108v-137h-68v116q0 61 -25 88t-81 27z" />
    <glyph glyph-name="f.salt" horiz-adv-x="310" 
d="M272 591q-58 0 -83.5 -25.5t-25.5 -88.5v-10h136v-54h-136v-583h-68v583h-68v54h68q0 178 177 178h56v-54h-56z" />
    <glyph glyph-name="g.salt" 
d="M491 413h-63q29 -48 29 -148q0 -123 -43 -166.5t-156 -43.5q-40 0 -65 4q-38 -92 -38 -108q0 -24 17 -32.5t67 -8.5h128q80 0 100.5 -10t20.5 -50h-249q-84 0 -119.5 17.5t-35.5 64.5q0 37 55 141q-42 19 -60.5 64.5t-18.5 127.5q0 123 42.5 166.5t155.5 43.5q48 0 88 -8
h145v-54zM128 265q0 -86 26 -121.5t104 -35.5t104 35t26 122q0 86 -26 121t-104 35t-104 -35t-26 -121z" />
    <glyph glyph-name="t_t" horiz-adv-x="688" 
d="M435 139v274h-272v-280q0 -40 15 -57.5t53 -17.5h89v-58h-83q-75 0 -108.5 30.5t-33.5 108.5v274h-68v54h68v112h68v-112h272v112h68v-112h157v-54h-157v-280q0 -40 15 -57.5t53 -17.5h89v-58h-82q-75 0 -109 30.5t-34 108.5z" />
    <glyph glyph-name="scomma" horiz-adv-x="458" 
d="M227 -161h-19v74h70v-53q0 -39 -23 -91h-51q23 42 23 70zM244 421q-121 0 -121 -70q0 -31 30 -48t73.5 -26t86.5 -20t73 -39.5t30 -75.5q0 -46 -14.5 -77t-43 -46.5t-59.5 -21t-75 -5.5q-112 0 -182 34l20 56q19 -10 66 -23t94 -13q71 0 98 19t27 64q0 35 -30 54
t-72.5 27.5t-85.5 19.5t-73 41t-30 80q0 124 172 124q99 0 165 -15v-62l-19 6q-19 5 -56 11t-74 6z" />
    <glyph glyph-name="Scomma" horiz-adv-x="609" 
d="M291 -161h-19v74h70v-53q0 -39 -23 -91h-51q23 46 23 70zM303 645q40 0 63.5 -1.5t53.5 -6.5t47 -16.5t33.5 -30.5t23.5 -49.5t7 -72.5h-72q-5 70 -33 92t-121 22q-35 0 -55 -1t-43 -6.5t-34.5 -16t-19 -30t-7.5 -48.5q0 -44 22 -69.5t57 -35t77 -13.5t84.5 -10.5
t77.5 -20.5t57 -50t22 -93q0 -64 -15 -104t-50.5 -60t-76 -26t-108.5 -6q-39 0 -67 2.5t-60.5 13.5t-53 30t-34 53.5t-13.5 83.5v29h73q0 -90 29.5 -119t118.5 -29h22q88 0 125.5 24t37.5 103q0 43 -22 67.5t-57 32.5t-77 11t-84.5 9.5t-77.5 21.5t-57 53t-22 98
q0 101 55 135t174 34z" />
  </font>
</defs>
</svg>
